<svg width="25" height="36" viewBox="0 0 25 36" fill="none" xmlns="http://www.w3.org/2000/svg">
<path d="M10.3991 21.5076H9.92578V32.2588H10.3991V21.5076Z" fill="white"/>
<path d="M12.3517 29.5605H7.68555V35.1824H12.3517V29.5605Z" fill="white"/>
<path d="M14.4199 32.2608L14.4249 21.5129H14.8983V32.2608H14.4199Z" fill="#324A92"/>
<path d="M17.0187 29.5623H12.3525V35.1844H17.0187V29.5623Z" fill="#324A92"/>
<path d="M6.21325 0L0 10.7512L18.6308 0.00522914L6.21325 0Z" fill="#324A92"/>
<path d="M18.6308 0.00537109L18.6216 21.5131L24.8348 10.7619L18.6308 0.00537109Z" fill="#324A92"/>
<path d="M0 10.7512L6.20434 21.5077L6.21021 7.16919L0 10.7512Z" fill="#5967A5"/>
<path d="M18.631 0.00537109L6.22021 7.1638L18.6248 14.3349L18.631 0.00537109Z" fill="#5967A5"/>
<path d="M6.21983 7.16357L6.20997 7.1691L6.2041 21.5076L18.6245 14.3436V14.3347L6.21983 7.16357Z" fill="#8088B9"/>
<path d="M18.6214 21.5129L18.6245 14.3438L6.2041 21.5076L18.6214 21.5129Z" fill="#5967A5"/>
</svg>
