<svg width="1093" height="106" viewBox="0 0 1093 106" fill="none" xmlns="http://www.w3.org/2000/svg">
<path d="M1093 78.7042V106H0C0.113086 100.458 1.70707 95.2719 4.40498 90.8138C9.13306 82.987 17.2591 77.3866 26.7745 75.9944C28.6754 75.4524 30.6841 75.1548 32.7627 75.1548C36.6992 75.1601 40.3826 76.2175 43.549 78.056C46.053 79.0921 48.3901 80.4365 50.5172 82.0465C54.9438 76.0156 62.1328 72.0995 70.2535 72.0995C72.2944 72.0995 74.2761 72.3547 76.1717 72.8276C78.9342 62.5512 88.4227 54.9687 99.7044 54.9793C106.845 54.9846 113.259 58.0293 117.707 62.8647C119.021 60.5905 121.498 59.0548 124.346 59.0548C126.016 59.0548 127.561 59.5915 128.816 60.4895C130.033 55.5532 132.521 51.1057 135.919 47.5084C138.611 44.6497 141.88 42.3277 145.547 40.7124C147.626 39.7931 149.834 39.1078 152.139 38.6827C153.91 38.3586 155.736 38.1938 157.605 38.1938C161.886 38.1991 165.951 39.0917 169.619 40.7124C177.739 44.2884 183.927 51.3714 186.21 60.0112C187.61 58.4597 189.646 57.466 191.929 57.466C194.918 57.466 197.502 59.1664 198.757 61.6319C203.119 57.5617 208.994 55.0643 215.472 55.0696C218.181 55.0749 220.793 55.516 223.221 56.3236C227.96 57.9018 232.042 60.8773 234.966 64.7562C239.861 62.5192 245.311 61.2706 251.057 61.2706C251.407 61.2706 251.752 61.2759 252.096 61.2865C253.367 56.5256 257.745 53.008 262.979 53.008C263.426 53.008 263.873 53.0398 264.309 53.093C267.239 48.1354 271.283 43.8952 276.092 40.7124C282.188 36.6794 289.512 34.3256 297.406 34.3309C305.268 34.3362 312.57 36.69 318.645 40.7124C323.001 43.5923 326.722 47.3385 329.566 51.6956C331.337 49.5861 334.008 48.2418 337.002 48.2418C338.866 48.2418 340.6 48.7731 342.075 49.6764C342.361 46.5892 342.953 43.5923 343.825 40.7124C343.884 40.5264 343.933 40.3405 343.992 40.1599C349.91 21.4668 367.6 7.90129 388.494 7.91723C394.17 7.92255 399.614 8.92681 404.639 10.7706C418.182 15.7228 428.748 26.706 432.996 40.4149C435.086 39.3309 437.461 38.7146 439.986 38.7146C445.253 38.7146 449.884 41.3926 452.566 45.4362C459.486 38.6614 469.017 34.469 479.54 34.4743C491.214 34.4902 501.651 39.6763 508.657 47.8273C509.087 48.3214 509.502 48.8315 509.906 49.3522C511.839 49.1184 513.81 48.9856 515.808 48.9856C522.733 48.9962 529.314 50.4416 535.253 53.0612C548 58.6776 557.779 69.6394 561.732 83.0615C561.915 83.4122 562.071 83.7841 562.243 84.1454C564.505 81.7171 567.736 80.1761 571.349 80.1761C576.18 80.1761 580.364 82.9233 582.4 86.9138C589.454 80.3303 598.964 76.2867 609.449 76.292C621.84 76.3133 632.879 81.9774 640.079 90.8138C640.391 91.1911 640.693 91.5791 640.989 91.967C641.878 91.5631 642.777 91.1752 643.687 90.8138C650.887 87.918 658.77 86.3239 667.026 86.3239C667.591 86.3345 668.146 86.3399 668.701 86.3558C670.763 78.6512 677.85 72.9551 686.31 72.9551C687.042 72.9551 687.764 73.0082 688.464 73.0932C693.203 65.0751 699.751 58.2206 707.532 53.0612C707.931 52.8008 708.329 52.5404 708.733 52.2906C718.351 46.2332 729.767 42.7316 742.018 42.7422C754.743 42.7528 766.558 46.5574 776.385 53.0612C783.435 57.7212 789.46 63.7839 794.054 70.835C796.052 68.4545 798.766 66.6744 801.862 65.8189C803.203 65.4469 804.619 65.2504 806.084 65.2504C809.105 65.2504 811.911 66.1058 814.296 67.5671C814.754 62.5723 815.718 57.7212 817.123 53.0612C817.22 52.7636 817.307 52.4607 817.403 52.1684C823.742 32.1523 838.416 15.7707 857.42 6.98736C867.129 2.49741 877.975 -0.0105935 889.407 3.36349e-05C892.805 0.00534718 896.144 0.228516 899.418 0.664227C905.008 1.3975 910.403 2.73648 915.53 4.61748C937.447 12.6356 954.539 30.3988 961.416 52.5829C964.793 50.8241 968.638 49.8358 972.725 49.8358C981.249 49.8358 988.74 54.1663 993.08 60.7073C1004.28 49.7455 1019.7 42.9653 1036.73 42.9759C1061.73 42.9972 1083.25 57.6413 1093 78.7042Z" fill="white"/>
</svg>
