<svg width="178" height="217" viewBox="0 0 178 217" fill="none" xmlns="http://www.w3.org/2000/svg">
<g clip-path="url(#clip0_651_1009)">
<path fill-rule="evenodd" clip-rule="evenodd" d="M89 0.469238C99.5795 0.469238 108.175 9.025 108.175 19.5552C108.175 27.3212 103.547 34.0341 96.8024 36.9299V30.3486C96.8024 30.217 96.8024 30.0853 96.8024 29.9537C99.9762 27.5844 102.092 23.7672 102.092 19.5552C102.092 12.3157 96.2734 6.52408 89 6.52408C81.7266 6.52408 75.9079 12.3157 75.9079 19.5552C75.9079 23.7672 78.0238 27.5844 81.1976 29.9537C81.1976 30.0853 81.1976 30.217 81.1976 30.3486V36.9299C74.5854 33.9025 69.8247 27.3212 69.8247 19.5552C69.8247 9.025 78.4205 0.469238 89 0.469238Z" fill="#8ECED3"/>
<path fill-rule="evenodd" clip-rule="evenodd" d="M89 24.557C92.1738 24.557 94.8187 27.1895 94.8187 30.3486V39.4309C94.8187 42.5899 92.1738 45.2225 89 45.2225C85.8261 45.2225 83.1813 42.5899 83.1813 39.4309V30.3486C83.1813 27.1895 85.8261 24.557 89 24.557Z" fill="#8ECED3"/>
<path fill-rule="evenodd" clip-rule="evenodd" d="M89 39.4309C138.195 39.4309 178 79.0507 178 128.016C178 176.981 138.195 216.601 89 216.601C39.8054 216.469 0 176.85 0 128.016C0 79.0507 39.8054 39.4309 89 39.4309Z" fill="#8ECED3"/>
<path fill-rule="evenodd" clip-rule="evenodd" d="M89 45.4857C134.756 45.4857 171.917 82.4729 171.917 128.016C171.917 173.559 134.756 210.546 89 210.546C43.2437 210.546 6.08321 173.559 6.08321 128.016C6.08321 82.3413 43.2437 45.4857 89 45.4857Z" fill="white"/>
<path fill-rule="evenodd" clip-rule="evenodd" d="M89 45.4857C134.756 45.4857 171.917 82.4729 171.917 128.016C171.917 173.559 134.756 210.546 89 210.546C87.942 210.546 86.8841 210.546 85.8261 210.546C130.128 208.835 165.569 172.637 165.569 128.147C165.569 83.6576 130.128 47.1969 85.8261 45.4857C86.8841 45.4857 87.942 45.4857 89 45.4857Z" fill="#FAFAFA"/>
<path fill-rule="evenodd" clip-rule="evenodd" d="M89 65.7562C123.516 65.7562 151.551 93.6612 151.551 128.016C151.551 162.37 123.516 190.275 89 190.275C54.4844 190.144 26.4487 162.37 26.4487 128.016C26.4487 93.5295 54.4844 65.7562 89 65.7562Z" fill="#8ECED3"/>
<path fill-rule="evenodd" clip-rule="evenodd" d="M89 71.8112C120.21 71.8112 145.468 96.9519 145.468 128.016C145.468 159.08 120.21 184.221 89 184.221C57.7905 184.221 32.5319 159.08 32.5319 128.016C32.5319 96.9519 57.7905 71.8112 89 71.8112Z" fill="white"/>
<path fill-rule="evenodd" clip-rule="evenodd" d="M124.045 47.3285L126.028 48.2499L113.994 74.9702L112.01 74.0488L124.045 47.3285Z" fill="#8ECED3"/>
<path fill-rule="evenodd" clip-rule="evenodd" d="M64.0059 180.93L65.9896 181.851L53.9554 208.572L51.9718 207.65L64.0059 180.93Z" fill="#8ECED3"/>
<path fill-rule="evenodd" clip-rule="evenodd" d="M53.9554 47.3285L51.9718 48.2499L64.0059 74.9702L65.9896 74.0488L53.9554 47.3285Z" fill="#8ECED3"/>
<path fill-rule="evenodd" clip-rule="evenodd" d="M113.994 180.93L112.01 181.851L124.045 208.572L126.028 207.65L113.994 180.93Z" fill="#8ECED3"/>
<path fill-rule="evenodd" clip-rule="evenodd" d="M170.065 162.765L169.14 164.871L142.162 152.893L143.088 150.787L170.065 162.765Z" fill="#8ECED3"/>
<path fill-rule="evenodd" clip-rule="evenodd" d="M35.7058 103.007L34.7801 105.113L7.93462 93.1347L8.86033 91.0287L35.7058 103.007Z" fill="#8ECED3"/>
<path fill-rule="evenodd" clip-rule="evenodd" d="M170.065 93.1347L169.14 91.0287L142.162 103.007L143.088 105.113L170.065 93.1347Z" fill="#8ECED3"/>
<path fill-rule="evenodd" clip-rule="evenodd" d="M35.7058 152.893L34.7801 150.787L7.93462 162.765L8.86033 164.871L35.7058 152.893Z" fill="#8ECED3"/>
<path fill-rule="evenodd" clip-rule="evenodd" d="M89 71.8112C120.21 71.8112 145.468 96.9519 145.468 128.016C145.468 159.08 120.21 184.221 89 184.221C87.9421 184.221 86.8841 184.221 85.6939 184.089C115.316 182.378 138.856 157.895 138.856 128.016C138.856 98.1366 115.316 73.6539 85.6939 71.9428C86.7519 71.8112 87.9421 71.8112 89 71.8112Z" fill="#FAFAFA"/>
<path fill-rule="evenodd" clip-rule="evenodd" d="M119.284 158.158L99.7117 147.497L89 141.573L78.156 147.497L58.584 158.158L69.4279 138.678L75.3789 128.016L69.4279 117.222L58.584 97.7416L78.156 108.535L89 114.327L99.7117 108.535L119.284 97.7416L108.572 117.222L102.621 128.016L108.572 138.678L119.284 158.158Z" fill="#E6E6E6"/>
<path fill-rule="evenodd" clip-rule="evenodd" d="M89 75.6283L96.6701 101.822L104.473 128.016H89H73.5275L81.1976 101.822L89 75.6283Z" fill="#61C2CB"/>
<path fill-rule="evenodd" clip-rule="evenodd" d="M89 180.272L96.6701 154.078L104.473 128.016H89H73.5275L81.1976 154.078L89 180.272Z" fill="#595A5A"/>
<path fill-rule="evenodd" clip-rule="evenodd" d="M89 122.356C92.1739 122.356 94.6865 124.857 94.6865 128.016C94.6865 131.175 92.1739 133.676 89 133.676C85.8262 133.676 83.3135 131.175 83.3135 128.016C83.3135 124.857 85.8262 122.356 89 122.356Z" fill="white"/>
<path fill-rule="evenodd" clip-rule="evenodd" d="M89 122.356C92.1738 122.356 94.6865 124.857 94.6865 128.016C94.6865 131.175 92.1738 133.676 89 133.676C88.7355 133.676 88.471 133.676 88.2065 133.676C90.9836 133.281 93.0995 130.912 93.0995 128.147C93.0995 125.252 90.9836 123.014 88.2065 122.619C88.471 122.356 88.7355 122.356 89 122.356Z" fill="#E6E6E6"/>
</g>
<defs>
<clipPath id="clip0_651_1009">
<rect width="178" height="216" fill="white" transform="translate(0 0.469238)"/>
</clipPath>
</defs>
</svg>
