<svg width="306" height="207" viewBox="0 0 306 207" fill="none" xmlns="http://www.w3.org/2000/svg">
<rect x="69.5" y="0.5" width="236" height="62" rx="10.5" fill="#03A698" stroke="#049285"/>
<rect x="69.5" y="72.5" width="236" height="62" rx="10.5" fill="#FE7F00" stroke="#D26C05"/>
<rect x="69.5" y="144.5" width="236" height="62" rx="10.5" fill="#3D57A5" stroke="#3351AB"/>
<path d="M134.427 38.144C134.043 38.144 133.773 38.066 133.617 37.91C133.461 37.754 133.383 37.502 133.383 37.154V26.822C133.383 26.582 133.473 26.378 133.653 26.21C133.833 26.03 134.037 25.94 134.265 25.94H137.325C138.189 25.94 138.927 26.09 139.539 26.39C140.163 26.678 140.631 27.068 140.943 27.56C141.255 28.04 141.411 28.562 141.411 29.126C141.411 30.026 141.135 30.776 140.583 31.376C141.195 31.664 141.651 32.048 141.951 32.528C142.251 32.996 142.401 33.578 142.401 34.274C142.401 35.522 141.735 36.482 140.403 37.154C139.071 37.814 137.079 38.144 134.427 38.144ZM137.937 30.818C138.429 30.818 138.831 30.65 139.143 30.314C139.467 29.966 139.629 29.576 139.629 29.144C139.629 28.724 139.425 28.376 139.017 28.1C138.621 27.812 138.057 27.668 137.325 27.668H135.183V30.818H137.937ZM135.183 36.434C136.779 36.41 138.081 36.218 139.089 35.858C140.109 35.498 140.619 34.97 140.619 34.274C140.619 33.758 140.385 33.344 139.917 33.032C139.449 32.708 138.789 32.546 137.937 32.546H135.183V36.434ZM146.763 38.162C146.115 38.162 145.599 38.024 145.215 37.748C144.831 37.46 144.543 36.944 144.351 36.2C144.159 35.456 144.063 34.388 144.063 32.996C144.063 32.528 144.081 32.012 144.117 31.448C144.153 30.884 144.201 30.41 144.261 30.026C144.309 29.726 144.399 29.498 144.531 29.342C144.663 29.186 144.855 29.108 145.107 29.108C145.347 29.108 145.551 29.18 145.719 29.324C145.887 29.468 145.971 29.678 145.971 29.954L145.935 30.458C145.815 31.478 145.755 32.456 145.755 33.392C145.755 34.616 145.857 35.45 146.061 35.894C146.277 36.326 146.571 36.542 146.943 36.542C147.375 36.542 147.819 36.428 148.275 36.2C148.731 35.96 149.055 35.732 149.247 35.516C149.319 35.444 149.355 35.294 149.355 35.066L149.391 29.936C149.391 29.696 149.475 29.498 149.643 29.342C149.823 29.186 150.021 29.108 150.237 29.108C150.465 29.108 150.663 29.186 150.831 29.342C151.011 29.498 151.101 29.696 151.101 29.936V37.244C151.101 37.472 151.011 37.676 150.831 37.856C150.663 38.024 150.465 38.108 150.237 38.108C149.997 38.108 149.781 38.036 149.589 37.892C149.409 37.736 149.319 37.544 149.319 37.316V37.118C148.863 37.442 148.437 37.7 148.041 37.892C147.657 38.072 147.231 38.162 146.763 38.162ZM154.856 41.33C154.64 41.33 154.454 41.24 154.298 41.06C154.142 40.892 154.064 40.688 154.064 40.448C154.064 40.34 154.094 40.214 154.154 40.07L155.72 36.704L152.498 30.422C152.426 30.278 152.39 30.134 152.39 29.99C152.39 29.75 152.474 29.546 152.642 29.378C152.822 29.198 153.038 29.108 153.29 29.108C153.482 29.108 153.65 29.162 153.794 29.27C153.938 29.378 154.046 29.504 154.118 29.648L156.656 34.67L158.924 29.648C158.996 29.492 159.104 29.36 159.248 29.252C159.404 29.144 159.572 29.09 159.752 29.09C159.968 29.09 160.154 29.174 160.31 29.342C160.466 29.51 160.544 29.72 160.544 29.972C160.544 30.116 160.52 30.236 160.472 30.332L155.666 40.772C155.594 40.94 155.486 41.072 155.342 41.168C155.198 41.276 155.036 41.33 154.856 41.33ZM161.822 40.196C161.594 40.196 161.402 40.124 161.246 39.98C161.102 39.848 161.03 39.68 161.03 39.476C161.03 39.32 161.072 39.146 161.156 38.954L166.538 26.138C166.658 25.85 166.892 25.706 167.24 25.706C167.456 25.706 167.636 25.784 167.78 25.94C167.936 26.084 168.014 26.252 168.014 26.444C168.014 26.564 167.96 26.75 167.852 27.002L162.488 39.8C162.44 39.908 162.35 39.998 162.218 40.07C162.098 40.154 161.966 40.196 161.822 40.196ZM170.722 38.108C170.47 38.108 170.26 38.024 170.092 37.856C169.924 37.676 169.84 37.466 169.84 37.226V26.732C169.84 26.48 169.924 26.27 170.092 26.102C170.26 25.934 170.47 25.85 170.722 25.85C170.974 25.85 171.19 25.934 171.37 26.102C171.55 26.27 171.64 26.48 171.64 26.732V31.412L178.192 30.494V26.732C178.192 26.48 178.276 26.27 178.444 26.102C178.624 25.934 178.84 25.85 179.092 25.85C179.332 25.85 179.542 25.934 179.722 26.102C179.902 26.27 179.992 26.48 179.992 26.732V37.226C179.992 37.454 179.902 37.658 179.722 37.838C179.542 38.018 179.332 38.108 179.092 38.108C178.84 38.108 178.624 38.024 178.444 37.856C178.276 37.676 178.192 37.466 178.192 37.226V32.258L171.64 33.176V37.226C171.64 37.466 171.55 37.676 171.37 37.856C171.19 38.024 170.974 38.108 170.722 38.108ZM185.732 38.108C185.048 38.108 184.418 37.922 183.842 37.55C183.278 37.178 182.834 36.674 182.51 36.038C182.186 35.39 182.024 34.688 182.024 33.932C182.024 33.08 182.216 32.288 182.6 31.556C182.984 30.812 183.5 30.224 184.148 29.792C184.796 29.348 185.492 29.126 186.236 29.126C186.92 29.126 187.544 29.318 188.108 29.702C188.684 30.086 189.134 30.596 189.458 31.232C189.794 31.868 189.962 32.552 189.962 33.284C189.962 34.148 189.77 34.952 189.386 35.696C189.002 36.428 188.48 37.016 187.82 37.46C187.172 37.892 186.476 38.108 185.732 38.108ZM185.732 36.488C186.152 36.488 186.554 36.344 186.938 36.056C187.322 35.768 187.628 35.384 187.856 34.904C188.084 34.424 188.198 33.914 188.198 33.374C188.198 32.918 188.108 32.492 187.928 32.096C187.748 31.688 187.502 31.364 187.19 31.124C186.878 30.872 186.536 30.746 186.164 30.746C185.744 30.746 185.348 30.896 184.976 31.196C184.616 31.484 184.328 31.874 184.112 32.366C183.896 32.846 183.788 33.362 183.788 33.914C183.788 34.454 183.878 34.916 184.058 35.3C184.25 35.684 184.49 35.978 184.778 36.182C185.078 36.386 185.396 36.488 185.732 36.488ZM192.763 38.108C192.535 38.108 192.331 38.03 192.151 37.874C191.983 37.706 191.899 37.514 191.899 37.298V26.858C191.899 26.618 191.977 26.42 192.133 26.264C192.301 26.096 192.511 26.012 192.763 26.012C192.991 26.012 193.189 26.096 193.357 26.264C193.537 26.432 193.627 26.63 193.627 26.858V37.298C193.627 37.514 193.537 37.706 193.357 37.874C193.177 38.03 192.979 38.108 192.763 38.108ZM198.799 38.09C198.187 38.09 197.635 37.934 197.143 37.622C196.663 37.298 196.279 36.83 195.991 36.218C195.715 35.606 195.577 34.874 195.577 34.022C195.577 32.99 195.739 32.108 196.063 31.376C196.387 30.644 196.837 30.092 197.413 29.72C197.989 29.336 198.655 29.144 199.411 29.144C200.011 29.144 200.653 29.282 201.337 29.558L201.427 26.768C201.439 26.528 201.529 26.324 201.697 26.156C201.877 25.976 202.087 25.886 202.327 25.886C202.555 25.886 202.753 25.976 202.921 26.156C203.101 26.324 203.185 26.54 203.173 26.804L202.921 37.28C202.909 37.52 202.819 37.718 202.651 37.874C202.483 38.03 202.279 38.108 202.039 38.108C201.811 38.108 201.613 38.042 201.445 37.91C201.289 37.778 201.211 37.604 201.211 37.388V37.064C200.899 37.352 200.533 37.598 200.113 37.802C199.693 37.994 199.255 38.09 198.799 38.09ZM198.943 36.47C199.351 36.47 199.729 36.386 200.077 36.218C200.437 36.038 200.719 35.822 200.923 35.57C201.127 35.318 201.235 35.084 201.247 34.868L201.319 31.322C201.103 31.178 200.827 31.052 200.491 30.944C200.155 30.824 199.831 30.764 199.519 30.764C198.787 30.764 198.235 31.04 197.863 31.592C197.491 32.132 197.305 32.924 197.305 33.968C197.305 34.832 197.449 35.468 197.737 35.876C198.037 36.272 198.439 36.47 198.943 36.47ZM205.521 40.196C205.293 40.196 205.101 40.124 204.945 39.98C204.801 39.848 204.729 39.68 204.729 39.476C204.729 39.32 204.771 39.146 204.855 38.954L210.237 26.138C210.357 25.85 210.591 25.706 210.939 25.706C211.155 25.706 211.335 25.784 211.479 25.94C211.635 26.084 211.713 26.252 211.713 26.444C211.713 26.564 211.659 26.75 211.551 27.002L206.187 39.8C206.139 39.908 206.049 39.998 205.917 40.07C205.797 40.154 205.665 40.196 205.521 40.196ZM214.439 38C214.187 38 213.971 37.916 213.791 37.748C213.623 37.568 213.539 37.352 213.539 37.1V26.84C213.539 26.588 213.623 26.378 213.791 26.21C213.971 26.03 214.187 25.94 214.439 25.94H221.621C221.873 25.94 222.083 26.03 222.251 26.21C222.419 26.378 222.503 26.588 222.503 26.84C222.503 27.092 222.419 27.308 222.251 27.488C222.083 27.656 221.873 27.74 221.621 27.74H215.321V30.836H220.793C221.045 30.836 221.255 30.92 221.423 31.088C221.591 31.256 221.675 31.466 221.675 31.718C221.675 31.97 221.591 32.186 221.423 32.366C221.255 32.534 221.045 32.618 220.793 32.618H215.321V36.2H221.585C221.837 36.2 222.047 36.29 222.215 36.47C222.383 36.638 222.467 36.848 222.467 37.1C222.467 37.352 222.383 37.568 222.215 37.748C222.047 37.916 221.837 38 221.585 38H214.439ZM230.401 38.108C230.281 38.108 230.161 38.084 230.041 38.036C229.933 37.988 229.843 37.922 229.771 37.838L227.215 34.706L224.263 37.838C224.107 38.006 223.897 38.09 223.633 38.09C223.405 38.09 223.207 38.006 223.039 37.838C222.871 37.658 222.787 37.454 222.787 37.226C222.787 36.974 222.871 36.764 223.039 36.596L226.099 33.446L223.687 30.566C223.615 30.482 223.555 30.386 223.507 30.278C223.471 30.17 223.453 30.074 223.453 29.99C223.453 29.75 223.537 29.546 223.705 29.378C223.873 29.198 224.071 29.108 224.299 29.108C224.563 29.108 224.779 29.204 224.947 29.396L227.323 32.312L230.095 29.414C230.275 29.234 230.485 29.144 230.725 29.144C230.953 29.144 231.151 29.234 231.319 29.414C231.499 29.582 231.589 29.78 231.589 30.008C231.589 30.116 231.565 30.224 231.517 30.332C231.469 30.44 231.409 30.53 231.337 30.602L228.457 33.554L231.085 36.704C231.205 36.86 231.265 37.04 231.265 37.244C231.265 37.484 231.181 37.688 231.013 37.856C230.845 38.024 230.641 38.108 230.401 38.108ZM233.916 28.37C233.688 28.37 233.484 28.28 233.304 28.1C233.136 27.92 233.058 27.716 233.07 27.488L233.088 26.822C233.1 26.594 233.19 26.396 233.358 26.228C233.526 26.06 233.724 25.976 233.952 25.976C234.18 25.976 234.378 26.066 234.546 26.246C234.726 26.426 234.81 26.624 234.798 26.84L234.78 27.524C234.768 27.764 234.678 27.968 234.51 28.136C234.354 28.292 234.156 28.37 233.916 28.37ZM233.826 38.108C233.586 38.108 233.376 38.024 233.196 37.856C233.028 37.676 232.944 37.466 232.944 37.226L233.034 30.062C233.034 29.822 233.118 29.618 233.286 29.45C233.466 29.27 233.676 29.18 233.916 29.18C234.168 29.18 234.378 29.27 234.546 29.45C234.714 29.618 234.798 29.822 234.798 30.062L234.708 37.226C234.708 37.466 234.618 37.676 234.438 37.856C234.27 38.024 234.066 38.108 233.826 38.108ZM238.887 38.126C238.659 38.126 238.455 38.042 238.275 37.874C238.107 37.706 238.023 37.508 238.023 37.28V30.854H236.601C236.361 30.854 236.157 30.77 235.989 30.602C235.821 30.422 235.737 30.218 235.737 29.99C235.737 29.726 235.827 29.516 236.007 29.36C236.187 29.192 236.397 29.108 236.637 29.108H238.023V27.182C238.023 26.954 238.107 26.75 238.275 26.57C238.443 26.39 238.647 26.3 238.887 26.3C239.139 26.3 239.343 26.39 239.499 26.57C239.667 26.738 239.751 26.942 239.751 27.182V29.108H241.281C241.521 29.108 241.725 29.192 241.893 29.36C242.061 29.528 242.145 29.738 242.145 29.99C242.145 30.218 242.061 30.422 241.893 30.602C241.725 30.77 241.521 30.854 241.281 30.854H239.751V37.28C239.751 37.508 239.667 37.706 239.499 37.874C239.331 38.042 239.127 38.126 238.887 38.126Z" fill="white"/>
<path d="M95.2065 110C94.9545 110 94.7385 109.916 94.5585 109.748C94.3905 109.568 94.3065 109.352 94.3065 109.1C94.3065 108.848 94.3905 108.638 94.5585 108.47C94.7385 108.29 94.9545 108.2 95.2065 108.2H96.4665V99.74H95.2065C94.9545 99.74 94.7385 99.65 94.5585 99.47C94.3905 99.29 94.3065 99.074 94.3065 98.822C94.3065 98.57 94.3905 98.36 94.5585 98.192C94.7385 98.024 94.9545 97.94 95.2065 97.94H99.5085C99.7605 97.94 99.9705 98.024 100.138 98.192C100.306 98.36 100.39 98.57 100.39 98.822C100.39 99.074 100.306 99.29 100.138 99.47C99.9705 99.65 99.7605 99.74 99.5085 99.74H98.2665V108.2H99.5085C99.7725 108.2 99.9825 108.29 100.138 108.47C100.306 108.638 100.39 108.848 100.39 109.1C100.39 109.352 100.306 109.568 100.138 109.748C99.9705 109.916 99.7605 110 99.5085 110H95.2065ZM103.149 110.108C102.921 110.108 102.717 110.024 102.537 109.856C102.369 109.688 102.285 109.496 102.285 109.28V101.972C102.285 101.732 102.375 101.528 102.555 101.36C102.735 101.192 102.945 101.108 103.185 101.108C103.413 101.108 103.605 101.192 103.761 101.36C103.929 101.528 104.013 101.732 104.013 101.972V103.34C104.349 102.62 104.775 102.074 105.291 101.702C105.807 101.318 106.371 101.126 106.983 101.126C107.655 101.126 108.189 101.282 108.585 101.594C108.981 101.906 109.269 102.422 109.449 103.142C109.629 103.85 109.719 104.834 109.719 106.094L109.701 109.244C109.701 109.472 109.623 109.676 109.467 109.856C109.311 110.024 109.113 110.108 108.873 110.108C108.645 110.108 108.441 110.024 108.261 109.856C108.093 109.676 108.009 109.478 108.009 109.262V106.274C108.009 105.338 107.967 104.618 107.883 104.114C107.799 103.61 107.673 103.268 107.505 103.088C107.337 102.896 107.109 102.8 106.821 102.8C106.461 102.8 106.101 102.956 105.741 103.268C105.381 103.568 105.045 104 104.733 104.564C104.457 105.056 104.265 105.536 104.157 106.004C104.049 106.472 103.995 107.036 103.995 107.696V109.208C103.995 109.472 103.917 109.688 103.761 109.856C103.617 110.024 103.413 110.108 103.149 110.108ZM114.543 110.126C114.339 110.126 114.177 110.078 114.057 109.982C113.937 109.886 113.835 109.736 113.751 109.532L110.781 102.296C110.745 102.188 110.727 102.068 110.727 101.936C110.727 101.72 110.811 101.534 110.979 101.378C111.159 101.21 111.369 101.126 111.609 101.126C111.993 101.126 112.263 101.318 112.419 101.702L114.543 107.066L116.685 101.648C116.745 101.48 116.847 101.348 116.991 101.252C117.147 101.156 117.315 101.108 117.495 101.108C117.747 101.108 117.951 101.192 118.107 101.36C118.275 101.528 118.359 101.726 118.359 101.954C118.359 102.05 118.329 102.176 118.269 102.332L115.353 109.586C115.281 109.766 115.179 109.904 115.047 110C114.927 110.084 114.759 110.126 114.543 110.126ZM123.294 110.108C122.442 110.108 121.674 109.928 120.99 109.568C120.318 109.196 119.79 108.674 119.406 108.002C119.022 107.318 118.83 106.514 118.83 105.59C118.83 104.834 118.998 104.114 119.334 103.43C119.682 102.734 120.162 102.176 120.774 101.756C121.398 101.336 122.106 101.126 122.898 101.126C123.63 101.126 124.254 101.276 124.77 101.576C125.298 101.864 125.694 102.212 125.958 102.62C126.222 103.028 126.354 103.394 126.354 103.718C126.354 103.874 126.306 104.024 126.21 104.168C126.114 104.312 125.976 104.438 125.796 104.546L120.972 107.318C121.14 107.69 121.434 107.978 121.854 108.182C122.286 108.386 122.766 108.488 123.294 108.488C123.99 108.488 124.584 108.23 125.076 107.714C125.268 107.522 125.466 107.426 125.67 107.426C125.91 107.426 126.108 107.504 126.264 107.66C126.432 107.816 126.516 108.008 126.516 108.236C126.516 108.428 126.444 108.608 126.3 108.776C125.964 109.148 125.514 109.466 124.95 109.73C124.398 109.982 123.846 110.108 123.294 110.108ZM124.572 103.502C124.428 103.25 124.224 103.064 123.96 102.944C123.696 102.812 123.384 102.746 123.024 102.746C122.34 102.746 121.764 102.98 121.296 103.448C120.84 103.916 120.576 104.492 120.504 105.176C120.48 105.356 120.468 105.572 120.468 105.824L124.572 103.502ZM130.84 110.108C130.144 110.108 129.538 109.958 129.022 109.658C128.518 109.346 128.128 108.992 127.852 108.596C127.588 108.188 127.456 107.858 127.456 107.606C127.456 107.366 127.54 107.168 127.708 107.012C127.876 106.844 128.074 106.76 128.302 106.76C128.506 106.76 128.674 106.814 128.806 106.922C128.95 107.03 129.052 107.174 129.112 107.354C129.244 107.726 129.46 108.02 129.76 108.236C130.06 108.452 130.432 108.56 130.876 108.56C131.344 108.56 131.71 108.446 131.974 108.218C132.238 107.99 132.37 107.732 132.37 107.444C132.37 107.168 132.256 106.952 132.028 106.796C131.812 106.628 131.368 106.442 130.696 106.238C129.712 105.938 129.004 105.584 128.572 105.176C128.14 104.756 127.924 104.21 127.924 103.538C127.924 102.83 128.206 102.254 128.77 101.81C129.334 101.354 130.12 101.126 131.128 101.126C132.064 101.126 132.79 101.33 133.306 101.738C133.834 102.146 134.098 102.692 134.098 103.376C134.098 103.748 134.02 104.036 133.864 104.24C133.708 104.432 133.486 104.528 133.198 104.528C132.946 104.528 132.742 104.45 132.586 104.294C132.43 104.138 132.352 103.97 132.352 103.79C132.352 103.73 132.364 103.658 132.388 103.574C132.424 103.478 132.442 103.406 132.442 103.358C132.442 103.142 132.334 102.968 132.118 102.836C131.914 102.704 131.596 102.638 131.164 102.638C130.624 102.638 130.222 102.716 129.958 102.872C129.706 103.028 129.58 103.238 129.58 103.502C129.58 103.778 129.712 104.006 129.976 104.186C130.24 104.354 130.714 104.546 131.398 104.762C132.394 105.074 133.084 105.416 133.468 105.788C133.864 106.16 134.062 106.682 134.062 107.354C134.062 107.81 133.924 108.254 133.648 108.686C133.384 109.106 133.006 109.448 132.514 109.712C132.034 109.976 131.476 110.108 130.84 110.108ZM137.461 110.126C137.233 110.126 137.029 110.042 136.849 109.874C136.681 109.706 136.597 109.508 136.597 109.28V102.854H135.175C134.935 102.854 134.731 102.77 134.563 102.602C134.395 102.422 134.311 102.218 134.311 101.99C134.311 101.726 134.401 101.516 134.581 101.36C134.761 101.192 134.971 101.108 135.211 101.108H136.597V99.182C136.597 98.954 136.681 98.75 136.849 98.57C137.017 98.39 137.221 98.3 137.461 98.3C137.713 98.3 137.917 98.39 138.073 98.57C138.241 98.738 138.325 98.942 138.325 99.182V101.108H139.855C140.095 101.108 140.299 101.192 140.467 101.36C140.635 101.528 140.719 101.738 140.719 101.99C140.719 102.218 140.635 102.422 140.467 102.602C140.299 102.77 140.095 102.854 139.855 102.854H138.325V109.28C138.325 109.508 138.241 109.706 138.073 109.874C137.905 110.042 137.701 110.126 137.461 110.126ZM142.773 100.37C142.545 100.37 142.341 100.28 142.161 100.1C141.993 99.92 141.915 99.716 141.927 99.488L141.945 98.822C141.957 98.594 142.047 98.396 142.215 98.228C142.383 98.06 142.581 97.976 142.809 97.976C143.037 97.976 143.235 98.066 143.403 98.246C143.583 98.426 143.667 98.624 143.655 98.84L143.637 99.524C143.625 99.764 143.535 99.968 143.367 100.136C143.211 100.292 143.013 100.37 142.773 100.37ZM142.683 110.108C142.443 110.108 142.233 110.024 142.053 109.856C141.885 109.676 141.801 109.466 141.801 109.226L141.891 102.062C141.891 101.822 141.975 101.618 142.143 101.45C142.323 101.27 142.533 101.18 142.773 101.18C143.025 101.18 143.235 101.27 143.403 101.45C143.571 101.618 143.655 101.822 143.655 102.062L143.565 109.226C143.565 109.466 143.475 109.676 143.295 109.856C143.127 110.024 142.923 110.108 142.683 110.108ZM147.042 110.108C146.814 110.108 146.61 110.024 146.43 109.856C146.262 109.688 146.178 109.496 146.178 109.28V101.972C146.178 101.732 146.268 101.528 146.448 101.36C146.628 101.192 146.838 101.108 147.078 101.108C147.306 101.108 147.498 101.192 147.654 101.36C147.822 101.528 147.906 101.732 147.906 101.972V103.34C148.242 102.62 148.668 102.074 149.184 101.702C149.7 101.318 150.264 101.126 150.876 101.126C151.548 101.126 152.082 101.282 152.478 101.594C152.874 101.906 153.162 102.422 153.342 103.142C153.522 103.85 153.612 104.834 153.612 106.094L153.594 109.244C153.594 109.472 153.516 109.676 153.36 109.856C153.204 110.024 153.006 110.108 152.766 110.108C152.538 110.108 152.334 110.024 152.154 109.856C151.986 109.676 151.902 109.478 151.902 109.262V106.274C151.902 105.338 151.86 104.618 151.776 104.114C151.692 103.61 151.566 103.268 151.398 103.088C151.23 102.896 151.002 102.8 150.714 102.8C150.354 102.8 149.994 102.956 149.634 103.268C149.274 103.568 148.938 104 148.626 104.564C148.35 105.056 148.158 105.536 148.05 106.004C147.942 106.472 147.888 107.036 147.888 107.696V109.208C147.888 109.472 147.81 109.688 147.654 109.856C147.51 110.024 147.306 110.108 147.042 110.108ZM159.029 113.132C158.333 113.132 157.625 113.048 156.905 112.88C156.713 112.832 156.551 112.73 156.419 112.574C156.299 112.418 156.239 112.238 156.239 112.034C156.239 111.794 156.323 111.59 156.491 111.422C156.671 111.254 156.875 111.17 157.103 111.17C157.247 111.17 157.439 111.2 157.679 111.26C157.727 111.272 157.877 111.296 158.129 111.332C158.381 111.38 158.675 111.404 159.011 111.404C160.247 111.404 160.913 110.786 161.009 109.55L161.045 109.118C160.841 109.394 160.571 109.604 160.235 109.748C159.899 109.88 159.539 109.946 159.155 109.946C158.519 109.946 157.919 109.79 157.355 109.478C156.803 109.154 156.359 108.692 156.023 108.092C155.687 107.48 155.519 106.766 155.519 105.95C155.519 105.098 155.705 104.3 156.077 103.556C156.461 102.812 156.977 102.218 157.625 101.774C158.285 101.33 159.011 101.108 159.803 101.108C160.247 101.108 160.745 101.216 161.297 101.432C161.393 101.096 161.669 100.928 162.125 100.928C162.377 100.928 162.581 101 162.737 101.144C162.905 101.276 162.983 101.498 162.971 101.81L162.791 109.406C162.767 110.642 162.413 111.572 161.729 112.196C161.045 112.82 160.145 113.132 159.029 113.132ZM159.047 108.254C159.707 108.254 160.223 108.02 160.595 107.552C160.967 107.072 161.153 106.334 161.153 105.338V103.16C160.985 103.064 160.781 102.986 160.541 102.926C160.313 102.866 160.091 102.836 159.875 102.836C159.383 102.836 158.927 102.968 158.507 103.232C158.099 103.484 157.769 103.838 157.517 104.294C157.277 104.75 157.157 105.26 157.157 105.824C157.157 106.556 157.337 107.144 157.697 107.588C158.069 108.032 158.519 108.254 159.047 108.254ZM173.363 110.144C172.979 110.144 172.709 110.066 172.553 109.91C172.397 109.754 172.319 109.502 172.319 109.154V98.822C172.319 98.582 172.409 98.378 172.589 98.21C172.769 98.03 172.973 97.94 173.201 97.94H176.261C177.125 97.94 177.863 98.09 178.475 98.39C179.099 98.678 179.567 99.068 179.879 99.56C180.191 100.04 180.347 100.562 180.347 101.126C180.347 102.026 180.071 102.776 179.519 103.376C180.131 103.664 180.587 104.048 180.887 104.528C181.187 104.996 181.337 105.578 181.337 106.274C181.337 107.522 180.671 108.482 179.339 109.154C178.007 109.814 176.015 110.144 173.363 110.144ZM176.873 102.818C177.365 102.818 177.767 102.65 178.079 102.314C178.403 101.966 178.565 101.576 178.565 101.144C178.565 100.724 178.361 100.376 177.953 100.1C177.557 99.812 176.993 99.668 176.261 99.668H174.119V102.818H176.873ZM174.119 108.434C175.715 108.41 177.017 108.218 178.025 107.858C179.045 107.498 179.555 106.97 179.555 106.274C179.555 105.758 179.321 105.344 178.853 105.032C178.385 104.708 177.725 104.546 176.873 104.546H174.119V108.434ZM187.121 110.108C186.269 110.108 185.501 109.928 184.817 109.568C184.145 109.196 183.617 108.674 183.233 108.002C182.849 107.318 182.657 106.514 182.657 105.59C182.657 104.834 182.825 104.114 183.161 103.43C183.509 102.734 183.989 102.176 184.601 101.756C185.225 101.336 185.933 101.126 186.725 101.126C187.457 101.126 188.081 101.276 188.597 101.576C189.125 101.864 189.521 102.212 189.785 102.62C190.049 103.028 190.181 103.394 190.181 103.718C190.181 103.874 190.133 104.024 190.037 104.168C189.941 104.312 189.803 104.438 189.623 104.546L184.799 107.318C184.967 107.69 185.261 107.978 185.681 108.182C186.113 108.386 186.593 108.488 187.121 108.488C187.817 108.488 188.411 108.23 188.903 107.714C189.095 107.522 189.293 107.426 189.497 107.426C189.737 107.426 189.935 107.504 190.091 107.66C190.259 107.816 190.343 108.008 190.343 108.236C190.343 108.428 190.271 108.608 190.127 108.776C189.791 109.148 189.341 109.466 188.777 109.73C188.225 109.982 187.673 110.108 187.121 110.108ZM188.399 103.502C188.255 103.25 188.051 103.064 187.787 102.944C187.523 102.812 187.211 102.746 186.851 102.746C186.167 102.746 185.591 102.98 185.123 103.448C184.667 103.916 184.403 104.492 184.331 105.176C184.307 105.356 184.295 105.572 184.295 105.824L188.399 103.502ZM194.666 110.108C193.97 110.108 193.364 109.958 192.848 109.658C192.344 109.346 191.954 108.992 191.678 108.596C191.414 108.188 191.282 107.858 191.282 107.606C191.282 107.366 191.366 107.168 191.534 107.012C191.702 106.844 191.9 106.76 192.128 106.76C192.332 106.76 192.5 106.814 192.632 106.922C192.776 107.03 192.878 107.174 192.938 107.354C193.07 107.726 193.286 108.02 193.586 108.236C193.886 108.452 194.258 108.56 194.702 108.56C195.17 108.56 195.536 108.446 195.8 108.218C196.064 107.99 196.196 107.732 196.196 107.444C196.196 107.168 196.082 106.952 195.854 106.796C195.638 106.628 195.194 106.442 194.522 106.238C193.538 105.938 192.83 105.584 192.398 105.176C191.966 104.756 191.75 104.21 191.75 103.538C191.75 102.83 192.032 102.254 192.596 101.81C193.16 101.354 193.946 101.126 194.954 101.126C195.89 101.126 196.616 101.33 197.132 101.738C197.66 102.146 197.924 102.692 197.924 103.376C197.924 103.748 197.846 104.036 197.69 104.24C197.534 104.432 197.312 104.528 197.024 104.528C196.772 104.528 196.568 104.45 196.412 104.294C196.256 104.138 196.178 103.97 196.178 103.79C196.178 103.73 196.19 103.658 196.214 103.574C196.25 103.478 196.268 103.406 196.268 103.358C196.268 103.142 196.16 102.968 195.944 102.836C195.74 102.704 195.422 102.638 194.99 102.638C194.45 102.638 194.048 102.716 193.784 102.872C193.532 103.028 193.406 103.238 193.406 103.502C193.406 103.778 193.538 104.006 193.802 104.186C194.066 104.354 194.54 104.546 195.224 104.762C196.22 105.074 196.91 105.416 197.294 105.788C197.69 106.16 197.888 106.682 197.888 107.354C197.888 107.81 197.75 108.254 197.474 108.686C197.21 109.106 196.832 109.448 196.34 109.712C195.86 109.976 195.302 110.108 194.666 110.108ZM201.287 110.126C201.059 110.126 200.855 110.042 200.675 109.874C200.507 109.706 200.423 109.508 200.423 109.28V102.854H199.001C198.761 102.854 198.557 102.77 198.389 102.602C198.221 102.422 198.137 102.218 198.137 101.99C198.137 101.726 198.227 101.516 198.407 101.36C198.587 101.192 198.797 101.108 199.037 101.108H200.423V99.182C200.423 98.954 200.507 98.75 200.675 98.57C200.843 98.39 201.047 98.3 201.287 98.3C201.539 98.3 201.743 98.39 201.899 98.57C202.067 98.738 202.151 98.942 202.151 99.182V101.108H203.681C203.921 101.108 204.125 101.192 204.293 101.36C204.461 101.528 204.545 101.738 204.545 101.99C204.545 102.218 204.461 102.422 204.293 102.602C204.125 102.77 203.921 102.854 203.681 102.854H202.151V109.28C202.151 109.508 202.067 109.706 201.899 109.874C201.731 110.042 201.527 110.126 201.287 110.126ZM213.033 110.108C212.793 110.108 212.583 110.024 212.403 109.856C212.223 109.688 212.133 109.478 212.133 109.226V98.948C212.133 98.612 212.175 98.372 212.259 98.228C212.343 98.072 212.499 97.97 212.727 97.922C212.967 97.862 213.351 97.832 213.879 97.832C216.111 97.832 217.779 98.162 218.883 98.822C219.999 99.482 220.557 100.436 220.557 101.684C220.557 102.692 220.203 103.52 219.495 104.168C218.787 104.816 217.929 105.29 216.921 105.59C215.913 105.89 214.911 106.058 213.915 106.094V109.226C213.915 109.478 213.831 109.688 213.663 109.856C213.495 110.024 213.285 110.108 213.033 110.108ZM213.915 104.33C215.091 104.258 216.195 104.024 217.227 103.628C218.259 103.22 218.775 102.572 218.775 101.684C218.775 101.024 218.373 100.514 217.569 100.154C216.777 99.794 215.643 99.614 214.167 99.614H213.915V104.33ZM222.874 110.108C222.646 110.108 222.442 110.024 222.262 109.856C222.082 109.688 221.992 109.496 221.992 109.28V101.99C221.992 101.75 222.076 101.546 222.244 101.378C222.424 101.21 222.634 101.126 222.874 101.126C223.114 101.126 223.318 101.21 223.486 101.378C223.666 101.546 223.756 101.75 223.756 101.99V102.53C224.344 101.57 225.148 101.09 226.168 101.09C226.78 101.09 227.218 101.258 227.482 101.594C227.758 101.93 227.896 102.332 227.896 102.8V103.34C227.896 103.58 227.812 103.784 227.644 103.952C227.488 104.108 227.29 104.186 227.05 104.186C226.762 104.186 226.546 104.102 226.402 103.934C226.27 103.766 226.204 103.562 226.204 103.322V103.088C226.204 102.896 226.072 102.8 225.808 102.8C225.592 102.8 225.34 102.908 225.052 103.124C224.776 103.34 224.548 103.568 224.368 103.808C224.116 104.12 223.948 104.432 223.864 104.744C223.792 105.056 223.756 105.428 223.756 105.86L223.738 109.28C223.738 109.496 223.648 109.688 223.468 109.856C223.288 110.024 223.09 110.108 222.874 110.108ZM234.467 110.288C234.227 110.288 234.029 110.222 233.873 110.09C233.729 109.958 233.657 109.784 233.657 109.568V109.316C233.165 109.844 232.481 110.108 231.605 110.108C230.945 110.108 230.351 109.946 229.823 109.622C229.295 109.298 228.881 108.842 228.581 108.254C228.281 107.654 228.131 106.976 228.131 106.22C228.131 105.38 228.311 104.57 228.671 103.79C229.031 102.998 229.535 102.356 230.183 101.864C230.843 101.372 231.599 101.126 232.451 101.126C233.003 101.126 233.501 101.204 233.945 101.36C234.389 101.504 234.851 101.684 235.331 101.9V109.388C235.331 109.628 235.247 109.838 235.079 110.018C234.911 110.198 234.707 110.288 234.467 110.288ZM231.731 108.434C232.079 108.434 232.415 108.362 232.739 108.218C233.075 108.074 233.351 107.9 233.567 107.696L233.621 102.998C233.273 102.854 232.895 102.782 232.487 102.782C231.971 102.782 231.515 102.944 231.119 103.268C230.723 103.58 230.417 104 230.201 104.528C229.985 105.044 229.877 105.596 229.877 106.184C229.877 106.916 230.039 107.474 230.363 107.858C230.687 108.242 231.143 108.434 231.731 108.434ZM241.196 110.108C240.476 110.108 239.816 109.934 239.216 109.586C238.616 109.238 238.142 108.764 237.794 108.164C237.446 107.552 237.272 106.886 237.272 106.166C237.272 105.35 237.464 104.552 237.848 103.772C238.232 102.992 238.736 102.356 239.36 101.864C239.984 101.372 240.644 101.126 241.34 101.126C241.976 101.126 242.486 101.228 242.87 101.432C243.266 101.624 243.65 101.936 244.022 102.368C244.202 102.56 244.292 102.77 244.292 102.998C244.292 103.226 244.208 103.424 244.04 103.592C243.872 103.748 243.668 103.826 243.428 103.826C243.272 103.826 243.146 103.802 243.05 103.754C242.966 103.706 242.864 103.61 242.744 103.466C242.54 103.238 242.336 103.064 242.132 102.944C241.94 102.824 241.682 102.764 241.358 102.764C240.986 102.764 240.608 102.926 240.224 103.25C239.852 103.574 239.546 104 239.306 104.528C239.078 105.044 238.964 105.578 238.964 106.13C238.964 106.61 239.066 107.03 239.27 107.39C239.486 107.738 239.762 108.008 240.098 108.2C240.434 108.38 240.788 108.47 241.16 108.47C241.64 108.47 242.03 108.38 242.33 108.2C242.642 108.02 242.918 107.774 243.158 107.462C243.386 107.162 243.644 107.012 243.932 107.012C244.16 107.012 244.358 107.096 244.526 107.264C244.694 107.42 244.778 107.6 244.778 107.804C244.778 108.044 244.712 108.248 244.58 108.416C244.232 108.884 243.758 109.286 243.158 109.622C242.558 109.946 241.904 110.108 241.196 110.108ZM247.869 110.126C247.641 110.126 247.437 110.042 247.257 109.874C247.089 109.706 247.005 109.508 247.005 109.28V102.854H245.583C245.343 102.854 245.139 102.77 244.971 102.602C244.803 102.422 244.719 102.218 244.719 101.99C244.719 101.726 244.809 101.516 244.989 101.36C245.169 101.192 245.379 101.108 245.619 101.108H247.005V99.182C247.005 98.954 247.089 98.75 247.257 98.57C247.425 98.39 247.629 98.3 247.869 98.3C248.121 98.3 248.325 98.39 248.481 98.57C248.649 98.738 248.733 98.942 248.733 99.182V101.108H250.263C250.503 101.108 250.707 101.192 250.875 101.36C251.043 101.528 251.127 101.738 251.127 101.99C251.127 102.218 251.043 102.422 250.875 102.602C250.707 102.77 250.503 102.854 250.263 102.854H248.733V109.28C248.733 109.508 248.649 109.706 248.481 109.874C248.313 110.042 248.109 110.126 247.869 110.126ZM253.181 100.37C252.953 100.37 252.749 100.28 252.569 100.1C252.401 99.92 252.323 99.716 252.335 99.488L252.353 98.822C252.365 98.594 252.455 98.396 252.623 98.228C252.791 98.06 252.989 97.976 253.217 97.976C253.445 97.976 253.643 98.066 253.811 98.246C253.991 98.426 254.075 98.624 254.063 98.84L254.045 99.524C254.033 99.764 253.943 99.968 253.775 100.136C253.619 100.292 253.421 100.37 253.181 100.37ZM253.091 110.108C252.851 110.108 252.641 110.024 252.461 109.856C252.293 109.676 252.209 109.466 252.209 109.226L252.299 102.062C252.299 101.822 252.383 101.618 252.551 101.45C252.731 101.27 252.941 101.18 253.181 101.18C253.433 101.18 253.643 101.27 253.811 101.45C253.979 101.618 254.063 101.822 254.063 102.062L253.973 109.226C253.973 109.466 253.883 109.676 253.703 109.856C253.535 110.024 253.331 110.108 253.091 110.108ZM259.934 110.108C259.214 110.108 258.554 109.934 257.954 109.586C257.354 109.238 256.88 108.764 256.532 108.164C256.184 107.552 256.01 106.886 256.01 106.166C256.01 105.35 256.202 104.552 256.586 103.772C256.97 102.992 257.474 102.356 258.098 101.864C258.722 101.372 259.382 101.126 260.078 101.126C260.714 101.126 261.224 101.228 261.608 101.432C262.004 101.624 262.388 101.936 262.76 102.368C262.94 102.56 263.03 102.77 263.03 102.998C263.03 103.226 262.946 103.424 262.778 103.592C262.61 103.748 262.406 103.826 262.166 103.826C262.01 103.826 261.884 103.802 261.788 103.754C261.704 103.706 261.602 103.61 261.482 103.466C261.278 103.238 261.074 103.064 260.87 102.944C260.678 102.824 260.42 102.764 260.096 102.764C259.724 102.764 259.346 102.926 258.962 103.25C258.59 103.574 258.284 104 258.044 104.528C257.816 105.044 257.702 105.578 257.702 106.13C257.702 106.61 257.804 107.03 258.008 107.39C258.224 107.738 258.5 108.008 258.836 108.2C259.172 108.38 259.526 108.47 259.898 108.47C260.378 108.47 260.768 108.38 261.068 108.2C261.38 108.02 261.656 107.774 261.896 107.462C262.124 107.162 262.382 107.012 262.67 107.012C262.898 107.012 263.096 107.096 263.264 107.264C263.432 107.42 263.516 107.6 263.516 107.804C263.516 108.044 263.45 108.248 263.318 108.416C262.97 108.884 262.496 109.286 261.896 109.622C261.296 109.946 260.642 110.108 259.934 110.108ZM268.929 110.108C268.077 110.108 267.309 109.928 266.625 109.568C265.953 109.196 265.425 108.674 265.041 108.002C264.657 107.318 264.465 106.514 264.465 105.59C264.465 104.834 264.633 104.114 264.969 103.43C265.317 102.734 265.797 102.176 266.409 101.756C267.033 101.336 267.741 101.126 268.533 101.126C269.265 101.126 269.889 101.276 270.405 101.576C270.933 101.864 271.329 102.212 271.593 102.62C271.857 103.028 271.989 103.394 271.989 103.718C271.989 103.874 271.941 104.024 271.845 104.168C271.749 104.312 271.611 104.438 271.431 104.546L266.607 107.318C266.775 107.69 267.069 107.978 267.489 108.182C267.921 108.386 268.401 108.488 268.929 108.488C269.625 108.488 270.219 108.23 270.711 107.714C270.903 107.522 271.101 107.426 271.305 107.426C271.545 107.426 271.743 107.504 271.899 107.66C272.067 107.816 272.151 108.008 272.151 108.236C272.151 108.428 272.079 108.608 271.935 108.776C271.599 109.148 271.149 109.466 270.585 109.73C270.033 109.982 269.481 110.108 268.929 110.108ZM270.207 103.502C270.063 103.25 269.859 103.064 269.595 102.944C269.331 102.812 269.019 102.746 268.659 102.746C267.975 102.746 267.399 102.98 266.931 103.448C266.475 103.916 266.211 104.492 266.139 105.176C266.115 105.356 266.103 105.572 266.103 105.824L270.207 103.502ZM276.475 110.108C275.779 110.108 275.173 109.958 274.657 109.658C274.153 109.346 273.763 108.992 273.487 108.596C273.223 108.188 273.091 107.858 273.091 107.606C273.091 107.366 273.175 107.168 273.343 107.012C273.511 106.844 273.709 106.76 273.937 106.76C274.141 106.76 274.309 106.814 274.441 106.922C274.585 107.03 274.687 107.174 274.747 107.354C274.879 107.726 275.095 108.02 275.395 108.236C275.695 108.452 276.067 108.56 276.511 108.56C276.979 108.56 277.345 108.446 277.609 108.218C277.873 107.99 278.005 107.732 278.005 107.444C278.005 107.168 277.891 106.952 277.663 106.796C277.447 106.628 277.003 106.442 276.331 106.238C275.347 105.938 274.639 105.584 274.207 105.176C273.775 104.756 273.559 104.21 273.559 103.538C273.559 102.83 273.841 102.254 274.405 101.81C274.969 101.354 275.755 101.126 276.763 101.126C277.699 101.126 278.425 101.33 278.941 101.738C279.469 102.146 279.733 102.692 279.733 103.376C279.733 103.748 279.655 104.036 279.499 104.24C279.343 104.432 279.121 104.528 278.833 104.528C278.581 104.528 278.377 104.45 278.221 104.294C278.065 104.138 277.987 103.97 277.987 103.79C277.987 103.73 277.999 103.658 278.023 103.574C278.059 103.478 278.077 103.406 278.077 103.358C278.077 103.142 277.969 102.968 277.753 102.836C277.549 102.704 277.231 102.638 276.799 102.638C276.259 102.638 275.857 102.716 275.593 102.872C275.341 103.028 275.215 103.238 275.215 103.502C275.215 103.778 275.347 104.006 275.611 104.186C275.875 104.354 276.349 104.546 277.033 104.762C278.029 105.074 278.719 105.416 279.103 105.788C279.499 106.16 279.697 106.682 279.697 107.354C279.697 107.81 279.559 108.254 279.283 108.686C279.019 109.106 278.641 109.448 278.149 109.712C277.669 109.976 277.111 110.108 276.475 110.108Z" fill="white"/>
<path d="M102.732 181.216C102.312 181.216 101.886 181.174 101.454 181.09C101.022 181.018 100.728 180.958 100.572 180.91C100.38 180.85 100.218 180.736 100.086 180.568C99.9541 180.4 99.8881 180.22 99.8881 180.028V169.822C99.8881 169.57 99.9721 169.36 100.14 169.192C100.32 169.024 100.536 168.94 100.788 168.94C102 168.94 103.224 169.12 104.46 169.48C105.696 169.84 106.764 170.512 107.664 171.496C108.576 172.48 109.032 173.842 109.032 175.582C109.032 176.842 108.756 177.898 108.204 178.75C107.652 179.59 106.902 180.214 105.954 180.622C105.006 181.018 103.932 181.216 102.732 181.216ZM102.732 179.416C104.136 179.416 105.234 179.092 106.026 178.444C106.83 177.796 107.232 176.842 107.232 175.582C107.232 174.022 106.722 172.864 105.702 172.108C104.694 171.352 103.356 170.908 101.688 170.776V179.308C102.096 179.38 102.444 179.416 102.732 179.416ZM114.901 181.108C114.049 181.108 113.281 180.928 112.597 180.568C111.925 180.196 111.397 179.674 111.013 179.002C110.629 178.318 110.437 177.514 110.437 176.59C110.437 175.834 110.605 175.114 110.941 174.43C111.289 173.734 111.769 173.176 112.381 172.756C113.005 172.336 113.713 172.126 114.505 172.126C115.237 172.126 115.861 172.276 116.377 172.576C116.905 172.864 117.301 173.212 117.565 173.62C117.829 174.028 117.961 174.394 117.961 174.718C117.961 174.874 117.913 175.024 117.817 175.168C117.721 175.312 117.583 175.438 117.403 175.546L112.579 178.318C112.747 178.69 113.041 178.978 113.461 179.182C113.893 179.386 114.373 179.488 114.901 179.488C115.597 179.488 116.191 179.23 116.683 178.714C116.875 178.522 117.073 178.426 117.277 178.426C117.517 178.426 117.715 178.504 117.871 178.66C118.039 178.816 118.123 179.008 118.123 179.236C118.123 179.428 118.051 179.608 117.907 179.776C117.571 180.148 117.121 180.466 116.557 180.73C116.005 180.982 115.453 181.108 114.901 181.108ZM116.179 174.502C116.035 174.25 115.831 174.064 115.567 173.944C115.303 173.812 114.991 173.746 114.631 173.746C113.947 173.746 113.371 173.98 112.903 174.448C112.447 174.916 112.183 175.492 112.111 176.176C112.087 176.356 112.075 176.572 112.075 176.824L116.179 174.502ZM121.421 181.126C121.193 181.126 120.989 181.042 120.809 180.874C120.641 180.706 120.557 180.508 120.557 180.28V173.854H119.135C118.895 173.854 118.691 173.77 118.523 173.602C118.355 173.422 118.271 173.218 118.271 172.99C118.271 172.726 118.361 172.516 118.541 172.36C118.721 172.192 118.931 172.108 119.171 172.108H120.557V170.182C120.557 169.954 120.641 169.75 120.809 169.57C120.977 169.39 121.181 169.3 121.421 169.3C121.673 169.3 121.877 169.39 122.033 169.57C122.201 169.738 122.285 169.942 122.285 170.182V172.108H123.815C124.055 172.108 124.259 172.192 124.427 172.36C124.595 172.528 124.679 172.738 124.679 172.99C124.679 173.218 124.595 173.422 124.427 173.602C124.259 173.77 124.055 173.854 123.815 173.854H122.285V180.28C122.285 180.508 122.201 180.706 122.033 180.874C121.865 181.042 121.661 181.126 121.421 181.126ZM131.082 181.288C130.842 181.288 130.644 181.222 130.488 181.09C130.344 180.958 130.272 180.784 130.272 180.568V180.316C129.78 180.844 129.096 181.108 128.22 181.108C127.56 181.108 126.966 180.946 126.438 180.622C125.91 180.298 125.496 179.842 125.196 179.254C124.896 178.654 124.746 177.976 124.746 177.22C124.746 176.38 124.926 175.57 125.286 174.79C125.646 173.998 126.15 173.356 126.798 172.864C127.458 172.372 128.214 172.126 129.066 172.126C129.618 172.126 130.116 172.204 130.56 172.36C131.004 172.504 131.466 172.684 131.946 172.9V180.388C131.946 180.628 131.862 180.838 131.694 181.018C131.526 181.198 131.322 181.288 131.082 181.288ZM128.346 179.434C128.694 179.434 129.03 179.362 129.354 179.218C129.69 179.074 129.966 178.9 130.182 178.696L130.236 173.998C129.888 173.854 129.51 173.782 129.102 173.782C128.586 173.782 128.13 173.944 127.734 174.268C127.338 174.58 127.032 175 126.816 175.528C126.6 176.044 126.492 176.596 126.492 177.184C126.492 177.916 126.654 178.474 126.978 178.858C127.302 179.242 127.758 179.434 128.346 179.434ZM135.434 171.37C135.206 171.37 135.002 171.28 134.822 171.1C134.654 170.92 134.576 170.716 134.588 170.488L134.606 169.822C134.618 169.594 134.708 169.396 134.876 169.228C135.044 169.06 135.242 168.976 135.47 168.976C135.698 168.976 135.896 169.066 136.064 169.246C136.244 169.426 136.328 169.624 136.316 169.84L136.298 170.524C136.286 170.764 136.196 170.968 136.028 171.136C135.872 171.292 135.674 171.37 135.434 171.37ZM135.344 181.108C135.104 181.108 134.894 181.024 134.714 180.856C134.546 180.676 134.462 180.466 134.462 180.226L134.552 173.062C134.552 172.822 134.636 172.618 134.804 172.45C134.984 172.27 135.194 172.18 135.434 172.18C135.686 172.18 135.896 172.27 136.064 172.45C136.232 172.618 136.316 172.822 136.316 173.062L136.226 180.226C136.226 180.466 136.136 180.676 135.956 180.856C135.788 181.024 135.584 181.108 135.344 181.108ZM139.703 181.108C139.475 181.108 139.271 181.03 139.091 180.874C138.923 180.706 138.839 180.514 138.839 180.298V169.858C138.839 169.618 138.917 169.42 139.073 169.264C139.241 169.096 139.451 169.012 139.703 169.012C139.931 169.012 140.129 169.096 140.297 169.264C140.477 169.432 140.567 169.63 140.567 169.858V180.298C140.567 180.514 140.477 180.706 140.297 180.874C140.117 181.03 139.919 181.108 139.703 181.108ZM146.981 181.108C146.129 181.108 145.361 180.928 144.677 180.568C144.005 180.196 143.477 179.674 143.093 179.002C142.709 178.318 142.517 177.514 142.517 176.59C142.517 175.834 142.685 175.114 143.021 174.43C143.369 173.734 143.849 173.176 144.461 172.756C145.085 172.336 145.793 172.126 146.585 172.126C147.317 172.126 147.941 172.276 148.457 172.576C148.985 172.864 149.381 173.212 149.645 173.62C149.909 174.028 150.041 174.394 150.041 174.718C150.041 174.874 149.993 175.024 149.897 175.168C149.801 175.312 149.663 175.438 149.483 175.546L144.659 178.318C144.827 178.69 145.121 178.978 145.541 179.182C145.973 179.386 146.453 179.488 146.981 179.488C147.677 179.488 148.271 179.23 148.763 178.714C148.955 178.522 149.153 178.426 149.357 178.426C149.597 178.426 149.795 178.504 149.951 178.66C150.119 178.816 150.203 179.008 150.203 179.236C150.203 179.428 150.131 179.608 149.987 179.776C149.651 180.148 149.201 180.466 148.637 180.73C148.085 180.982 147.533 181.108 146.981 181.108ZM148.259 174.502C148.115 174.25 147.911 174.064 147.647 173.944C147.383 173.812 147.071 173.746 146.711 173.746C146.027 173.746 145.451 173.98 144.983 174.448C144.527 174.916 144.263 175.492 144.191 176.176C144.167 176.356 144.155 176.572 144.155 176.824L148.259 174.502ZM154.581 181.09C153.969 181.09 153.417 180.934 152.925 180.622C152.445 180.298 152.061 179.83 151.773 179.218C151.497 178.606 151.359 177.874 151.359 177.022C151.359 175.99 151.521 175.108 151.845 174.376C152.169 173.644 152.619 173.092 153.195 172.72C153.771 172.336 154.437 172.144 155.193 172.144C155.793 172.144 156.435 172.282 157.119 172.558L157.209 169.768C157.221 169.528 157.311 169.324 157.479 169.156C157.659 168.976 157.869 168.886 158.109 168.886C158.337 168.886 158.535 168.976 158.703 169.156C158.883 169.324 158.967 169.54 158.955 169.804L158.703 180.28C158.691 180.52 158.601 180.718 158.433 180.874C158.265 181.03 158.061 181.108 157.821 181.108C157.593 181.108 157.395 181.042 157.227 180.91C157.071 180.778 156.993 180.604 156.993 180.388V180.064C156.681 180.352 156.315 180.598 155.895 180.802C155.475 180.994 155.037 181.09 154.581 181.09ZM154.725 179.47C155.133 179.47 155.511 179.386 155.859 179.218C156.219 179.038 156.501 178.822 156.705 178.57C156.909 178.318 157.017 178.084 157.029 177.868L157.101 174.322C156.885 174.178 156.609 174.052 156.273 173.944C155.937 173.824 155.613 173.764 155.301 173.764C154.569 173.764 154.017 174.04 153.645 174.592C153.273 175.132 153.087 175.924 153.087 176.968C153.087 177.832 153.231 178.468 153.519 178.876C153.819 179.272 154.221 179.47 154.725 179.47ZM168.727 181.108C168.475 181.108 168.265 181.024 168.097 180.856C167.929 180.688 167.845 180.478 167.845 180.226V169.912C167.845 169.588 167.875 169.354 167.935 169.21C168.007 169.066 168.139 168.97 168.331 168.922C168.535 168.862 168.853 168.832 169.285 168.832H170.023C172.039 168.832 173.593 169.168 174.685 169.84C175.777 170.512 176.323 171.454 176.323 172.666C176.323 174.202 175.435 175.366 173.659 176.158C174.931 177.166 175.927 178.384 176.647 179.812C176.707 179.932 176.737 180.07 176.737 180.226C176.737 180.466 176.653 180.676 176.485 180.856C176.329 181.024 176.119 181.108 175.855 181.108C175.519 181.108 175.255 180.952 175.063 180.64C173.479 178.12 172.063 176.86 170.815 176.86C170.443 176.86 170.041 176.896 169.609 176.968V180.226C169.609 180.478 169.519 180.688 169.339 180.856C169.171 181.024 168.967 181.108 168.727 181.108ZM169.609 175.312C170.905 175.228 172.051 174.964 173.047 174.52C174.043 174.076 174.541 173.458 174.541 172.666C174.541 171.982 174.139 171.46 173.335 171.1C172.543 170.74 171.421 170.56 169.969 170.56H169.609V175.312ZM182.137 181.108C181.285 181.108 180.517 180.928 179.833 180.568C179.161 180.196 178.633 179.674 178.249 179.002C177.865 178.318 177.673 177.514 177.673 176.59C177.673 175.834 177.841 175.114 178.177 174.43C178.525 173.734 179.005 173.176 179.617 172.756C180.241 172.336 180.949 172.126 181.741 172.126C182.473 172.126 183.097 172.276 183.613 172.576C184.141 172.864 184.537 173.212 184.801 173.62C185.065 174.028 185.197 174.394 185.197 174.718C185.197 174.874 185.149 175.024 185.053 175.168C184.957 175.312 184.819 175.438 184.639 175.546L179.815 178.318C179.983 178.69 180.277 178.978 180.697 179.182C181.129 179.386 181.609 179.488 182.137 179.488C182.833 179.488 183.427 179.23 183.919 178.714C184.111 178.522 184.309 178.426 184.513 178.426C184.753 178.426 184.951 178.504 185.107 178.66C185.275 178.816 185.359 179.008 185.359 179.236C185.359 179.428 185.287 179.608 185.143 179.776C184.807 180.148 184.357 180.466 183.793 180.73C183.241 180.982 182.689 181.108 182.137 181.108ZM183.415 174.502C183.271 174.25 183.067 174.064 182.803 173.944C182.539 173.812 182.227 173.746 181.867 173.746C181.183 173.746 180.607 173.98 180.139 174.448C179.683 174.916 179.419 175.492 179.347 176.176C179.323 176.356 179.311 176.572 179.311 176.824L183.415 174.502ZM189.575 181.126C189.371 181.126 189.209 181.078 189.089 180.982C188.969 180.886 188.867 180.736 188.783 180.532L185.813 173.296C185.777 173.188 185.759 173.068 185.759 172.936C185.759 172.72 185.843 172.534 186.011 172.378C186.191 172.21 186.401 172.126 186.641 172.126C187.025 172.126 187.295 172.318 187.451 172.702L189.575 178.066L191.717 172.648C191.777 172.48 191.879 172.348 192.023 172.252C192.179 172.156 192.347 172.108 192.527 172.108C192.779 172.108 192.983 172.192 193.139 172.36C193.307 172.528 193.391 172.726 193.391 172.954C193.391 173.05 193.361 173.176 193.301 173.332L190.385 180.586C190.313 180.766 190.211 180.904 190.079 181C189.959 181.084 189.791 181.126 189.575 181.126ZM195.71 171.37C195.482 171.37 195.278 171.28 195.098 171.1C194.93 170.92 194.852 170.716 194.864 170.488L194.882 169.822C194.894 169.594 194.984 169.396 195.152 169.228C195.32 169.06 195.518 168.976 195.746 168.976C195.974 168.976 196.172 169.066 196.34 169.246C196.52 169.426 196.604 169.624 196.592 169.84L196.574 170.524C196.562 170.764 196.472 170.968 196.304 171.136C196.148 171.292 195.95 171.37 195.71 171.37ZM195.62 181.108C195.38 181.108 195.17 181.024 194.99 180.856C194.822 180.676 194.738 180.466 194.738 180.226L194.828 173.062C194.828 172.822 194.912 172.618 195.08 172.45C195.26 172.27 195.47 172.18 195.71 172.18C195.962 172.18 196.172 172.27 196.34 172.45C196.508 172.618 196.592 172.822 196.592 173.062L196.502 180.226C196.502 180.466 196.412 180.676 196.232 180.856C196.064 181.024 195.86 181.108 195.62 181.108ZM203.002 181.108C202.15 181.108 201.382 180.928 200.698 180.568C200.026 180.196 199.498 179.674 199.114 179.002C198.73 178.318 198.538 177.514 198.538 176.59C198.538 175.834 198.706 175.114 199.042 174.43C199.39 173.734 199.87 173.176 200.482 172.756C201.106 172.336 201.814 172.126 202.606 172.126C203.338 172.126 203.962 172.276 204.478 172.576C205.006 172.864 205.402 173.212 205.666 173.62C205.93 174.028 206.062 174.394 206.062 174.718C206.062 174.874 206.014 175.024 205.918 175.168C205.822 175.312 205.684 175.438 205.504 175.546L200.68 178.318C200.848 178.69 201.142 178.978 201.562 179.182C201.994 179.386 202.474 179.488 203.002 179.488C203.698 179.488 204.292 179.23 204.784 178.714C204.976 178.522 205.174 178.426 205.378 178.426C205.618 178.426 205.816 178.504 205.972 178.66C206.14 178.816 206.224 179.008 206.224 179.236C206.224 179.428 206.152 179.608 206.008 179.776C205.672 180.148 205.222 180.466 204.658 180.73C204.106 180.982 203.554 181.108 203.002 181.108ZM204.28 174.502C204.136 174.25 203.932 174.064 203.668 173.944C203.404 173.812 203.092 173.746 202.732 173.746C202.048 173.746 201.472 173.98 201.004 174.448C200.548 174.916 200.284 175.492 200.212 176.176C200.188 176.356 200.176 176.572 200.176 176.824L204.28 174.502ZM209.342 181.108C209.102 181.108 208.91 181.048 208.766 180.928C208.622 180.796 208.526 180.622 208.478 180.406L206.984 173.296C206.948 173.116 206.93 172.972 206.93 172.864C206.93 172.672 207.014 172.498 207.182 172.342C207.35 172.186 207.548 172.108 207.776 172.108C208.004 172.108 208.19 172.174 208.334 172.306C208.478 172.438 208.574 172.612 208.622 172.828L209.54 177.382L211.16 172.738C211.22 172.546 211.328 172.396 211.484 172.288C211.652 172.168 211.832 172.108 212.024 172.108C212.492 172.108 212.78 172.318 212.888 172.738L214.004 177.472L215.426 172.792C215.486 172.612 215.594 172.456 215.75 172.324C215.918 172.192 216.092 172.126 216.272 172.126C216.5 172.126 216.698 172.204 216.866 172.36C217.046 172.516 217.136 172.708 217.136 172.936C217.136 173.056 217.118 173.17 217.082 173.278L214.778 180.46C214.634 180.892 214.358 181.108 213.95 181.108C213.506 181.108 213.224 180.886 213.104 180.442L211.898 175.726L210.17 180.478C210.098 180.682 209.984 180.838 209.828 180.946C209.684 181.054 209.522 181.108 209.342 181.108ZM226.506 181.108C226.254 181.108 226.044 181.024 225.876 180.856C225.708 180.688 225.624 180.478 225.624 180.226V169.912C225.624 169.588 225.654 169.354 225.714 169.21C225.786 169.066 225.918 168.97 226.11 168.922C226.314 168.862 226.632 168.832 227.064 168.832H227.802C229.818 168.832 231.372 169.168 232.464 169.84C233.556 170.512 234.102 171.454 234.102 172.666C234.102 174.202 233.214 175.366 231.438 176.158C232.71 177.166 233.706 178.384 234.426 179.812C234.486 179.932 234.516 180.07 234.516 180.226C234.516 180.466 234.432 180.676 234.264 180.856C234.108 181.024 233.898 181.108 233.634 181.108C233.298 181.108 233.034 180.952 232.842 180.64C231.258 178.12 229.842 176.86 228.594 176.86C228.222 176.86 227.82 176.896 227.388 176.968V180.226C227.388 180.478 227.298 180.688 227.118 180.856C226.95 181.024 226.746 181.108 226.506 181.108ZM227.388 175.312C228.684 175.228 229.83 174.964 230.826 174.52C231.822 174.076 232.32 173.458 232.32 172.666C232.32 171.982 231.918 171.46 231.114 171.1C230.322 170.74 229.2 170.56 227.748 170.56H227.388V175.312ZM239.917 181.108C239.065 181.108 238.297 180.928 237.613 180.568C236.941 180.196 236.413 179.674 236.029 179.002C235.645 178.318 235.453 177.514 235.453 176.59C235.453 175.834 235.621 175.114 235.957 174.43C236.305 173.734 236.785 173.176 237.397 172.756C238.021 172.336 238.729 172.126 239.521 172.126C240.253 172.126 240.877 172.276 241.393 172.576C241.921 172.864 242.317 173.212 242.581 173.62C242.845 174.028 242.977 174.394 242.977 174.718C242.977 174.874 242.929 175.024 242.833 175.168C242.737 175.312 242.599 175.438 242.419 175.546L237.595 178.318C237.763 178.69 238.057 178.978 238.477 179.182C238.909 179.386 239.389 179.488 239.917 179.488C240.613 179.488 241.207 179.23 241.699 178.714C241.891 178.522 242.089 178.426 242.293 178.426C242.533 178.426 242.731 178.504 242.887 178.66C243.055 178.816 243.139 179.008 243.139 179.236C243.139 179.428 243.067 179.608 242.923 179.776C242.587 180.148 242.137 180.466 241.573 180.73C241.021 180.982 240.469 181.108 239.917 181.108ZM241.195 174.502C241.051 174.25 240.847 174.064 240.583 173.944C240.319 173.812 240.007 173.746 239.647 173.746C238.963 173.746 238.387 173.98 237.919 174.448C237.463 174.916 237.199 175.492 237.127 176.176C237.103 176.356 237.091 176.572 237.091 176.824L241.195 174.502ZM245.734 184.294C245.506 184.294 245.302 184.204 245.122 184.024C244.954 183.856 244.87 183.658 244.87 183.43V172.99C244.87 172.738 244.954 172.528 245.122 172.36C245.29 172.192 245.5 172.108 245.752 172.108C245.956 172.108 246.142 172.186 246.31 172.342C246.49 172.498 246.58 172.702 246.58 172.954V173.152C247.192 172.456 248.092 172.108 249.28 172.108C249.772 172.108 250.246 172.264 250.702 172.576C251.17 172.888 251.554 173.356 251.854 173.98C252.154 174.592 252.304 175.33 252.304 176.194C252.304 176.974 252.184 177.724 251.944 178.444C251.704 179.164 251.284 179.77 250.684 180.262C250.096 180.742 249.304 180.982 248.308 180.982C247.732 180.982 247.162 180.82 246.598 180.496V183.43C246.598 183.658 246.508 183.856 246.328 184.024C246.16 184.204 245.962 184.294 245.734 184.294ZM248.416 179.326C249.112 179.326 249.658 179.068 250.054 178.552C250.462 178.024 250.666 177.238 250.666 176.194C250.666 175.426 250.516 174.826 250.216 174.394C249.928 173.95 249.568 173.728 249.136 173.728C248.524 173.728 248.002 173.848 247.57 174.088C247.15 174.328 246.826 174.598 246.598 174.898V178.894C247.33 179.182 247.936 179.326 248.416 179.326ZM257.389 181.108C256.705 181.108 256.075 180.922 255.499 180.55C254.935 180.178 254.491 179.674 254.167 179.038C253.843 178.39 253.681 177.688 253.681 176.932C253.681 176.08 253.873 175.288 254.257 174.556C254.641 173.812 255.157 173.224 255.805 172.792C256.453 172.348 257.149 172.126 257.893 172.126C258.577 172.126 259.201 172.318 259.765 172.702C260.341 173.086 260.791 173.596 261.115 174.232C261.451 174.868 261.619 175.552 261.619 176.284C261.619 177.148 261.427 177.952 261.043 178.696C260.659 179.428 260.137 180.016 259.477 180.46C258.829 180.892 258.133 181.108 257.389 181.108ZM257.389 179.488C257.809 179.488 258.211 179.344 258.595 179.056C258.979 178.768 259.285 178.384 259.513 177.904C259.741 177.424 259.855 176.914 259.855 176.374C259.855 175.918 259.765 175.492 259.585 175.096C259.405 174.688 259.159 174.364 258.847 174.124C258.535 173.872 258.193 173.746 257.821 173.746C257.401 173.746 257.005 173.896 256.633 174.196C256.273 174.484 255.985 174.874 255.769 175.366C255.553 175.846 255.445 176.362 255.445 176.914C255.445 177.454 255.535 177.916 255.715 178.3C255.907 178.684 256.147 178.978 256.435 179.182C256.735 179.386 257.053 179.488 257.389 179.488ZM264.438 181.108C264.21 181.108 264.006 181.024 263.826 180.856C263.646 180.688 263.556 180.496 263.556 180.28V172.99C263.556 172.75 263.64 172.546 263.808 172.378C263.988 172.21 264.198 172.126 264.438 172.126C264.678 172.126 264.882 172.21 265.05 172.378C265.23 172.546 265.32 172.75 265.32 172.99V173.53C265.908 172.57 266.712 172.09 267.732 172.09C268.344 172.09 268.782 172.258 269.046 172.594C269.322 172.93 269.46 173.332 269.46 173.8V174.34C269.46 174.58 269.376 174.784 269.208 174.952C269.052 175.108 268.854 175.186 268.614 175.186C268.326 175.186 268.11 175.102 267.966 174.934C267.834 174.766 267.768 174.562 267.768 174.322V174.088C267.768 173.896 267.636 173.8 267.372 173.8C267.156 173.8 266.904 173.908 266.616 174.124C266.34 174.34 266.112 174.568 265.932 174.808C265.68 175.12 265.512 175.432 265.428 175.744C265.356 176.056 265.32 176.428 265.32 176.86L265.302 180.28C265.302 180.496 265.212 180.688 265.032 180.856C264.852 181.024 264.654 181.108 264.438 181.108ZM272.382 181.126C272.154 181.126 271.95 181.042 271.77 180.874C271.602 180.706 271.518 180.508 271.518 180.28V173.854H270.096C269.856 173.854 269.652 173.77 269.484 173.602C269.316 173.422 269.232 173.218 269.232 172.99C269.232 172.726 269.322 172.516 269.502 172.36C269.682 172.192 269.892 172.108 270.132 172.108H271.518V170.182C271.518 169.954 271.602 169.75 271.77 169.57C271.938 169.39 272.142 169.3 272.382 169.3C272.634 169.3 272.838 169.39 272.994 169.57C273.162 169.738 273.246 169.942 273.246 170.182V172.108H274.776C275.016 172.108 275.22 172.192 275.388 172.36C275.556 172.528 275.64 172.738 275.64 172.99C275.64 173.218 275.556 173.422 275.388 173.602C275.22 173.77 275.016 173.854 274.776 173.854H273.246V180.28C273.246 180.508 273.162 180.706 272.994 180.874C272.826 181.042 272.622 181.126 272.382 181.126Z" fill="white"/>
<g clip-path="url(#clip0_126_46)">
<path d="M1.22903 164.462C11.4113 181.598 31.3004 190.167 50.5445 186.539L50.9454 188.958C50.9659 189.107 51.027 189.248 51.1223 189.365C51.2175 189.483 51.3431 189.571 51.4853 189.622C51.3571 190.005 51.9566 190.328 52.2246 189.974C53.0751 188.845 53.9163 187.712 54.7382 186.56C55.1097 186.026 55.928 185.259 55.8701 184.511C55.8123 183.762 54.9977 183.346 54.4876 182.965C53.2796 182.022 52.0685 181.077 50.8543 180.131C50.7337 180.04 50.5893 179.986 50.4386 179.975C50.2878 179.964 50.1371 179.997 50.0047 180.07C49.8723 180.143 49.7639 180.253 49.6925 180.386C49.6211 180.519 49.5899 180.67 49.6025 180.821C49.806 182.12 50.014 183.418 50.2264 184.714C31.609 188.507 12.2106 180.191 2.01484 163.858C1.67051 163.308 0.882662 163.916 1.22903 164.462Z" fill="#BEF2E2"/>
</g>
<g clip-path="url(#clip1_126_46)">
<path d="M1.22903 43.5383C11.4113 26.402 31.3004 17.8329 50.5445 21.4615L50.9454 19.042C50.9659 18.8925 51.027 18.7516 51.1223 18.6345C51.2175 18.5175 51.3431 18.4289 51.4853 18.3785C51.3571 17.9948 51.9566 17.6725 52.2246 18.0258C53.0751 19.1547 53.9163 20.2876 54.7382 21.44C55.1097 21.9736 55.928 22.7409 55.8701 23.4894C55.8123 24.2378 54.9977 24.6538 54.4876 25.0346C53.2796 25.978 52.0685 26.9228 50.8543 27.8689C50.7337 27.9601 50.5893 28.0144 50.4386 28.0252C50.2878 28.036 50.1371 28.003 50.0047 27.93C49.8723 27.8571 49.7639 27.7474 49.6925 27.6141C49.6211 27.4809 49.5899 27.3298 49.6025 27.1792C49.806 25.8796 50.014 24.5818 50.2264 23.2857C31.609 19.4927 12.2106 27.809 2.01484 44.1418C1.67051 44.6923 0.88266 44.0842 1.22903 43.5383Z" fill="#BEF2E2"/>
</g>
<g clip-path="url(#clip2_126_46)">
<path d="M56.8799 102.802C55.4028 102.026 54.0063 101.106 52.7106 100.055C52.3503 99.771 51.5862 99.8992 51.6589 100.492C51.758 101.295 51.7956 102.111 51.8365 102.914C34.7174 103.225 17.5575 102.769 0.455775 103.559C0.339215 103.569 0.230679 103.622 0.151685 103.709C0.0726904 103.795 0.0290181 103.908 0.0293055 104.025C0.0295929 104.142 0.0738189 104.254 0.153236 104.34C0.232653 104.426 0.341451 104.479 0.458059 104.489C17.5953 104.984 34.7684 104.226 51.911 104.246L51.9577 104.786C51.9815 105.259 52.0021 105.729 52.0098 106.202C52.0174 106.675 52.5788 107.072 53.0024 106.766L56.8827 103.952C57.2545 103.679 57.3631 103.05 56.8799 102.802Z" fill="#BEF2E2"/>
</g>
<defs>
<clipPath id="clip0_126_46">
<rect width="43.1126" height="43.585" fill="white" transform="translate(16.7461 204) rotate(-111.462)"/>
</clipPath>
<clipPath id="clip1_126_46">
<rect width="43.1126" height="43.585" fill="white" transform="matrix(-0.365889 0.930659 0.930659 0.365889 16.7461 4)"/>
</clipPath>
<clipPath id="clip2_126_46">
<rect width="6.9613" height="57.1935" fill="white" transform="translate(0.0170898 107) rotate(-90.1407)"/>
</clipPath>
</defs>
</svg>
