<svg width="467" height="384" viewBox="0 0 467 384" fill="none" xmlns="http://www.w3.org/2000/svg">
<path opacity="0.4" d="M467 379.826C467 381.252 466.87 382.644 466.615 384H0V0C10.7654 1.83016 18.9529 11.0813 18.9529 22.2204C18.9529 24.2603 18.6722 26.2303 18.1603 28.1061C29.0861 30.07 37.3691 39.4945 37.3691 50.8281C37.3691 53.2176 36.9991 55.5221 36.3176 57.6897C39.2934 56.124 42.6886 55.2302 46.2966 55.2302C49.0905 55.2302 51.758 55.7622 54.2003 56.7351C56.2634 57.5498 58.163 58.6808 59.8467 60.058C62.9983 56.5375 66.6834 53.4882 70.7694 51.0288C74.655 48.6939 78.9075 46.8942 83.4252 45.7359C84.0636 45.5717 84.7081 45.4197 85.3557 45.2829C88.5936 44.5928 91.958 44.228 95.4057 44.228C96.2876 44.228 97.1665 44.2523 98.0392 44.2979C123.012 45.6447 142.84 66.0349 142.84 90.9914C142.84 97.2966 141.576 103.301 139.278 108.782V108.788C138.945 109.594 138.585 110.387 138.205 111.169C136.611 114.452 134.631 117.517 132.337 120.317C135.353 121.876 137.644 124.609 138.588 127.902C140.127 127.513 141.739 127.303 143.398 127.303C144.706 127.303 145.983 127.434 147.216 127.677C147.904 127.814 148.579 127.984 149.236 128.194C153.387 129.492 156.927 132.143 159.323 135.618C161.423 138.658 162.65 142.327 162.65 146.282C162.65 150.35 161.349 154.117 159.138 157.206C167.714 159.276 174.634 165.493 177.576 173.583V173.586C177.872 174.389 178.125 175.209 178.338 176.051C178.341 176.076 178.35 176.1 178.356 176.131C178.603 177.116 178.791 178.119 178.914 179.146C179.047 180.186 179.112 181.244 179.112 182.317C179.112 182.57 179.108 182.822 179.099 183.071C179.099 183.171 179.093 183.272 179.09 183.369C179.044 184.485 178.923 185.582 178.738 186.662C179.633 185.482 180.626 184.378 181.708 183.369C181.779 183.302 181.853 183.235 181.927 183.168C183.657 181.581 185.609 180.226 187.728 179.146C191.329 177.307 195.425 176.267 199.76 176.267C204.099 176.267 208.191 177.307 211.796 179.146C214.001 180.268 216.024 181.697 217.81 183.369C218.47 183.986 219.099 184.64 219.691 185.324C220.718 186.507 221.637 187.78 222.435 189.136C223.179 190.389 223.814 191.708 224.335 193.085C225.001 194.846 225.479 196.7 225.744 198.621C227.095 198.223 228.467 197.877 229.858 197.582C232.726 196.971 235.674 196.578 238.687 196.423C239.658 196.372 240.633 196.347 241.616 196.347C272.281 196.347 297.143 220.857 297.143 251.088C297.143 260.093 294.935 268.587 291.031 276.081C302.065 280.377 311.368 288.062 317.619 297.83C322.346 305.212 325.332 313.779 326.01 322.981C329.751 322.197 333.624 321.784 337.602 321.784C348.805 321.784 359.235 325.055 367.955 330.685C371.073 332.695 373.975 335.005 376.615 337.577C383.516 328.569 394.47 322.747 406.799 322.747C426.581 322.747 442.805 337.726 444.461 356.806C449.731 356.988 454.557 358.888 458.378 361.959C463.639 366.182 467 372.615 467 379.826Z" fill="url(#paint0_linear_38_210)"/>
<defs>
<linearGradient id="paint0_linear_38_210" x1="233.5" y1="-2.37426" x2="233.5" y2="385.097" gradientUnits="userSpaceOnUse">
<stop stop-color="white"/>
<stop offset="1" stop-color="#89AEC0"/>
</linearGradient>
</defs>
</svg>
