<svg width="241" height="390" viewBox="0 0 241 390" fill="none" xmlns="http://www.w3.org/2000/svg">
<path d="M240.358 182.976L240.327 183.102V183.105L240.188 183.666L240.185 183.669V183.672L238.536 190.363L221.26 260.428L220.948 261.004L219.854 263.029L219.004 264.607L191.532 315.463L191.44 315.759V315.762L182.873 342.947L178.191 357.801L180.235 360.507L185.97 368.104L189.159 380.511L191.425 389.319H37.0625V182.976H240.358Z" fill="#64849D"/>
<path d="M240.358 182.976L240.327 183.102V183.105L240.188 183.666L240.185 183.669V183.672L238.536 190.363L221.26 260.428L220.948 261.004L219.854 263.029L219.004 264.607L191.532 315.463L191.44 315.759V315.762L182.873 342.947L178.191 357.801L180.235 360.507L185.97 368.104L189.159 380.511L191.425 389.319H37.0625V182.976H240.358Z" fill="url(#paint0_linear_38_225)"/>
<path d="M164.947 172.75L159.448 208.587H105.213V172.75H164.947Z" fill="#64849D"/>
<path d="M190.071 193.664L190.01 193.861L175.993 238.039L175.337 240.116L174.832 241.709L161.721 283.033L150.676 317.855L139.554 350.276L135.042 363.423L129.181 380.511L126.157 389.319H0V195.575L37.0619 195.202L105.213 194.517L161.694 193.947L190.068 193.664H190.071Z" fill="#9FB6C6"/>
<path d="M190.071 193.664L190.01 193.861L175.993 238.039L175.337 240.116L174.832 241.709L161.721 283.033L150.676 317.855L139.554 350.276L135.042 363.423L129.181 380.511L126.157 389.319H0V195.575L37.0619 195.202L105.213 194.517L161.694 193.947L190.068 193.664H190.071Z" fill="url(#paint1_linear_38_225)"/>
<path d="M141.104 386.071V389.319H0V215.104L37.0619 215.246L123.374 215.569C123.374 215.569 123.371 215.576 123.365 215.585C123.097 216.059 116.705 227.305 109.46 243.457C93.7736 278.429 99.78 319.359 124.832 348.371C126.746 350.587 128.573 352.929 130.272 355.395C132.022 357.94 133.631 360.615 135.042 363.423C137.689 368.671 139.65 374.372 140.571 380.511C140.842 382.327 141.024 384.179 141.104 386.071Z" fill="#D0DCEC"/>
<path d="M141.104 386.071V389.319H0V215.104L37.0619 215.246L123.374 215.569C123.374 215.569 123.371 215.576 123.365 215.585C123.097 216.059 116.705 227.305 109.46 243.457C93.7736 278.429 99.78 319.359 124.832 348.371C126.746 350.587 128.573 352.929 130.272 355.395C132.022 357.94 133.631 360.615 135.042 363.423C137.689 368.671 139.65 374.372 140.571 380.511C140.842 382.327 141.024 384.179 141.104 386.071Z" fill="url(#paint2_linear_38_225)"/>
<path d="M240.357 183.275C240.357 183.408 240.299 183.534 240.188 183.666L240.185 183.669V183.673C239.152 184.874 233.451 185.999 224.193 186.979C214.522 188.006 200.972 188.872 184.807 189.509C188.29 190.801 190.429 192.206 190.068 193.664H190.071L190.01 193.861C189.029 196.289 180.998 198.866 160.56 201.331C147.576 202.9 129.584 204.422 105.213 205.834C94.7875 206.438 83.1937 207.023 70.324 207.581C100.464 208.124 123.572 211.227 123.572 214.975C123.572 215.175 123.507 215.372 123.374 215.569C123.374 215.569 123.371 215.576 123.365 215.585C120.764 219.428 93.7951 222.451 60.9121 222.451H0V169.114H106.696C111.352 169.114 115.879 169.148 120.222 169.213H123.402C123.664 169.213 123.92 169.237 124.173 169.28C147.804 169.743 164.948 171.123 164.948 172.751C164.948 172.772 164.945 172.797 164.939 172.818L164.936 172.821C164.526 174.171 152.362 175.333 134.58 175.943C144.978 176.017 154.972 176.171 164.387 176.399C169.429 176.523 174.305 176.664 178.986 176.828C179.935 176.859 180.878 176.893 181.812 176.926C196.82 177.478 209.715 178.227 219.552 179.111C231.827 180.221 239.337 181.546 240.259 182.976C240.289 183.019 240.311 183.059 240.326 183.102V183.105C240.348 183.161 240.357 183.216 240.357 183.275Z" fill="white"/>
<path opacity="0.6" d="M240.357 183.275C240.357 183.408 240.299 183.534 240.188 183.666L240.185 183.669V183.673C239.152 184.874 233.451 185.999 224.193 186.979C214.522 188.006 200.972 188.872 184.807 189.509C188.29 190.801 190.429 192.206 190.068 193.664H190.071L190.01 193.861C189.029 196.289 180.998 198.866 160.56 201.331C147.576 202.9 129.584 204.422 105.213 205.834C94.7875 206.438 83.1937 207.023 70.324 207.581C100.464 208.124 123.572 211.227 123.572 214.975C123.572 215.175 123.507 215.372 123.374 215.569C123.374 215.569 123.371 215.576 123.365 215.585C120.764 219.428 93.7951 222.451 60.9121 222.451H0V169.114H106.696C111.352 169.114 115.879 169.148 120.222 169.213H123.402C123.664 169.213 123.92 169.237 124.173 169.28C147.804 169.743 164.948 171.123 164.948 172.751C164.948 172.772 164.945 172.797 164.939 172.818L164.936 172.821C164.526 174.171 152.362 175.333 134.58 175.943C144.978 176.017 154.972 176.171 164.387 176.399C169.429 176.523 174.305 176.664 178.986 176.828C179.935 176.859 180.878 176.893 181.812 176.926C196.82 177.478 209.715 178.227 219.552 179.111C231.827 180.221 239.337 181.546 240.259 182.976C240.289 183.019 240.311 183.059 240.326 183.102V183.105C240.348 183.161 240.357 183.216 240.357 183.275Z" fill="url(#paint3_linear_38_225)"/>
<path d="M113.844 108.711C113.151 106.288 112.02 104.074 110.495 102.066L108.798 99.9466C108.242 99.3173 107.654 98.7228 107.052 98.1425C106.079 97.1413 105.038 96.2068 103.94 95.3418C102.539 94.1356 101.132 92.9364 99.8254 91.6288C99.324 91.1274 98.8581 90.5853 98.4186 90.0281C97.008 88.2404 96.8546 86.2837 97.7098 84.2161C98.217 82.9899 99.0069 81.9411 99.8674 80.9503C100.824 79.8485 101.821 78.7819 102.798 77.6975C104.92 75.3439 106.823 72.8291 107.765 69.7627C109.767 63.244 109.004 57.1223 104.91 51.539C103.779 49.9953 102.464 48.611 101.178 47.1998C100.119 46.0376 99.0781 44.8628 98.2479 43.5136C97.1412 41.7151 96.9569 39.8016 97.4441 37.7879C97.8358 36.169 98.6081 34.7135 99.4026 33.2699C100.629 31.0415 101.923 28.8475 102.79 26.4406C106.458 16.2673 101.262 3.93442 89.8216 0.823327C82.652 -1.12623 76.1454 0.368144 70.6755 5.50215C67.3687 8.60585 65.5587 12.5432 64.9192 17.0325C64.2532 21.707 65.3294 26.0172 67.5332 30.1142C68.4901 31.8936 69.5503 33.6179 70.3947 35.4577C70.865 36.4827 71.2437 37.5373 71.4191 38.6539C71.7525 40.7776 71.1217 42.6467 69.884 44.3512C68.8695 45.7485 67.6855 46.9998 66.5178 48.2648C65.0425 49.8634 63.5716 51.4826 62.5358 53.4019C58.6785 60.5481 58.8792 67.5835 63.2923 74.4388C64.5337 76.367 66.155 77.9908 67.6935 79.6775C68.602 80.6739 69.4951 81.6838 70.2227 82.8253C70.6665 83.5218 71.0419 84.2491 71.2625 85.0538C71.702 86.6572 71.5316 88.1532 70.591 89.5575C69.6846 90.9108 68.5237 92.0174 67.3187 93.0887C65.0813 95.0783 62.7404 96.9524 60.6595 99.1161C57.6717 102.223 55.4303 105.746 54.4891 110.011C54.4007 110.412 54.3283 110.814 54.2654 111.218C53.4395 114.034 52.9883 117.01 52.9883 120.094C52.9883 137.487 67.0882 151.587 84.4817 151.587C101.875 151.587 115.975 137.487 115.975 120.094C115.974 116.079 115.215 112.243 113.844 108.711Z" fill="#375682"/>
<path d="M85.3042 98.1988V160.715C85.3042 168.997 85.3042 176.521 85.2978 182.159H83.3732V13.5779C83.3732 13.189 83.3667 12.7871 83.4508 12.4114C83.5547 11.938 83.8786 11.6336 84.3969 11.6659C84.9024 11.6918 85.2201 11.9836 85.2589 12.4955C85.3042 12.9815 85.2978 13.474 85.2978 13.96C85.3042 28.5799 85.3042 83.5854 85.3042 98.1988Z" fill="#375682"/>
<path d="M94.2616 184.284C93.9632 182.204 92.1789 180.603 90.0161 180.603C89.0832 180.603 88.2221 180.904 87.5176 181.409C86.6637 179.576 84.8099 178.303 82.6545 178.303C82.5242 178.303 82.3969 178.313 82.269 178.322C81.3728 174.447 77.9073 171.554 73.7595 171.554C69.0054 171.554 65.1461 175.352 65.0287 180.077C61.9521 180.154 59.2774 181.821 57.7793 184.284H94.2616V184.284Z" fill="#375682"/>
<path d="M122.632 184.284C122.45 183.012 121.359 182.034 120.038 182.034C119.467 182.034 118.941 182.218 118.511 182.527C117.988 181.406 116.856 180.628 115.538 180.628C115.459 180.628 115.381 180.634 115.302 180.64C114.755 178.271 112.636 176.503 110.101 176.503C107.195 176.503 104.837 178.824 104.765 181.713C102.884 181.759 101.249 182.779 100.334 184.284H122.632Z" fill="#375682"/>
<path d="M103.225 184.284C103.111 183.486 102.427 182.872 101.597 182.872C101.239 182.872 100.909 182.987 100.639 183.181C100.311 182.478 99.6003 181.989 98.7734 181.989C98.7235 181.989 98.6745 181.993 98.6255 181.997C98.2819 180.51 96.9527 179.401 95.3615 179.401C93.538 179.401 92.0578 180.857 92.0128 182.67C90.8328 182.699 89.8069 183.339 89.2324 184.283H103.225V184.284Z" fill="#375682"/>
<path d="M72.6966 147.123C72.3619 145.953 71.8161 144.885 71.0799 143.915L70.2608 142.892C69.9926 142.588 69.7085 142.302 69.4182 142.022C68.9482 141.539 68.4462 141.087 67.9158 140.67C67.2396 140.088 66.5607 139.509 65.9299 138.878C65.688 138.636 65.463 138.374 65.2506 138.105C64.5699 137.242 64.4959 136.298 64.9086 135.3C65.1533 134.708 65.5345 134.202 65.9499 133.724C66.4119 133.192 66.8929 132.677 67.3648 132.153C68.3886 131.017 69.3075 129.804 69.7621 128.324C70.7283 125.177 70.36 122.222 68.3842 119.528C67.8378 118.782 67.2033 118.114 66.5829 117.433C66.0719 116.872 65.5693 116.305 65.1684 115.654C64.6343 114.786 64.5452 113.862 64.7804 112.891C64.9693 112.109 65.3422 111.407 65.7256 110.71C66.3176 109.634 66.9419 108.575 67.3608 107.414C69.131 102.503 66.6233 96.5504 61.101 95.049C57.6404 94.1081 54.5 94.8292 51.8598 97.3073C50.2638 98.8054 49.3901 100.706 49.0816 102.872C48.7601 105.129 49.2794 107.209 50.3433 109.187C50.8052 110.046 51.3168 110.878 51.7242 111.766C51.9514 112.261 52.1341 112.77 52.2186 113.309C52.3794 114.334 52.0749 115.236 51.4777 116.059C50.988 116.733 50.4166 117.337 49.853 117.948C49.1407 118.719 48.431 119.501 47.9308 120.427C46.0691 123.876 46.1659 127.272 48.296 130.581C48.8951 131.512 49.6779 132.295 50.4203 133.109C50.8589 133.59 51.29 134.078 51.641 134.629C51.8552 134.965 52.0364 135.316 52.1427 135.704C52.3548 136.478 52.2725 137.2 51.8185 137.878C51.3812 138.532 50.8206 139.066 50.2391 139.583C49.1592 140.543 48.0291 141.448 47.0248 142.492C45.5828 143.992 44.5008 145.692 44.0465 147.751C44.004 147.944 43.9688 148.139 43.9386 148.333C43.5398 149.693 43.3223 151.129 43.3223 152.618C43.3223 161.013 50.1278 167.818 58.523 167.818C66.9182 167.818 73.7238 161.013 73.7238 152.618C73.7247 150.679 73.358 148.827 72.6966 147.123Z" fill="white"/>
<path d="M57.6602 152.565V182.611H59.2476C59.2531 177.961 59.2531 171.755 59.2531 164.924V152.565H57.6602Z" fill="white"/>
<path d="M60.5426 184.284C60.3602 183.012 59.2695 182.034 57.9477 182.034C57.3776 182.034 56.8512 182.218 56.4207 182.527C55.8986 181.407 54.7658 180.628 53.4483 180.628C53.3688 180.628 53.2908 180.635 53.2125 180.64C52.6649 178.271 50.5468 176.504 48.0113 176.504C45.1055 176.504 42.7467 178.825 42.6749 181.713C40.7943 181.759 39.1597 182.779 38.2441 184.284H60.5426Z" fill="#375682"/>
<defs>
<linearGradient id="paint0_linear_38_225" x1="113.589" y1="286.147" x2="185.197" y2="286.147" gradientUnits="userSpaceOnUse">
<stop stop-color="#64849D"/>
<stop offset="1" stop-color="white"/>
</linearGradient>
<linearGradient id="paint1_linear_38_225" x1="133.048" y1="291.491" x2="80.7542" y2="291.491" gradientUnits="userSpaceOnUse">
<stop stop-color="white"/>
<stop offset="1" stop-color="#9FB6C6"/>
</linearGradient>
<linearGradient id="paint2_linear_38_225" x1="0" y1="302.212" x2="141.104" y2="302.212" gradientUnits="userSpaceOnUse">
<stop stop-color="#9FB6C6"/>
<stop offset="1" stop-color="white"/>
</linearGradient>
<linearGradient id="paint3_linear_38_225" x1="0" y1="195.783" x2="240.357" y2="195.783" gradientUnits="userSpaceOnUse">
<stop stop-color="#9FB6C6"/>
<stop offset="1" stop-color="white"/>
</linearGradient>
</defs>
</svg>
