<svg width="223" height="393" viewBox="0 0 223 393" fill="none" xmlns="http://www.w3.org/2000/svg">
<path opacity="0.5" d="M139.807 165.099C185.398 165.099 222.356 128.14 222.356 82.5493C222.356 36.9586 185.398 0 139.807 0C94.2164 0 57.2578 36.9586 57.2578 82.5493C57.2578 128.14 94.2164 165.099 139.807 165.099Z" fill="url(#paint0_radial_38_249)"/>
<path d="M27.3455 315.365L13.9082 302.635C13.4789 302.229 12.9593 301.929 12.3923 301.762L8.37792 300.576L6.9834 298.828L9.21371 298.182L17.6625 300.588L30.5056 311.577L27.3455 315.365Z" fill="#F69772"/>
<path d="M17.6619 300.586C17.6619 300.586 18.7674 297.28 17.6921 294.038L0.528247 299.019C0.232392 299.105 0.0218996 299.367 0.00155961 299.675C-0.0184722 299.983 0.155966 300.27 0.43826 300.394C1.13475 300.699 2.17518 300.778 3.63719 300.017C3.93952 299.86 4.28622 299.808 4.62121 299.871L8.37764 300.575L8.71602 299.383L17.6619 300.586Z" fill="white"/>
<path d="M76.7413 301.391L66.1654 313.66L62.9113 317.429L51.0731 331.157C49.7692 332.67 47.885 333.568 45.8929 333.621C43.895 333.675 41.9688 332.892 40.5749 331.456L16.4082 306.452L20.7271 302.384C24.0289 305.04 27.7736 307.792 31.3387 310.465C37.6496 315.197 43.3982 319.696 45.1089 323.021L65.2378 291.09L66.2548 291.999L76.7413 301.391Z" fill="#1E3565"/>
<path opacity="0.3" d="M67.554 295.786L66.1662 313.659L62.9121 317.428C62.918 317.374 62.93 317.314 62.9362 317.261C63.2413 315.191 62.0989 313.181 60.1666 312.392C58.2284 311.602 56.0092 312.236 54.7768 313.929L46.8149 324.894L46.0192 329.284L44.8228 325.295C44.8228 325.295 38.6376 317.225 31.3398 310.465C37.6508 315.197 43.3993 319.695 45.11 323.021L65.2389 291.09L66.2559 291.999L67.554 295.786Z" fill="#1E3565"/>
<path d="M124.382 198.292L129.221 200.005C129.192 200.518 129.139 201.156 129.05 201.581C128.897 202.316 128.038 203.589 127.316 204.584L125.994 208.287L123.707 207.379L125.092 203.937C125.141 203.816 125.119 203.678 125.036 203.577C124.806 203.299 124.334 202.722 124.036 202.311C123.843 202.04 124.562 201.701 124.354 201.377C124.138 201.051 125.012 201.084 125.033 200.886C125.04 200.856 124.016 200.276 124.028 200.23C124.159 199.767 123.729 198.973 123.91 198.574C124.018 198.332 124.18 198.271 124.382 198.292Z" fill="#F69772"/>
<path d="M124.243 204.364L123.691 205.887L126.986 207.079L127.537 205.556L124.243 204.364Z" fill="white"/>
<path d="M127.442 206.774L119.068 230.983C118.547 232.49 117.602 233.812 116.352 234.793L113.194 237.263L93.6152 252.565L93.0469 238.178L94.9373 237.138L101.774 233.8L111.794 228.906L123.459 205.278L127.442 206.774Z" fill="#1E3565"/>
<path d="M61.2028 360.987L56.3637 378.853C56.209 379.423 56.1918 380.023 56.3132 380.602L57.1721 384.698L56.2935 386.755L54.6678 385.098L52.7817 376.518L56.3699 360L61.2028 360.987Z" fill="#F69772"/>
<path d="M52.78 376.519C52.78 376.519 49.345 377.112 47 379.596L59.5218 392.348C59.7378 392.568 60.0682 392.629 60.3486 392.501C60.6291 392.373 60.7995 392.083 60.7745 391.776C60.7129 391.018 60.2898 390.064 58.9267 389.137C58.6447 388.946 58.4348 388.665 58.3313 388.34L57.1703 384.699L55.961 384.966L52.78 376.519Z" fill="white"/>
<path opacity="0.5" d="M113.194 237.263L93.6152 252.564L93.0469 238.178L94.9373 237.137L101.774 233.8C101.948 234.625 102.767 236.509 106.506 237.58C106.506 237.58 107.702 237.879 107.702 239.375L113.194 237.263Z" fill="#1E3565"/>
<path d="M99.5915 237.808L98.3471 240.308L94.6923 247.648L94.5965 247.815L94.3635 248.234L93.8547 249.131L89.0215 246.715L89.1173 239.949L91.3304 235.271L95.093 234.978L99.5915 237.808Z" fill="#F69772"/>
<path d="M86.1692 278.155L86.5473 275.692L88.1955 270.988L88.5015 268.813L91.3664 248.391L91.7898 247.409C94.1178 249.429 95.6957 252.421 95.9811 255.585C96.7475 263.809 91.5528 278.155 84.7734 284.934L86.1692 278.155Z" fill="#1E3565"/>
<path d="M47.7676 291.542C47.7676 291.542 54.5223 288.044 57.5486 291.154C60.5747 294.264 66.4579 294.269 69.324 289.001L69.2448 275.209L47.7676 291.542Z" fill="#375682"/>
<path d="M84.7745 289.321L58.7535 375.061L52.5723 373.465C53.7686 367.882 54.3532 363.929 55.8365 357.42C57.7768 348.918 60.0155 339.915 61.8584 336.33L65.5526 299.859C61.222 292.277 67.9595 283.385 67.9595 283.385L71.4367 283.674L78.1107 284.227L84.7745 289.321Z" fill="#1E3565"/>
<path d="M67.7176 337.204L64.0983 338.132C64.0983 338.132 59.3335 347.471 55.8359 357.42C57.7763 348.918 60.0149 339.915 61.8578 336.33L65.552 299.859C61.2214 292.277 67.9589 283.385 67.9589 283.385L71.4361 283.674L76.4197 289.923C76.4197 289.923 69.4141 291.202 70.9892 302.13L64.6234 336.311L67.7176 337.204Z" fill="#14274D"/>
<path d="M76.0773 289.977C73.2315 288.658 70.0591 289.154 67.062 288.428C66.3772 288.256 65.836 287.748 65.6234 287.073C65.4006 286.409 65.5494 285.677 66.008 285.147C67.867 282.973 67.8741 280.479 67.8741 280.479C68.038 279.34 68.1496 278.107 68.2316 276.806C68.3819 274.466 68.4269 271.912 68.4747 269.338C68.5015 267.702 68.5382 266.058 68.5869 264.455C68.6322 263.136 68.6895 261.857 68.7961 260.629C69.0196 257.771 69.7457 255.028 70.9473 252.507C71.9889 250.315 73.3914 248.295 75.1456 246.521C76.3068 245.346 78.0213 243.644 79.9227 242.42C82.0215 241.076 86.405 239.749 88.4474 240.913C89.8348 241.71 90.5341 244.608 91.4879 246.529C91.7153 246.995 91.9591 247.403 92.2331 247.711C93.0091 248.596 93.6255 249.579 93.9604 250.698C94.0526 251.012 94.113 251.24 94.1879 251.587C94.2375 251.831 94.3071 252.186 94.3509 252.442C94.3632 252.512 94.3759 252.579 94.3882 252.649C94.4699 253.174 94.5358 253.717 94.5836 254.268C94.7146 255.722 94.7167 257.203 94.6122 258.414C94.595 258.611 94.5787 258.798 94.5586 258.981C94.3654 260.928 94.0819 262.319 93.4812 264.31C92.9567 266.053 91.972 267.718 90.7002 269.013C90.0921 269.627 89.3753 270.183 88.5352 270.629C88.1204 271.774 87.8458 272.998 87.7512 274.331C87.6745 275.43 86.8988 280.736 86.8337 281.846C86.6796 284.234 85.9366 287.283 85.7144 289.959C85.6555 290.665 85.1104 291.236 84.4065 291.325C82.4899 291.565 78.7618 291.733 76.0773 289.977Z" fill="url(#paint1_linear_38_249)"/>
<path d="M94.5582 258.981C94.573 257.761 94.4768 256.631 94.3412 255.668C94.1086 254.006 93.5699 252.372 92.7778 250.891L88.1875 242.316L91.4872 246.529C91.7146 246.995 91.9584 247.403 92.2324 247.711C93.0084 248.595 93.6247 249.579 93.9597 250.698C94.0518 251.012 94.1104 251.242 94.1853 251.588C94.2525 251.895 94.332 252.318 94.3831 252.648L94.3874 252.649C94.4691 253.173 94.5351 253.717 94.5828 254.267C94.7138 255.722 94.716 257.202 94.6115 258.414C94.5946 258.61 94.5782 258.798 94.5582 258.981Z" fill="#CDE0EB"/>
<path d="M95.0808 247.833L95.6069 251.209L94.1855 251.588L95.0808 247.833Z" fill="#F05673"/>
<path d="M95.3239 250.826C95.3239 250.826 95.3714 251.032 95.4608 251.419C95.552 251.805 95.6863 252.368 95.8158 253.121C95.8876 253.494 95.9634 253.908 96.0216 254.357C96.083 254.806 96.1671 255.293 96.2121 255.816C96.2636 256.339 96.3338 256.897 96.3616 257.486C96.4035 258.076 96.4395 258.698 96.446 259.348C96.4876 260.648 96.4371 262.061 96.3252 263.557C96.2016 265.053 95.9726 266.628 95.6392 268.251C95.2869 269.869 94.8034 271.53 94.1599 273.183C93.9889 273.592 93.8283 274.009 93.644 274.419C93.4483 274.825 93.252 275.233 93.0551 275.642L92.4082 276.811C92.1977 277.183 91.9105 277.603 91.6606 277.998C90.6405 279.531 89.5458 280.892 88.5236 282.197C87.5029 283.498 86.5709 284.733 85.8717 285.931C85.1666 287.127 84.7077 288.275 84.4664 289.366C84.4214 289.641 84.377 289.912 84.3335 290.179C84.2916 290.444 84.303 290.717 84.2808 290.976C84.2728 291.106 84.2651 291.235 84.2574 291.362C84.2661 291.494 84.2744 291.624 84.283 291.753C84.2938 291.968 84.3046 292.179 84.315 292.386C84.3986 293.016 84.4787 293.619 84.5551 294.193C84.6627 294.653 84.7647 295.09 84.8602 295.5C84.8833 295.602 84.9058 295.703 84.928 295.801C84.9604 295.908 84.9921 296.013 85.0236 296.116C85.0855 296.321 85.1453 296.519 85.2026 296.709C85.32 297.089 85.4128 297.438 85.5203 297.751C85.9928 298.998 86.2628 299.71 86.2628 299.71L84.3114 304.666L79.4797 302.047C79.4797 302.047 79.2535 301.143 78.8572 299.559C78.7706 299.159 78.7 298.704 78.6109 298.216C78.5684 297.971 78.524 297.717 78.4781 297.453C78.4553 297.321 78.4322 297.187 78.4087 297.051C78.3924 296.903 78.3761 296.754 78.3591 296.601C78.2996 295.992 78.2362 295.345 78.1693 294.661C78.16 294.082 78.1505 293.473 78.1403 292.838C78.1416 292.86 78.1283 292.597 78.1345 292.699L78.1354 292.681L78.1375 292.644L78.1418 292.571L78.1505 292.424L78.1687 292.128C78.1819 291.93 78.1952 291.731 78.2087 291.529C78.2235 291.328 78.2383 291.126 78.2534 290.921C78.2879 290.715 78.3231 290.508 78.3585 290.299C78.4389 289.882 78.492 289.457 78.6069 289.035C78.7302 288.615 78.8556 288.19 78.9826 287.758C79.5746 286.061 80.5001 284.439 81.5839 283.018C82.6666 281.59 83.8814 280.338 85.0636 279.144C86.2446 277.954 87.4129 276.794 88.4145 275.613C88.6515 275.317 88.8851 275.069 89.1325 274.731L89.833 273.757C90.0423 273.427 90.2509 273.099 90.4593 272.771C90.6596 272.436 90.8402 272.089 91.0325 271.75C91.7641 270.37 92.3756 268.932 92.869 267.494C93.3445 266.05 93.7294 264.617 94.0077 263.234C94.2749 261.849 94.4795 260.521 94.5834 259.285C94.6496 258.667 94.6841 258.073 94.7097 257.506C94.7495 256.94 94.7439 256.402 94.7532 255.895C94.7689 255.388 94.7421 254.915 94.7337 254.475C94.7282 254.034 94.702 253.635 94.6752 253.275C94.6376 252.556 94.5695 251.975 94.5233 251.58C94.4795 251.185 94.4561 250.974 94.4561 250.974L95.3239 250.826Z" fill="#F05673"/>
<path d="M81.4313 271.055C81.4313 271.055 72.829 276.241 73.6632 282.972C74.4713 289.475 75.6649 286.806 76.0775 289.976C75.8375 289.867 75.5798 289.773 75.3391 289.667C75.2122 289.616 75.0895 289.565 74.9576 289.518C74.9163 289.503 74.8799 289.486 74.8337 289.475C74.4352 289.323 74.0226 289.213 73.6108 289.128C72.9513 288.993 72.2706 288.95 71.5886 288.985C70.1669 289.064 68.5212 288.781 67.062 288.428C66.3772 288.255 65.836 287.748 65.6234 287.072C65.4006 286.408 65.5494 285.677 66.008 285.147C67.867 282.972 67.874 280.478 67.874 280.478C68.038 279.339 68.1496 278.107 68.2312 276.806L89.0243 256.094C89.0246 256.094 89.9836 265.137 81.4313 271.055Z" fill="#CDE0EB"/>
<path d="M85.2101 265.288C84.9888 265.551 84.7493 265.821 84.5043 266.078C83.99 266.61 83.4396 267.137 82.8355 267.651C81.7886 268.554 80.6163 269.434 79.2763 270.295C78.8156 270.594 78.337 270.899 77.8347 271.192C76.2256 272.149 74.5448 273.065 73.0313 274.147C65.913 279.255 65.9848 284.46 51.5686 290.651C50.1689 291.255 48.6255 291.865 46.9327 292.487C46.7891 290.603 46.9327 288.755 47.3694 286.978C47.7999 285.189 48.5179 283.473 49.5229 281.87C50.3664 280.53 51.5807 279.405 52.8189 278.382C52.8248 278.376 52.8248 278.376 52.8248 278.376C53.0162 278.221 53.2076 278.071 53.3989 277.916C54.3259 277.174 55.2533 276.654 56.2043 276.121C56.6651 275.852 57.1196 275.594 57.5862 275.296C57.658 275.254 57.7357 275.206 57.8195 275.152C57.8614 275.116 57.9153 275.087 57.9631 275.063C58.6331 274.626 60.1765 273.675 61.7738 272.694C64.1246 271.252 66.619 269.733 66.619 269.733C66.619 269.733 67.1155 264.02 68.3957 257.943C68.5812 257.105 68.7664 256.256 68.976 255.412C70.621 250.465 73.2468 247.127 75.9147 244.878C76.6984 244.22 77.488 243.652 78.2596 243.167C78.7919 242.833 79.3124 242.539 79.8209 242.27C81.424 241.439 82.8478 240.954 83.8587 240.679C84.7142 240.452 85.5814 240.374 86.4607 240.446L86.706 240.47C90.2051 250.723 90.9764 258.612 85.2101 265.288Z" fill="#1E3565"/>
<path d="M86.7085 240.467L84.4042 242.727L86.543 244.454L85.0942 245.147C85.0942 245.147 92.5659 256.576 84.1191 266.467C84.1188 266.466 96.1775 258.594 86.7085 240.467Z" fill="#375682"/>
<path opacity="0.5" d="M98.3458 240.308L94.691 247.647L94.5952 247.815L91.6641 243.34C91.9393 242.898 92.3698 242.533 92.8484 242.342C93.5603 242.06 94.2241 241.917 94.6849 241.247C95.1037 240.637 95.1814 239.871 95.0078 239.159C94.7086 237.963 93.7397 237.018 92.992 236.079C95.4566 236.072 97.347 238.089 98.2918 240.194C98.3042 240.224 98.322 240.266 98.3458 240.308Z" fill="#F69772"/>
<path d="M88.7161 239.374L86.7129 240.468L94.186 251.588L95.0813 247.833L88.7161 239.374Z" fill="url(#paint2_linear_38_249)"/>
<path opacity="0.3" d="M85.8922 253.061C85.3297 254.336 84.4147 255.406 83.2421 256.16L69.4183 265.097C68.9218 267.687 69.1191 266.688 68.3415 270.75L70.0643 273.226L67.1751 271.629C67.1751 271.629 64.7645 272.891 61.8093 274.901L59.7516 284.735L60.0986 276.11C58.4057 277.348 57.2571 278.454 55.2355 279.95L55.5625 287.477L53.5186 280.919C51.4248 281.17 48.9187 284.012 47.3691 286.978C47.7997 285.19 48.5177 283.473 49.5227 281.87C50.3662 280.53 51.5804 279.405 52.8187 278.383C52.8246 278.377 52.8246 278.377 52.8246 278.377C53.0159 278.221 53.2073 278.072 53.3987 277.916C54.3257 277.174 55.253 276.654 56.2041 276.121C56.6648 275.852 57.1194 275.595 57.586 275.296C57.6578 275.254 57.7355 275.206 57.8193 275.153C57.8612 275.117 57.9151 275.087 57.9629 275.063C58.6329 274.626 60.1762 273.675 61.7736 272.694C64.1244 271.253 66.6188 269.733 66.6188 269.733C66.6188 269.733 67.1153 264.021 68.3955 257.943C68.581 257.106 68.7662 256.256 68.9758 255.413C70.6208 250.466 73.2466 247.128 75.9145 244.879L77.2424 244.107L86.1674 247.947C86.1674 247.947 87.1006 250.334 85.8922 253.061Z" fill="#1E3565"/>
<path d="M96.8537 222.169C96.8386 222.155 96.8235 222.142 96.8084 222.128C92.9629 218.692 85.401 221.82 83.1596 225.468C81.0147 228.959 84.5064 236.09 88.0206 237.243L94.3346 230.085L97.553 228.766L97.7792 227.667C97.7946 227.593 97.8121 227.516 97.8309 227.443C97.9752 226.88 98.6578 223.802 96.8537 222.169Z" fill="#172F57"/>
<path d="M99.6867 229.16C100.507 230.536 100.79 231.879 100.32 232.159C99.8503 232.439 98.8046 231.551 97.9846 230.175C97.1645 228.799 96.881 227.457 97.3509 227.176C97.8209 226.896 98.8666 227.784 99.6867 229.16Z" fill="white"/>
<path d="M100.133 232.466C100.133 232.466 101.463 235.95 101.034 238.151C101.034 238.151 96.8899 239.667 92.5705 235.401C92.5705 235.401 92.8506 236.315 91.767 236.661C91.767 236.661 89.4424 237.705 88.6073 233.652C88.5133 233.196 88.6627 232.74 88.9959 232.469C89.3321 232.196 89.8415 232.093 90.5137 232.826L90.1001 231.656L86.3711 229.916C86.3711 229.916 87.3123 226.321 93.0879 225.416C93.0879 225.416 96.9892 224.892 98.4164 229.504C98.4164 229.504 98.6 230.024 99.3714 230.502L100.18 230.895C100.18 230.895 101.594 231.674 100.133 232.466Z" fill="#F69772"/>
<path d="M84.4951 230.733C85.1333 232.181 84.4831 233.869 83.0426 234.504C81.6022 235.14 79.9167 234.481 79.2785 233.034C78.6402 231.586 79.2905 229.898 80.7309 229.263C82.1714 228.627 83.8565 229.285 84.4951 230.733Z" fill="#172F57"/>
<path d="M98.2805 229.948C99.1105 231.341 99.3977 232.7 98.9218 232.983C98.446 233.267 97.3874 232.368 96.5572 230.975C95.7269 229.582 95.44 228.223 95.9158 227.939C96.3917 227.656 97.4506 228.555 98.2805 229.948Z" fill="white"/>
<path d="M96.5975 240.252C96.4379 239.27 95.9013 238.39 95.1022 237.798L92.5813 235.931C91.2863 232.073 88.9966 232.47 88.9966 232.47L87.7114 231.623L91.1326 228.792L92.1708 229.836C91.3606 231.905 93.0849 234.322 93.0849 234.322C93.7715 235.457 94.827 235.838 95.9356 235.838C96.996 235.838 98.013 235.416 98.7622 234.665L100.112 233.312C100.239 233.199 100.41 233.152 100.582 233.184C100.754 233.215 100.91 233.322 101.012 233.477C101.115 233.634 101.151 233.825 101.112 234.001C101.073 234.176 100.962 234.319 100.808 234.397C100.64 234.612 102.472 236.518 102.668 236.718C103.778 237.857 106.986 238.268 106.817 240.261C106.688 241.788 104.958 243.098 103.645 243.571C100.763 244.609 97.1307 243.53 96.5975 240.252Z" fill="#172F57"/>
<path d="M89.1714 239.781L91.5706 236.042L90.471 236.026L89.8584 233.555C89.5776 232.423 89.9403 231.27 90.7857 230.611C91.146 230.33 91.6005 230.057 92.1704 229.836C92.1704 229.836 93.6518 229.344 92.975 228.13C92.4271 227.147 92.2838 227.121 92.7303 226.109C92.7303 226.109 81.8055 227.697 86.4844 235.842C86.8622 236.5 87.3948 237.055 88.0247 237.442C88.7498 237.889 88.1439 238.893 89.1714 239.781Z" fill="#3B4670"/>
<path d="M91.7582 236.66C91.7582 236.66 89.3605 237.738 88.4992 233.558C88.4024 233.087 88.5565 232.617 88.8998 232.337C89.2138 232.082 89.674 231.971 90.2728 232.513C90.2728 232.513 91.1261 233.111 91.5773 234.534C91.5773 234.534 92.2898 235.819 91.7582 236.66Z" fill="#F69772"/>
<path d="M98.844 229.3C98.9321 229.436 98.8942 229.616 98.7593 229.705L91.6353 234.358C91.5 234.447 91.3191 234.409 91.2306 234.274C91.1425 234.139 91.1804 233.957 91.3154 233.869L98.4394 229.215C98.5746 229.127 98.7559 229.165 98.844 229.3Z" fill="white"/>
<path d="M123.087 363.178C122.968 363.178 122.847 363.15 122.734 363.092C122.356 362.897 122.208 362.432 122.403 362.054C146.527 315.313 129.161 286.504 123.264 278.787C121.15 276.021 119.557 272.949 118.528 269.655C117.701 267.009 117.265 264.423 117.231 261.968C117.191 259.096 117.677 256.12 118.676 253.122C120.104 248.836 122.324 244.908 124.471 241.109C127.13 236.403 129.88 231.537 131.037 226.064C132.292 220.131 134.188 205.746 124.725 200.341C123.878 199.857 123.41 198.92 123.533 197.952L132.462 127.914C132.516 127.491 132.901 127.193 133.323 127.247C133.746 127.301 134.044 127.686 133.99 128.108L125.062 198.147C125.018 198.493 125.185 198.829 125.489 199.003C129.693 201.404 132.301 205.606 133.24 211.492C134.112 216.959 133.343 222.607 132.545 226.383C131.339 232.088 128.529 237.059 125.812 241.867C123.702 245.602 121.519 249.464 120.138 253.609C119.194 256.442 118.734 259.248 118.771 261.946C118.803 264.252 119.216 266.691 119.998 269.196C120.973 272.317 122.484 275.229 124.488 277.851C130.524 285.749 148.311 315.215 123.772 362.761C123.635 363.026 123.366 363.178 123.087 363.178Z" fill="#1E3565"/>
<path d="M123.559 197.219C123.309 199.097 122.815 200.621 124.038 202.31C124.444 202.872 124.866 203.361 125.17 203.739C126.307 202.931 126.065 201.651 126.065 201.651C126.026 199.76 124.397 199.56 124.397 199.56L124.385 197.866C124.416 197.33 124.102 197.12 123.862 197.038C123.798 197.016 123.727 197.024 123.669 197.058C123.61 197.093 123.57 197.152 123.559 197.219Z" fill="#F69772"/>
<path d="M128.197 198.43C128.188 197.925 127.751 197.568 127.403 197.678C127.26 197.722 127.142 197.812 127.052 197.936C127.229 197.513 126.876 197.106 126.641 197.013C126.268 196.871 125.958 197.021 125.794 197.135C125.713 196.906 125.597 196.748 125.425 196.699C124.794 196.529 124.519 196.946 124.474 197.237C124.439 197.482 124.393 197.745 124.382 198.053C124.328 198.482 124.283 198.91 124.425 199.109C124.668 199.447 125.165 199.427 125.426 199.223C125.422 199.734 125.853 200.108 126.209 200.007C126.355 199.965 126.475 199.875 126.571 199.755C126.632 200.25 126.723 200.597 126.96 200.695C127.332 200.85 127.651 200.704 127.819 200.595C127.895 200.83 128.007 200.993 128.179 201.044C128.812 201.232 129.103 200.82 129.154 200.524C129.207 200.217 129.28 199.888 129.276 199.462L129.271 199.458C129.307 199.069 129.325 198.695 129.192 198.518C128.94 198.191 128.449 198.224 128.197 198.43Z" fill="#F69772"/>
<path d="M162.756 85.7481C161.777 92.0859 158.257 97.4029 153.398 100.826C151.91 101.871 150.744 103.281 150.001 104.943L147.608 110.304C147.204 111.204 146.251 111.722 145.278 111.572L126.614 108.688C125.641 108.538 124.888 107.756 124.776 106.776L124.192 101.654L124.081 100.689C123.881 98.9263 123.212 97.247 122.153 95.8235C118.651 91.1197 116.961 85.072 117.927 78.8217C119.839 66.4439 131.426 57.9581 143.804 59.8707C145.975 60.206 148.025 60.8387 149.922 61.7226C158.84 65.8731 164.333 75.5411 162.756 85.7481Z" fill="#FFDD78"/>
<path d="M162.755 85.7481C161.776 92.0859 158.256 97.403 153.397 100.826C151.909 101.871 150.744 103.281 150 104.943L147.607 110.304C147.204 111.204 146.251 111.722 145.278 111.572L126.613 108.688C125.64 108.538 124.888 107.756 124.775 106.776L124.191 101.654C130.474 107.486 140.035 107.135 143.521 99.7793C147.565 91.2356 152.762 88.0768 152.762 88.0768C163.922 76.2472 152.418 64.1045 149.921 61.7229C158.839 65.8732 164.332 75.5412 162.755 85.7481Z" fill="#FFDD78"/>
<path d="M139.892 125.681C141.041 122.411 139.322 118.83 136.052 117.681C132.783 116.532 129.201 118.251 128.052 121.521C126.903 124.79 128.623 128.372 131.892 129.521C135.162 130.67 138.744 128.95 139.892 125.681Z" fill="#0F2748"/>
<path d="M145.777 118.06C145.956 116.907 145.106 115.819 143.881 115.63C145.106 115.819 146.244 115.038 146.422 113.885C146.601 112.733 145.751 111.645 144.526 111.455L127.548 108.832C126.322 108.643 125.185 109.424 125.007 110.577C124.828 111.729 125.677 112.817 126.903 113.007C125.677 112.817 124.54 113.598 124.362 114.751C124.183 115.904 125.032 116.992 126.258 117.181C125.032 116.992 123.895 117.773 123.717 118.925C123.549 120.007 124.287 121.032 125.392 121.31L125.207 122.508C124.931 124.291 126.154 125.96 127.937 126.236L138.902 127.93C140.686 128.205 142.354 126.983 142.63 125.2L142.815 124.002C143.952 124.071 144.965 123.316 145.132 122.234C145.31 121.081 144.461 119.993 143.236 119.804C144.461 119.994 145.599 119.213 145.777 118.06Z" fill="#172F57"/>
<path opacity="0.5" d="M145.777 118.06C145.956 116.907 145.107 115.819 143.881 115.63C145.107 115.819 146.244 115.038 146.422 113.886C146.601 112.733 145.752 111.645 144.526 111.456L137.448 110.362C138.674 110.551 139.523 111.639 139.344 112.792C139.166 113.945 138.029 114.726 136.803 114.536C138.029 114.725 138.878 115.813 138.699 116.966C138.521 118.119 137.383 118.9 136.158 118.71C137.383 118.9 138.233 119.988 138.054 121.14C137.887 122.222 136.874 122.977 135.737 122.909L135.552 124.106C135.276 125.89 133.607 127.112 131.824 126.837L138.902 127.93C140.686 128.206 142.354 126.984 142.63 125.2L142.815 124.003C143.952 124.071 144.965 123.317 145.132 122.235C145.311 121.082 144.461 119.994 143.236 119.804C144.461 119.994 145.599 119.213 145.777 118.06Z" fill="#172F57"/>
<path opacity="0.4" d="M132.359 73.3541C135.409 70.151 136.398 66.1415 134.567 64.3987C132.737 62.6558 128.781 63.8395 125.731 67.0426C122.681 70.2457 121.692 74.2552 123.522 75.998C125.352 77.7409 129.309 76.5571 132.359 73.3541Z" fill="white"/>
<path d="M126.463 67.7459C127.258 66.911 128.289 66.6025 128.766 67.0568C129.243 67.511 128.985 68.5561 128.19 69.3913C127.395 70.2261 126.364 70.5346 125.887 70.0804C125.41 69.6261 125.668 68.5808 126.463 67.7459Z" fill="white"/>
<path d="M53.8623 302.681L53.8672 299.483C53.8685 298.829 54.1239 298.214 54.5878 297.752C55.0513 297.29 55.6667 297.042 56.321 297.043L61.8858 297.045C62.541 297.046 63.1549 297.302 63.6175 297.766C64.0795 298.229 64.3334 298.845 64.3325 299.5L64.3276 302.697L62.9975 302.695L63.0036 299.497C63.0042 299.198 62.8884 298.916 62.677 298.704C62.4649 298.491 62.1835 298.374 61.8846 298.374L56.3198 298.365C56.0205 298.365 55.7385 298.481 55.5262 298.693C55.3142 298.904 55.1973 299.185 55.1967 299.485L55.1915 302.683L53.8623 302.681Z" fill="#7A5A3F"/>
<path d="M40.6162 311.921L40.6094 326.799C40.6069 328.282 41.807 329.582 43.2899 329.584H74.8613C76.344 329.586 77.548 328.34 77.5502 326.858L77.5736 311.921H40.6162Z" fill="url(#paint3_linear_38_249)"/>
<path opacity="0.5" d="M43.2916 328.319L74.8633 328.332C75.259 328.332 75.63 328.18 75.9095 327.901C76.1906 327.623 76.3434 327.251 76.345 326.857V313.143L41.8221 313.128L41.8145 326.8C41.8135 327.546 42.3793 328.209 43.1005 328.307C43.163 328.315 43.2281 328.318 43.2916 328.319Z" fill="url(#paint4_linear_38_249)"/>
<path d="M77.5866 303.906C77.5891 302.423 76.3887 301.184 74.906 301.181L43.3347 301.167C41.852 301.165 40.6224 302.365 40.6199 303.848L40.6162 311.921H77.5737L77.5866 303.906Z" fill="#7A5A3F"/>
<path opacity="0.3" d="M76.6019 310.964L76.6127 303.904C76.6136 303.441 76.4343 303.003 76.107 302.669C75.7831 302.337 75.3556 302.155 74.9038 302.154H43.3337C42.3734 302.153 41.594 302.906 41.5924 303.849L41.5894 310.948L76.6019 310.964Z" fill="url(#paint5_linear_38_249)"/>
<path d="M61.5636 312.566C61.5617 313.674 60.6618 314.571 59.5536 314.569C58.4451 314.567 57.548 313.668 57.5498 312.559L57.5532 310.385C57.5551 309.277 58.4549 308.38 59.5632 308.381C60.6714 308.383 61.5688 309.283 61.567 310.391L61.5636 312.566Z" fill="#674B35"/>
<path d="M61.109 312.565C61.1072 313.674 60.2073 314.571 59.099 314.569H59.0966C57.9896 314.567 57.0937 313.669 57.0952 312.562L57.0986 310.385C57.1005 309.276 58.0004 308.38 59.1086 308.381C60.2171 308.383 61.1142 309.283 61.1124 310.391L61.109 312.565Z" fill="#C6B5A3"/>
<path d="M58.7004 312.801L58.7022 311.469C58.379 311.322 58.1537 310.998 58.1543 310.62C58.1552 310.105 58.5725 309.689 59.0871 309.69C59.6015 309.691 60.0182 310.108 60.0172 310.623C60.0166 311 59.7898 311.324 59.4662 311.469L59.4641 312.801C59.4641 313.013 59.2927 313.183 59.0816 313.183C58.8705 313.183 58.6998 313.012 58.7004 312.801Z" fill="#30102E"/>
<path d="M61.9594 298.379C61.8762 297.914 61.8146 297.47 61.7344 297.045C61.716 296.943 61.6975 296.844 61.6728 296.746C61.4571 295.726 61.0934 294.823 60.0641 294.068C60.061 294.068 60.061 294.065 60.0579 294.065C59.6696 293.781 59.0748 293.399 58.7882 293.217C58.6834 293.149 58.6218 292.826 58.6311 292.702V289.22H56.446L56.4429 290.363V290.736L56.4399 291.313L56.4368 292.354V292.98C56.0793 294.086 55.6787 295.485 55.7557 296.194C55.7834 296.444 55.8482 296.761 55.9221 297.076C55.9499 297.205 55.9838 297.334 56.0146 297.458C56.0454 297.673 56.0855 297.905 56.1748 298.17H56.181C56.1964 298.237 56.2118 298.305 56.2303 298.37C56.2981 298.653 56.3875 298.897 56.5262 298.996C56.8498 299.217 57.2843 299.042 57.4507 298.783C57.6079 299.236 58.1041 299.427 58.3876 299.227C58.5016 299.143 58.5817 299.029 58.628 298.891C58.591 299.325 59.0286 299.587 59.269 299.603C59.645 299.621 59.8823 299.393 59.9963 299.242C60.0148 299.267 60.0333 299.291 60.0549 299.313C60.1751 299.455 60.3076 299.535 60.4555 299.529C61.0749 299.495 61.1982 299.039 61.1551 298.764C61.1335 298.641 61.1119 298.512 61.0842 298.376C61.0626 298.268 61.038 298.154 61.0071 298.037L61.0503 298.173C61.0719 298.25 61.0965 298.317 61.1273 298.376C61.2876 298.69 61.5619 298.761 61.7653 298.764C61.83 298.764 61.8916 298.737 61.9317 298.687C61.9748 298.641 61.9933 298.576 61.9841 298.512C61.9748 298.465 61.9687 298.422 61.9594 298.379Z" fill="#F69772"/>
<path d="M59.2027 290.736H55.9375V292.355H59.2027V290.736Z" fill="white"/>
<path d="M85.4191 246.023C86.2626 247.231 86.5856 248.732 86.3045 250.18C86.0234 251.634 85.1679 252.908 83.9296 253.709L68.6879 263.615L61.1448 267.838L59.6014 291.311H55.5636L54.0862 267.563C53.9845 266.218 54.3734 264.884 55.1867 263.807C55.5994 263.262 55.9584 262.856 55.9643 262.85L62.5144 256.97L76.757 244.181C77.9235 243.158 79.4607 242.686 80.9921 242.865C81.7339 242.954 82.4337 243.193 83.0618 243.559C83.7438 243.947 84.342 244.492 84.8024 245.15L85.4191 246.023Z" fill="#1E3565"/>
<path opacity="0.3" d="M84.0533 248.517C83.3115 249.738 81.7324 250.826 78.5141 251.017C70.9652 251.478 67.2981 254.96 65.5874 258.812C65.3002 259.452 64.8037 259.978 64.1756 260.296C63.6791 260.553 63.093 260.69 62.5364 260.409C62.2492 260.26 61.998 260.038 61.8307 259.757C61.8307 259.757 61.1487 258.657 62.5127 256.97L76.7553 244.181C77.9217 243.158 79.459 242.686 80.9903 242.865C81.7321 242.954 82.432 243.194 83.06 243.559C83.6641 243.996 84.1307 244.612 84.3818 245.335C84.7535 246.393 84.6336 247.56 84.0533 248.517Z" fill="#1E3565"/>
<defs>
<radialGradient id="paint0_radial_38_249" cx="0" cy="0" r="1" gradientUnits="userSpaceOnUse" gradientTransform="translate(139.807 82.5492) scale(82.5492)">
<stop stop-color="white"/>
<stop offset="0.2655" stop-color="#D7E4EA"/>
<stop offset="0.592" stop-color="#ADC7D3"/>
<stop offset="0.8481" stop-color="#93B5C5"/>
<stop offset="1" stop-color="#89AEC0"/>
</radialGradient>
<linearGradient id="paint1_linear_38_249" x1="68.3266" y1="263.904" x2="93.4821" y2="267.238" gradientUnits="userSpaceOnUse">
<stop stop-color="white"/>
<stop offset="1" stop-color="#EDEDED"/>
</linearGradient>
<linearGradient id="paint2_linear_38_249" x1="86.1417" y1="244.777" x2="95.3248" y2="245.994" gradientUnits="userSpaceOnUse">
<stop stop-color="white"/>
<stop offset="1" stop-color="#EDEDED"/>
</linearGradient>
<linearGradient id="paint3_linear_38_249" x1="59.1339" y1="329.186" x2="59.0631" y2="312.821" gradientUnits="userSpaceOnUse">
<stop stop-color="#7B5A3F"/>
<stop offset="0.1341" stop-color="#6E5038"/>
<stop offset="0.3683" stop-color="#5E442F"/>
<stop offset="0.6347" stop-color="#553D2A"/>
<stop offset="1" stop-color="#523B28"/>
</linearGradient>
<linearGradient id="paint4_linear_38_249" x1="59.0981" y1="327.351" x2="59.0635" y2="313.394" gradientUnits="userSpaceOnUse">
<stop offset="0.0022" stop-color="#C6B5A3"/>
<stop offset="0.0767" stop-color="#D2C4B6"/>
<stop offset="0.2059" stop-color="#E2DAD1"/>
<stop offset="0.3476" stop-color="#EFEAE5"/>
<stop offset="0.5066" stop-color="#F8F6F4"/>
<stop offset="0.6967" stop-color="#FDFDFC"/>
<stop offset="1" stop-color="white"/>
</linearGradient>
<linearGradient id="paint5_linear_38_249" x1="59.0991" y1="310.957" x2="59.1035" y2="302.146" gradientUnits="userSpaceOnUse">
<stop stop-color="white"/>
<stop offset="0.2332" stop-color="#FDFDFC"/>
<stop offset="0.3794" stop-color="#F7F5F4"/>
<stop offset="0.5017" stop-color="#ECE8E5"/>
<stop offset="0.6108" stop-color="#DCD6D1"/>
<stop offset="0.7111" stop-color="#C8BEB6"/>
<stop offset="0.8051" stop-color="#AFA095"/>
<stop offset="0.8941" stop-color="#927D6E"/>
<stop offset="0.9769" stop-color="#705641"/>
<stop offset="0.9978" stop-color="#674B35"/>
</linearGradient>
</defs>
</svg>
