<svg width="38" height="54" viewBox="0 0 38 54" fill="none" xmlns="http://www.w3.org/2000/svg">
<path d="M15.8427 32.7659H15.1216V49.145H15.8427V32.7659Z" fill="white"/>
<path d="M18.8173 45.0342H11.7085V53.5988H18.8173V45.0342Z" fill="white"/>
<path d="M21.9683 49.1481L21.9758 32.7742H22.697V49.1481H21.9683Z" fill="#324A92"/>
<path d="M25.9257 45.0369H18.8169V53.602H25.9257V45.0369Z" fill="#324A92"/>
<path d="M9.46563 0L0 16.379L28.3833 0.00796638L9.46563 0Z" fill="#324A92"/>
<path d="M28.3828 0.00830078L28.3687 32.7744L37.8343 16.3954L28.3828 0.00830078Z" fill="#324A92"/>
<path d="M0 16.3792L9.45205 32.7663L9.46099 10.9221L0 16.3792Z" fill="#5967A5"/>
<path d="M28.3805 0.00830078L9.47314 10.9139L28.3711 21.8387L28.3805 0.00830078Z" fill="#5967A5"/>
<path d="M9.47318 10.9136L9.45816 10.922L9.44922 32.7661L28.3711 21.852V21.8385L9.47318 10.9136Z" fill="#8088B9"/>
<path d="M28.3674 32.7742L28.3721 21.8523L9.4502 32.7662L28.3674 32.7742Z" fill="#5967A5"/>
</svg>
