<svg width="389" height="159" viewBox="0 0 389 159" fill="none" xmlns="http://www.w3.org/2000/svg">
<path d="M256.23 101.806L385.489 101.819C385.403 102.68 385.09 105.007 384.812 106.381H268.247C263.859 106.376 259.61 104.758 256.23 101.806Z" fill="#9DC4E5"/>
<path d="M388.921 101.791L256.8 101.806C256.657 100.265 256.23 97.2875 256.23 97.2875L384.734 97.2305" fill="#1A7195"/>
<path d="M359.18 26.3096H308.849V97.2304H359.18V26.3096Z" fill="#7B959B"/>
<path d="M319.685 30.6227L312.649 30.5869L312.641 32.3218L319.676 32.3575L319.685 30.6227Z" fill="white"/>
<path d="M328.262 30.6663L320.521 30.627L320.512 32.3618L328.253 32.4012L328.262 30.6663Z" fill="white"/>
<path d="M336.987 30.7133L329.033 30.6729L329.024 32.4077L336.979 32.4482L336.987 30.7133Z" fill="white"/>
<path d="M322.454 37.3937L312.036 37.2891L312.018 39.0239L322.437 39.1286L322.454 37.3937Z" fill="white"/>
<path d="M336.963 35.8652L324.097 35.7998L324.088 37.5347L336.955 37.6001L336.963 35.8652Z" fill="white"/>
<path d="M336.974 33.4406L312.635 33.3169L312.627 35.0517L336.965 35.1755L336.974 33.4406Z" fill="white"/>
<path d="M317.013 38.4848L312.609 38.4624L312.601 40.1973L317.005 40.2197L317.013 38.4848Z" fill="white"/>
<path d="M329.548 38.5484L317.819 38.4888L317.811 40.2236L329.539 40.2833L329.548 38.5484Z" fill="white"/>
<path d="M336.948 38.5863L328.994 38.5459L328.985 40.2807L336.939 40.3212L336.948 38.5863Z" fill="white"/>
<path d="M319.621 43.6505L312.586 43.6147L312.577 45.3496L319.612 45.3854L319.621 43.6505Z" fill="white"/>
<path d="M336.924 43.7385L320.455 43.6548L320.446 45.3897L336.915 45.4734L336.924 43.7385Z" fill="white"/>
<path d="M328.98 41.2757L312.596 41.1924L312.587 42.9272L328.971 43.0105L328.98 41.2757Z" fill="white"/>
<path d="M336.233 42.9797L328.915 42.9062L328.898 44.6411L336.216 44.7146L336.233 42.9797Z" fill="white"/>
<path d="M346.597 45.7553C350.388 45.7553 353.461 42.4264 353.461 38.32C353.461 34.2136 350.388 30.8848 346.597 30.8848C342.807 30.8848 339.734 34.2136 339.734 38.32C339.734 42.4264 342.807 45.7553 346.597 45.7553Z" fill="white"/>
<path d="M352.306 37.7735C352.301 38.8301 352.004 39.8649 351.448 40.7629C350.892 41.6609 350.097 42.387 349.154 42.8607C348.21 43.3345 347.153 43.5372 346.102 43.4466C345.05 43.3559 344.043 42.9753 343.194 42.347C342.346 41.7187 341.687 40.8674 341.292 39.8874C340.898 38.9074 340.782 37.837 340.958 36.7952C341.134 35.7533 341.595 34.7807 342.29 33.9852C342.985 33.1897 343.887 32.6024 344.895 32.2886C345.152 32.2077 345.415 32.1455 345.682 32.1025C345.996 32.0516 346.314 32.027 346.633 32.0289H346.763C348.255 32.0696 349.672 32.6934 350.71 33.7667C351.748 34.8401 352.325 36.2775 352.317 37.7713L352.306 37.7735Z" fill="#EE5253"/>
<path d="M351.17 33.8589L346.597 37.7482L346.63 32.0288H346.772C347.601 32.0491 348.418 32.2211 349.174 32.5346C349.929 32.8482 350.609 33.297 351.173 33.8546L351.17 33.8589Z" fill="#05BCE3"/>
<path d="M352.317 38.4369C352.312 39.4492 352.056 40.4433 351.575 41.3241C351.093 42.205 350.401 42.9431 349.565 43.4678L346.597 38.4033L349.284 33.1729C350.204 33.6805 350.972 34.4387 351.506 35.3656C352.04 36.2926 352.32 37.353 352.314 38.4324L352.317 38.4369Z" fill="#F29C1F"/>
<path d="M346.597 37.7482L340.878 35.8425C341.191 34.9867 341.709 34.2131 342.389 33.5836C343.07 32.9541 343.896 32.4862 344.799 32.2174C345.072 32.1355 345.35 32.0724 345.632 32.0288L346.597 37.7482Z" fill="#0FAB82"/>
<path d="M346.597 32.0288L346.403 37.7482L344.31 32.2909C344.627 32.2099 344.951 32.1477 345.279 32.1046C345.666 32.0537 346.058 32.0291 346.451 32.031L346.597 32.0288Z" fill="#5E4A9D"/>
<path d="M355.446 50.5208L312.552 50.3027L312.471 66.2766L355.365 66.4946L355.446 50.5208Z" fill="white"/>
<path d="M333.997 50.4118L312.55 50.3027L312.469 66.2766L333.916 66.3856L333.997 50.4118Z" fill="white"/>
<path d="M355.446 50.5208L312.552 50.3027L312.537 53.216L355.431 53.434L355.446 50.5208Z" fill="#224449"/>
<path d="M333.569 72.7348L311.305 72.5112L311.09 94.0522L333.354 94.2758L333.569 72.7348Z" fill="white"/>
<path d="M334.333 71.079L312.069 70.9658L312.055 73.8791L334.318 73.9923L334.333 71.079Z" fill="#224449"/>
<path d="M340.552 82.6067L338.775 82.5977L338.735 90.5016L340.512 90.5107L340.552 82.6067Z" fill="#23B899"/>
<path d="M342.485 77.9334L340.708 77.9243L340.645 90.5114L342.422 90.5204L342.485 77.9334Z" fill="#3B97D2"/>
<path d="M344.4 76.5032L342.623 76.4941L342.552 90.5236L344.33 90.5327L344.4 76.5032Z" fill="#F29C1F"/>
<path d="M346.309 75.4563L344.532 75.4473L344.456 90.5308L346.233 90.5398L346.309 75.4563Z" fill="#945BA4"/>
<path d="M352.1 90.5291L353.877 90.5381L353.929 80.2097L352.152 80.2006L352.1 90.5291Z" fill="#34495E"/>
<path d="M350.99 88.7795L352.767 88.7974L352.891 76.3564L351.114 76.3385L350.99 88.7795Z" fill="#5E4A9D"/>
<path d="M348.28 90.5115L350.058 90.5205L350.14 74.2193L348.362 74.2103L348.28 90.5115Z" fill="#F16B6C"/>
<path d="M347.148 88.779L348.926 88.7969L349.108 70.5162L347.33 70.4983L347.148 88.779Z" fill="#D15627"/>
<path d="M353.027 93.161L337.87 93.0088L337.868 93.2183L353.025 93.3705L353.027 93.161Z" fill="white"/>
<path d="M332.671 74.9594L313.478 74.8618L313.472 75.9507L332.666 76.0483L332.671 74.9594Z" fill="#D1D1D1"/>
<path d="M332.663 76.6703L313.469 76.5728L313.463 77.6617L332.657 77.7593L332.663 76.6703Z" fill="#D1D1D1"/>
<path d="M332.656 78.3788L313.462 78.2812L313.457 79.3702L332.651 79.4678L332.656 78.3788Z" fill="#D1D1D1"/>
<path d="M332.645 80.0898L313.452 79.9922L313.446 81.0811L332.64 81.1787L332.645 80.0898Z" fill="#D1D1D1"/>
<path d="M332.637 81.8007L313.443 81.7031L313.438 82.7921L332.632 82.8896L332.637 81.8007Z" fill="#D1D1D1"/>
<path d="M332.628 83.5116L313.435 83.4141L313.429 84.503L332.623 84.6006L332.628 83.5116Z" fill="#D1D1D1"/>
<path d="M332.62 85.2226L313.426 85.125L313.42 86.2139L332.614 86.3115L332.62 85.2226Z" fill="#D1D1D1"/>
<path d="M332.611 86.933L313.417 86.8354L313.412 87.9244L332.605 88.022L332.611 86.933Z" fill="#D1D1D1"/>
<path d="M331.753 90.2895L312.559 90.0967L312.548 91.1856L331.742 91.3784L331.753 90.2895Z" fill="#D1D1D1"/>
<path d="M331.736 92.0004L312.542 91.8076L312.531 92.8966L331.725 93.0893L331.736 92.0004Z" fill="#D1D1D1"/>
<path d="M332.248 54.4905L313.761 54.3965L313.755 55.4854L332.243 55.5794L332.248 54.4905Z" fill="#D1D1D1"/>
<path d="M331.55 57.8449L313.062 57.6592L313.052 58.7481L331.54 58.9338L331.55 57.8449Z" fill="#D1D1D1"/>
<path d="M332.231 57.9123L313.744 57.8184L313.738 58.9073L332.226 59.0013L332.231 57.9123Z" fill="#D1D1D1"/>
<path d="M332.223 59.6228L313.735 59.5288L313.73 60.6177L332.217 60.7117L332.223 59.6228Z" fill="#D1D1D1"/>
<path d="M332.212 61.3337L313.725 61.2397L313.719 62.3287L332.207 62.4226L332.212 61.3337Z" fill="#D1D1D1"/>
<path d="M332.203 63.0447L313.716 62.9507L313.71 64.0396L332.198 64.1336L332.203 63.0447Z" fill="#D1D1D1"/>
<path d="M345.962 54.5949L335.353 54.541L335.347 55.6299L345.956 55.6839L345.962 54.5949Z" fill="#D1D1D1"/>
<path d="M345.954 56.3059L335.344 56.252L335.339 57.3409L345.948 57.3948L345.954 56.3059Z" fill="#D1D1D1"/>
<path d="M345.945 58.0168L335.335 57.9629L335.33 59.0518L345.939 59.1058L345.945 58.0168Z" fill="#D1D1D1"/>
<path d="M345.936 59.7278L335.327 59.6738L335.322 60.7628L345.931 60.8167L345.936 59.7278Z" fill="#D1D1D1"/>
<path d="M354.16 54.6364L347.691 54.6035L347.686 55.6924L354.154 55.7253L354.16 54.6364Z" fill="#D1D1D1"/>
<path d="M354.151 56.3473L347.683 56.3145L347.677 57.4034L354.145 57.4363L354.151 56.3473Z" fill="#D1D1D1"/>
<path d="M353.444 59.8101L346.976 59.7451L346.965 60.8341L353.433 60.899L353.444 59.8101Z" fill="#D1D1D1"/>
<path d="M354.134 59.7712L347.666 59.7383L347.66 60.8272L354.128 60.8601L354.134 59.7712Z" fill="#D1D1D1"/>
<path d="M345.928 61.4382L335.318 61.3843L335.313 62.4732L345.922 62.5272L345.928 61.4382Z" fill="#D1D1D1"/>
<path d="M345.919 63.1491L335.31 63.0952L335.304 64.1841L345.913 64.2381L345.919 63.1491Z" fill="#D1D1D1"/>
<path d="M384.345 101.806L384.155 159H380.914V101.986" fill="#9DC4E5"/>
<path d="M384.345 159H388.921L388.862 100.167C388.862 98.8495 387.319 97.6531 385.012 97.2825C384.849 97.2542 384.685 97.2369 384.52 97.2305L384.345 159Z" fill="#1A7195"/>
<path d="M249.483 152.904C254.992 152.904 268.523 149.618 275.158 119.081C277.705 107.369 279.108 92.2299 279.108 76.4508C279.108 60.6718 277.705 45.5323 275.158 33.8229C268.523 3.29642 254.992 0 249.483 0H180.734V153.281L249.483 152.904Z" fill="#CDE2F4"/>
<path d="M181.878 152.137C176.348 152.137 162.763 148.868 156.1 118.483C153.545 106.831 152.137 91.7671 152.137 76.0672C152.137 60.3674 153.545 45.3039 156.1 33.6532C162.763 3.27989 176.348 0 181.878 0C187.408 0 201.001 3.27989 207.656 33.6532C210.212 45.3039 211.619 60.3674 211.619 76.0672C211.619 91.7671 210.212 106.831 207.656 118.483C201.001 148.857 187.408 152.137 181.878 152.137Z" fill="#269CCE"/>
<path d="M201.868 35.2921C195.555 7.85231 183.659 5.71973 180.163 5.71973C176.667 5.71973 164.771 7.85231 158.46 35.2921C155.858 46.6033 154.424 61.2869 154.424 76.6406C154.424 91.9943 155.858 106.68 158.46 117.991C164.773 145.429 176.667 147.561 180.163 147.561C183.659 147.561 195.553 145.429 201.865 117.991C204.466 106.68 205.899 91.9943 205.899 76.6406C205.899 61.2869 204.468 46.6033 201.868 35.2921ZM196.728 116.813C191.029 141.581 181.255 142.294 180.163 142.294C179.07 142.294 169.296 141.581 163.6 116.81C161.085 105.877 159.699 91.6123 159.699 76.6471C159.699 61.682 161.085 47.4109 163.6 36.4839C169.298 11.7049 179.07 10.9868 180.163 10.9868C181.255 10.9868 191.027 11.7027 196.726 36.4708C199.241 47.4087 200.626 61.6732 200.626 76.634C200.626 91.5948 199.243 105.875 196.728 116.813Z" fill="#78DCEF"/>
<path d="M136.694 129.259C148.381 129.259 157.856 105.445 157.856 76.0686C157.856 46.6922 148.381 22.8779 136.694 22.8779C125.007 22.8779 115.532 46.6922 115.532 76.0686C115.532 105.445 125.007 129.259 136.694 129.259Z" fill="#CDE2F4"/>
<path d="M175.227 129.259C190.09 129.259 196.748 102.536 196.748 76.0675C196.748 49.599 190.094 22.8779 175.232 22.8779H136.122V129.259H175.227Z" fill="#CDE2F4"/>
<path d="M136.694 126.971C147.118 126.971 155.569 104.181 155.569 76.0684C155.569 47.9555 147.118 25.1655 136.694 25.1655C126.271 25.1655 117.82 47.9555 117.82 76.0684C117.82 104.181 126.271 126.971 136.694 126.971Z" fill="#269CCE"/>
<path d="M136.694 124.683C145.855 124.683 153.281 102.918 153.281 76.0682C153.281 49.2188 145.855 27.4531 136.694 27.4531C127.534 27.4531 120.108 49.2188 120.108 76.0682C120.108 102.918 127.534 124.683 136.694 124.683Z" fill="#2088B4"/>
<path d="M136.694 122.396C144.591 122.396 150.993 101.654 150.993 76.0686C150.993 50.4827 144.591 29.7412 136.694 29.7412C128.797 29.7412 122.396 50.4827 122.396 76.0686C122.396 101.654 128.797 122.396 136.694 122.396Z" fill="#CDE2F4"/>
<path d="M144.129 115.533C147.92 115.533 150.993 97.8639 150.993 76.0685C150.993 54.2731 147.92 36.6045 144.129 36.6045C140.339 36.6045 137.266 54.2731 137.266 76.0685C137.266 97.8639 140.339 115.533 144.129 115.533Z" fill="#B8CFE5"/>
<path d="M0 101.806L148.705 101.82C148.603 102.682 148.243 105.006 147.923 106.381H13.8264C8.79568 106.381 3.91449 104.766 0 101.806Z" fill="#9DC4E5"/>
<path d="M148.98 101.806C149.384 100.328 149.674 98.8251 149.849 97.3082L7.0581 97.2305C3.88739 97.2305 1.01637 98.8497 0.123788 101.276C0.0565911 101.442 0.0149079 101.617 0 101.794" fill="#1A7195"/>
<path d="M227.094 124.684C228.185 139.239 219.465 151.214 216.194 152.137H235.814C235.814 152.137 240.72 141.266 240.173 139.055C239.627 136.845 237.087 129.105 236.717 128.553C236.348 128 235.992 127.078 234.719 126.342C233.447 125.606 227.094 124.684 227.094 124.684Z" fill="#83ADDF"/>
<path d="M269.92 152.137C269.92 152.137 271.019 128.914 261.133 124.684H227.633C237.517 128.921 236.42 152.137 236.42 152.137H269.92Z" fill="#CDE2F4"/>
<path d="M92.6547 27.4531H42.3237V97.2301H92.6547V27.4531Z" fill="#444444"/>
<path d="M53.0978 31.2623L46.0625 31.2266L46.0538 32.9614L53.089 32.9972L53.0978 31.2623Z" fill="white"/>
<path d="M61.6755 31.306L53.9341 31.2666L53.9253 33.0015L61.6667 33.0408L61.6755 31.306Z" fill="white"/>
<path d="M70.4006 31.3524L62.4463 31.312L62.4375 33.0469L70.3919 33.0873L70.4006 31.3524Z" fill="white"/>
<path d="M55.8587 36.7111L45.4404 36.6064L45.4232 38.3413L55.8415 38.446L55.8587 36.7111Z" fill="white"/>
<path d="M70.3771 36.5044L57.5103 36.439L57.5015 38.1738L70.3683 38.2392L70.3771 36.5044Z" fill="white"/>
<path d="M70.3876 34.0798L46.0488 33.9561L46.0401 35.6909L70.3788 35.8146L70.3876 34.0798Z" fill="white"/>
<path d="M50.427 39.122L46.0229 39.0996L46.0142 40.8345L50.4183 40.8569L50.427 39.122Z" fill="white"/>
<path d="M62.9612 39.188L51.2329 39.1284L51.2242 40.8633L62.9525 40.9229L62.9612 39.188Z" fill="white"/>
<path d="M70.361 39.2255L62.4067 39.1851L62.398 40.9199L70.3523 40.9603L70.361 39.2255Z" fill="white"/>
<path d="M53.0323 44.2897L45.9971 44.2539L45.9883 45.9888L53.0236 46.0245L53.0323 44.2897Z" fill="white"/>
<path d="M70.3373 44.3777L53.8682 44.2939L53.8594 46.0288L70.3286 46.1125L70.3373 44.3777Z" fill="white"/>
<path d="M62.3932 41.9153L46.0088 41.832L46 43.5669L62.3845 43.6502L62.3932 41.9153Z" fill="white"/>
<path d="M70.263 41.9532L62.9453 41.916L62.9366 43.6509L70.2543 43.6881L70.263 41.9532Z" fill="white"/>
<path d="M80.0718 45.7554C83.8623 45.7554 86.9351 42.6826 86.9351 38.8921C86.9351 35.1016 83.8623 32.0288 80.0718 32.0288C76.2813 32.0288 73.2085 35.1016 73.2085 38.8921C73.2085 42.6826 76.2813 45.7554 80.0718 45.7554Z" fill="white"/>
<path d="M85.7914 38.9199C85.7864 39.9761 85.4889 41.0103 84.9321 41.9078C84.3752 42.8053 83.5806 43.5311 82.6364 44.0046C81.6922 44.4782 80.6353 44.6811 79.5829 44.5907C78.5304 44.5004 77.5235 44.1204 76.6739 43.4929C75.8242 42.8654 75.1649 42.0148 74.7692 41.0355C74.3734 40.0562 74.2566 38.9865 74.4317 37.9449C74.6067 36.9033 75.0669 35.9305 75.7611 35.1344C76.4553 34.3383 77.3564 33.75 78.3645 33.4347C78.6223 33.3538 78.8855 33.2916 79.1522 33.2486C79.4641 33.1975 79.7797 33.1721 80.0957 33.1729H80.2256C81.719 33.2136 83.1372 33.8374 84.1763 34.9108C85.2154 35.9842 85.7928 37.4217 85.7849 38.9156L85.7914 38.9199Z" fill="#D1D1D1"/>
<path d="M84.6473 35.003L80.0718 38.8923L80.0954 33.1729H80.237C81.0669 33.1931 81.884 33.3651 82.6402 33.6787C83.3964 33.9922 84.0764 34.441 84.6402 34.9987L84.6473 35.003Z" fill="#A8A8A8"/>
<path d="M85.7912 38.9936C85.7861 39.8938 85.5304 40.7777 85.0487 41.5609C84.567 42.3441 83.8753 43.0006 83.0397 43.4675L80.0718 38.9677L82.7583 34.3164C83.6782 34.7678 84.4466 35.4421 84.9808 36.2664C85.5149 37.0907 85.7944 38.0337 85.789 38.9936H85.7912Z" fill="#757575"/>
<path d="M80.072 38.8923L74.3525 36.9865C74.6646 36.1317 75.1809 35.3587 75.8601 34.7293C76.5394 34.0999 77.3628 33.6314 78.2646 33.3615C78.5371 33.2795 78.8154 33.2165 79.0974 33.1729L80.072 38.8923Z" fill="#BCBCBC"/>
<path d="M80.0719 33.1729L79.8784 38.8923L77.7842 33.4349C78.0999 33.354 78.4224 33.2917 78.7491 33.2487C79.1312 33.1975 79.5178 33.1721 79.9049 33.1729H80.0719Z" fill="#939393"/>
<path d="M88.8586 51.1604L45.9648 50.9424L45.8843 66.9162L88.7781 67.1343L88.8586 51.1604Z" fill="white"/>
<path d="M67.4098 51.0514L45.9629 50.9424L45.8824 66.9162L67.3293 67.0252L67.4098 51.0514Z" fill="white"/>
<path d="M88.8586 51.1604L45.9648 50.9424L45.9502 53.8556L88.8439 54.0737L88.8586 51.1604Z" fill="#636363"/>
<path d="M66.975 72.0522L44.7109 71.8286L44.4965 93.3695L66.7606 93.5932L66.975 72.0522Z" fill="white"/>
<path d="M67.7443 71.7187L45.4805 71.6055L45.4658 74.5187L67.7296 74.6319L67.7443 71.7187Z" fill="#636363"/>
<path d="M73.9653 83.2483L72.188 83.2393L72.1482 91.1433L73.9254 91.1523L73.9653 83.2483Z" fill="#6D6D6D"/>
<path d="M75.8989 78.573L74.1216 78.564L74.0582 91.151L75.8354 91.16L75.8989 78.573Z" fill="#686868"/>
<path d="M77.8134 77.1423L76.0361 77.1333L75.9654 91.1628L77.7427 91.1718L77.8134 77.1423Z" fill="#D1D1D1"/>
<path d="M79.7226 76.0959L77.9453 76.0869L77.8693 91.1704L79.6466 91.1794L79.7226 76.0959Z" fill="white"/>
<path d="M85.5128 91.2014L87.29 91.2104L87.3421 80.882L85.5648 80.873L85.5128 91.2014Z" fill="#6D6D6D"/>
<path d="M84.4092 90.7717L86.1865 90.7896L86.3104 78.3486L84.5331 78.3307L84.4092 90.7717Z" fill="white"/>
<path d="M81.6959 91.1814L83.4731 91.1904L83.5553 74.8893L81.778 74.8802L81.6959 91.1814Z" fill="#D1D1D1"/>
<path d="M80.5665 90.7707L82.3438 90.7886L82.5258 72.5079L80.7485 72.4901L80.5665 90.7707Z" fill="#686868"/>
<path d="M86.4339 92.4784L71.2769 92.3262L71.2748 92.5357L86.4318 92.6879L86.4339 92.4784Z" fill="white"/>
<path d="M66.0844 75.599L46.8906 75.5015L46.8851 76.5904L66.0789 76.688L66.0844 75.599Z" fill="#D1D1D1"/>
<path d="M66.0761 77.31L46.8823 77.2124L46.8768 78.3013L66.0706 78.3989L66.0761 77.31Z" fill="#D1D1D1"/>
<path d="M66.0653 79.0185L46.8716 78.9209L46.8661 80.0098L66.0599 80.1074L66.0653 79.0185Z" fill="#D1D1D1"/>
<path d="M66.0566 80.7294L46.8628 80.6318L46.8573 81.7207L66.0511 81.8183L66.0566 80.7294Z" fill="#D1D1D1"/>
<path d="M66.0483 82.4399L46.8545 82.3423L46.849 83.4312L66.0428 83.5288L66.0483 82.4399Z" fill="#D1D1D1"/>
<path d="M66.0414 84.1508L46.8477 84.0532L46.8422 85.1421L66.0359 85.2397L66.0414 84.1508Z" fill="#D1D1D1"/>
<path d="M66.0326 85.8617L46.8389 85.7642L46.8334 86.8531L66.0271 86.9507L66.0326 85.8617Z" fill="#D1D1D1"/>
<path d="M66.0243 87.5722L46.8306 87.4746L46.8251 88.5635L66.0188 88.6611L66.0243 87.5722Z" fill="#D1D1D1"/>
<path d="M65.1598 89.6068L45.9658 89.4141L45.955 90.503L65.149 90.6958L65.1598 89.6068Z" fill="#D1D1D1"/>
<path d="M65.1427 91.3173L45.9487 91.1245L45.9379 92.2135L65.1319 92.4062L65.1427 91.3173Z" fill="#D1D1D1"/>
<path d="M65.662 55.1296L47.1743 55.0356L47.1688 56.1246L65.6565 56.2186L65.662 55.1296Z" fill="#D1D1D1"/>
<path d="M65.6536 56.8406L47.166 56.7466L47.1605 57.8355L65.6482 57.9295L65.6536 56.8406Z" fill="#D1D1D1"/>
<path d="M65.6449 58.5515L47.1572 58.4575L47.1517 59.5465L65.6394 59.6404L65.6449 58.5515Z" fill="#D1D1D1"/>
<path d="M65.6341 60.262L47.1465 60.168L47.141 61.2569L65.6286 61.3509L65.6341 60.262Z" fill="#D1D1D1"/>
<path d="M65.6253 61.9734L47.1377 61.8794L47.1322 62.9683L65.6198 63.0623L65.6253 61.9734Z" fill="#D1D1D1"/>
<path d="M65.6165 63.6838L47.1289 63.5898L47.1234 64.6788L65.611 64.7728L65.6165 63.6838Z" fill="#D1D1D1"/>
<path d="M79.3755 55.2346L68.7661 55.1807L68.7606 56.2696L79.37 56.3235L79.3755 55.2346Z" fill="#D1D1D1"/>
<path d="M79.3672 56.945L68.7578 56.8911L68.7523 57.98L79.3617 58.034L79.3672 56.945Z" fill="#D1D1D1"/>
<path d="M79.3584 58.656L68.749 58.6021L68.7435 59.691L79.3529 59.7449L79.3584 58.656Z" fill="#D1D1D1"/>
<path d="M79.3496 60.3669L68.7402 60.313L68.7347 61.4019L79.3441 61.4558L79.3496 60.3669Z" fill="#D1D1D1"/>
<path d="M87.5731 55.276L81.105 55.2432L81.0995 56.3321L87.5677 56.365L87.5731 55.276Z" fill="#D1D1D1"/>
<path d="M87.5644 56.987L81.0962 56.9541L81.0907 58.043L87.5589 58.0759L87.5644 56.987Z" fill="#D1D1D1"/>
<path d="M86.8506 59.1275L80.3823 59.0625L80.3715 60.1514L86.8397 60.2164L86.8506 59.1275Z" fill="#D1D1D1"/>
<path d="M87.5473 60.4089L81.0791 60.376L81.0736 61.4649L87.5418 61.4978L87.5473 60.4089Z" fill="#D1D1D1"/>
<path d="M79.3408 62.0774L68.7314 62.0234L68.726 63.1124L79.3353 63.1663L79.3408 62.0774Z" fill="#D1D1D1"/>
<path d="M79.3325 63.7883L68.7231 63.7344L68.7177 64.8233L79.327 64.8772L79.3325 63.7883Z" fill="#D1D1D1"/>
</svg>
