<svg width="337" height="522" viewBox="0 0 337 522" fill="none" xmlns="http://www.w3.org/2000/svg">
<path d="M121.127 4.4873L130.636 25.509V4.4873H121.127Z" fill="#455A79"/>
<path d="M0 9.87061C0 9.87061 126.467 126.516 153.384 272.764L152.124 30.512V9.87061H0Z" fill="#64849D"/>
<path d="M0 9.87061C0 9.87061 126.467 126.516 153.384 272.764L152.124 30.512V9.87061H0Z" fill="url(#paint0_linear_38_212)"/>
<path d="M246.696 29.6161L245.069 63.9907L244.64 72.9988L226.285 460.519L223.391 521.613H179.019L174.917 501.556L136.444 518.223L117.435 459.696V425.596L148.426 361.722C159.462 309.242 150.691 263.822 150.691 263.822C150.599 261.853 150.451 259.828 150.253 257.751C143.171 183.155 70.4867 41.6475 63.568 28.3186C63.2229 27.6499 63.041 27.3047 63.041 27.3047L152.124 28.4265L246.696 29.6161Z" fill="#9FB6C6"/>
<path d="M246.696 29.6161L245.069 63.9907L244.64 72.9988L226.285 460.519L223.391 521.613H179.019L174.917 501.556L136.444 518.223L117.435 459.696V425.596L148.426 361.722C159.462 309.242 150.691 263.822 150.691 263.822C150.599 261.853 150.451 259.828 150.253 257.751C143.171 183.155 70.4867 41.6475 63.568 28.3186C63.2229 27.6499 63.041 27.3047 63.041 27.3047L152.124 28.4265L246.696 29.6161Z" fill="url(#paint1_linear_38_212)"/>
<path d="M246.696 29.6161L245.069 63.9907L244.64 72.9988L226.285 460.519L223.391 521.613H179.019L174.917 501.556L136.444 518.223L117.435 459.696V425.596L148.426 361.722C159.462 309.242 150.691 263.822 150.691 263.822C150.599 261.853 150.451 259.828 150.253 257.751C143.171 183.155 70.4867 41.6475 63.568 28.3186C63.2229 27.6499 63.041 27.3047 63.041 27.3047L152.124 28.4265L246.696 29.6161Z" fill="url(#paint2_linear_38_212)"/>
<path d="M337.071 71.3872V521.613H211.219L202.251 464.187L153.271 150.562V150.553L152.732 147.098V147.095L150.076 130.099L149.783 128.21L149.213 124.555L138.544 56.2555C138.54 56.2524 138.54 56.2462 138.54 56.2432L138.414 55.4172L152.261 56.5298L245.07 63.9909L337.071 71.3872Z" fill="#D0DCEC"/>
<path d="M337.071 71.3872V521.613H211.219L202.251 464.187L153.271 150.562V150.553L152.732 147.098V147.095L150.076 130.099L149.783 128.21L149.213 124.555L138.544 56.2555C138.54 56.2524 138.54 56.2462 138.54 56.2432L138.414 55.4172L152.261 56.5298L245.07 63.9909L337.071 71.3872Z" fill="url(#paint3_linear_38_212)"/>
<path d="M337.071 0V73.0638H254.46C251.153 73.0638 247.877 73.0422 244.641 72.999C204.657 72.4936 170.44 68.9002 152.297 63.7936C144.26 61.5316 139.378 58.9737 138.543 56.2555C138.54 56.2524 138.54 56.2463 138.54 56.2432C138.457 55.9689 138.414 55.6946 138.414 55.4173C138.414 52.2954 143.289 49.7744 152.214 47.6942C160.612 45.7342 172.591 44.1686 187.464 42.8558C197.634 41.959 208.698 41.959 219.284 40.9635C220.59 40.8402 226.581 40.6492 226.794 38.757C227.022 36.7045 222.704 36.8 221.506 36.6613C217.2 36.159 212.849 35.9864 208.519 35.8261C201.092 35.5519 193.295 35.5765 185.874 35.8908C175.476 36.3315 164.079 36.575 152.171 36.575H152.155C106.23 36.575 68.4225 32.96 63.5687 28.3188C63.2204 27.986 63.0416 27.647 63.0416 27.3049C63.0416 24.8918 71.8988 22.6945 86.408 21.0457C93.2589 20.266 100.455 19.8192 107.349 19.7329C115.023 19.6343 122.003 19.3877 127.707 19.0364C128.724 18.9747 129.704 18.907 130.635 18.8392C138.216 18.2752 142.892 17.5109 142.892 16.6819C142.892 15.8529 138.216 15.104 130.635 14.5554C129.057 14.4414 127.353 14.3366 125.538 14.2411C118.434 13.8651 109.645 13.6463 100.131 13.6463L72.6754 13.6555C47.2042 13.6555 24.7963 12.9745 11.8188 11.939C5.75991 11.4582 1.75663 10.9004 0.459188 10.2994C0.456106 10.2963 0.456103 10.2963 0.456103 10.2963C0.154085 10.1577 0 10.0159 0 9.87105C0 9.00198 5.63048 8.20071 15.0978 7.56278C28.3866 6.66597 49.2351 6.08659 72.6754 6.08659H125.088C122.992 5.67979 121.67 5.24525 121.263 4.78914C121.174 4.68744 121.128 4.58883 121.128 4.48713C121.128 2.00934 148.242 0 181.689 0H337.071Z" fill="white"/>
<path opacity="0.6" d="M337.071 0V73.0638H254.46C251.153 73.0638 247.877 73.0422 244.641 72.999C204.657 72.4936 170.44 68.9002 152.297 63.7936C144.26 61.5316 139.378 58.9737 138.543 56.2555C138.54 56.2524 138.54 56.2463 138.54 56.2432C138.457 55.9689 138.414 55.6946 138.414 55.4173C138.414 52.2954 143.289 49.7744 152.214 47.6942C160.612 45.7342 172.591 44.1686 187.464 42.8558C197.634 41.959 208.698 41.959 219.284 40.9635C220.59 40.8402 226.581 40.6492 226.794 38.757C227.022 36.7045 222.704 36.8 221.506 36.6613C217.2 36.159 212.849 35.9864 208.519 35.8261C201.092 35.5519 193.295 35.5765 185.874 35.8908C175.476 36.3315 164.079 36.575 152.171 36.575H152.155C106.23 36.575 68.4225 32.96 63.5687 28.3188C63.2204 27.986 63.0416 27.647 63.0416 27.3049C63.0416 24.8918 71.8988 22.6945 86.408 21.0457C93.2589 20.266 100.455 19.8192 107.349 19.7329C115.023 19.6343 122.003 19.3877 127.707 19.0364C128.724 18.9747 129.704 18.907 130.635 18.8392C138.216 18.2752 142.892 17.5109 142.892 16.6819C142.892 15.8529 138.216 15.104 130.635 14.5554C129.057 14.4414 127.353 14.3366 125.538 14.2411C118.434 13.8651 109.645 13.6463 100.131 13.6463L72.6754 13.6555C47.2042 13.6555 24.7963 12.9745 11.8188 11.939C5.75991 11.4582 1.75663 10.9004 0.459188 10.2994C0.456106 10.2963 0.456103 10.2963 0.456103 10.2963C0.154085 10.1577 0 10.0159 0 9.87105C0 9.00198 5.63048 8.20071 15.0978 7.56278C28.3866 6.66597 49.2351 6.08659 72.6754 6.08659H125.088C122.992 5.67979 121.67 5.24525 121.263 4.78914C121.174 4.68744 121.128 4.58883 121.128 4.48713C121.128 2.00934 148.242 0 181.689 0H337.071Z" fill="url(#paint4_linear_38_212)"/>
<path d="M146.025 127.088L161.945 178.649C167.701 197.457 193.601 223.116 213.138 225.397V132.359L186.75 133.19L151.522 128.727L146.025 127.088Z" fill="#D0DCEC"/>
<path d="M149.215 124.553C160.364 128.187 175.865 130.957 193.107 132.003C200.096 132.427 206.828 132.53 213.139 132.359C209.459 134.845 195.834 136.038 179.701 135.059C160.895 133.918 145.815 130.261 146.02 126.889C146.074 125.99 147.22 125.203 149.215 124.553Z" fill="white"/>
<defs>
<linearGradient id="paint0_linear_38_212" x1="-0.000123273" y1="141.317" x2="153.383" y2="141.317" gradientUnits="userSpaceOnUse">
<stop stop-color="white"/>
<stop offset="1" stop-color="#64849D"/>
</linearGradient>
<linearGradient id="paint1_linear_38_212" x1="63.041" y1="274.459" x2="246.696" y2="274.459" gradientUnits="userSpaceOnUse">
<stop stop-color="white"/>
<stop offset="1" stop-color="#9FB6C6"/>
</linearGradient>
<linearGradient id="paint2_linear_38_212" x1="153.538" y1="126.905" x2="262.087" y2="574.958" gradientUnits="userSpaceOnUse">
<stop stop-color="white"/>
<stop offset="1" stop-color="#9FB6C6"/>
</linearGradient>
<linearGradient id="paint3_linear_38_212" x1="208.788" y1="288.515" x2="334.68" y2="288.515" gradientUnits="userSpaceOnUse">
<stop stop-color="white"/>
<stop offset="1" stop-color="#9FB6C6"/>
</linearGradient>
<linearGradient id="paint4_linear_38_212" x1="0" y1="36.5319" x2="337.071" y2="36.5319" gradientUnits="userSpaceOnUse">
<stop stop-color="white"/>
<stop offset="1" stop-color="#9FB6C6"/>
</linearGradient>
</defs>
</svg>
