<svg width="211" height="209" viewBox="0 0 211 209" fill="none" xmlns="http://www.w3.org/2000/svg">
<path opacity="0.2" d="M141.302 161.967L105.71 29.9736C104.998 27.3246 102.428 25.8079 99.9836 26.5766L3.33239 56.9416C0.878089 57.7103 -0.527116 60.484 0.185112 63.1226L35.7772 195.116C36.4895 197.765 39.0592 199.282 41.5039 198.513L138.155 168.148C140.609 167.39 142.024 164.616 141.302 161.967Z" fill="#3A7EC1"/>
<path d="M141.851 160.243L45.1998 190.608C42.7455 191.376 40.1853 189.86 39.4731 187.211L3.87136 55.2068C3.15913 52.5578 4.56434 49.7945 7.01863 49.0258L103.67 18.6609C106.124 17.8921 108.684 19.4088 109.396 22.0578L144.989 154.051C145.71 156.7 144.296 159.474 141.851 160.243Z" fill="white"/>
<path d="M107.106 42.0032L106.846 41.0475L15.4691 69.7503L15.96 71.589L18.0774 79.4322L18.5683 81.2709L20.6857 89.1141L21.1766 90.9528L23.294 98.7959L23.7849 100.635L25.9023 108.478L26.3931 110.317L28.5106 118.16L29.0014 119.998L31.1189 127.842L31.6097 129.68L122.987 100.977L122.919 100.718L107.106 42.0032ZM77.1056 81.8838L69.839 84.1692L67.7216 76.3261L74.9882 74.0407L77.1056 81.8838ZM76.6918 73.5005L83.9584 71.215L86.0759 79.0582L78.8092 81.3436L76.6918 73.5005ZM68.1354 84.699L60.8688 86.9845L58.7514 79.1413L66.018 76.8559L68.1354 84.699ZM59.1652 87.5143L51.8986 89.7997L49.7811 81.9565L57.0478 79.6711L59.1652 87.5143ZM59.6657 89.353L61.7831 97.1961L54.5165 99.4815L52.3991 91.6384L59.6657 89.353ZM61.3693 88.8232L68.6359 86.5378L70.7533 94.3809L63.4867 96.6663L61.3693 88.8232ZM70.3299 85.9976L77.5965 83.7121L79.7139 91.5553L72.4473 93.8407L70.3299 85.9976ZM79.3001 83.1823L86.5667 80.8969L88.6842 88.7401L81.4175 91.0255L79.3001 83.1823ZM88.2703 80.3671L95.5369 78.0817L97.6544 85.9248L90.3877 88.2103L88.2703 80.3671ZM87.7698 78.5284L85.6524 70.6852L92.919 68.3998L95.0364 76.243L87.7698 78.5284ZM85.1615 68.8569L83.0441 61.0138L90.3107 58.7283L92.4282 66.5715L85.1615 68.8569ZM83.4579 69.3867L76.1913 71.6721L74.0739 63.829L81.3405 61.5436L83.4579 69.3867ZM74.4974 72.2019L67.2307 74.4874L65.1133 66.6442L72.3799 64.3588L74.4974 72.2019ZM65.5271 75.0171L58.2605 77.3026L56.1431 69.4594L63.4097 67.174L65.5271 75.0171ZM56.5569 77.8428L49.2903 80.1282L47.1729 72.285L54.4395 69.9996L56.5569 77.8428ZM47.5963 80.658L40.3297 82.9434L38.2123 75.1003L45.4789 72.8148L47.5963 80.658ZM48.0872 82.4863L50.2046 90.3295L42.938 92.6149L40.8206 84.7717L48.0872 82.4863ZM50.6955 92.1682L52.8129 100.011L45.5463 102.297L43.4288 94.4536L50.6955 92.1682ZM53.3038 101.85L55.4212 109.693L48.1546 111.979L46.0371 104.135L53.3038 101.85ZM55.0074 101.31L62.274 99.0245L64.3914 106.868L57.1248 109.153L55.0074 101.31ZM63.9776 98.4947L71.2442 96.2092L73.3616 104.052L66.095 106.338L63.9776 98.4947ZM72.9478 95.6794L80.2144 93.394L82.3319 101.237L75.0652 103.523L72.9478 95.6794ZM81.9084 92.8642L89.175 90.5788L91.2924 98.4219L84.0258 100.707L81.9084 92.8642ZM90.8786 90.049L98.1452 87.7636L100.263 95.6067L92.996 97.8921L90.8786 90.049ZM99.8488 87.2338L107.115 84.9484L109.233 92.7915L101.966 95.0769L99.8488 87.2338ZM99.3483 85.395L97.2309 77.5519L104.498 75.2665L106.615 83.1096L99.3483 85.395ZM96.74 75.7132L94.6226 67.87L101.889 65.5846L104.007 73.4277L96.74 75.7132ZM94.1317 66.0313L92.0143 58.1881L99.2809 55.9027L101.398 63.7459L94.1317 66.0313ZM91.5234 56.3598L89.406 48.5167L96.6726 46.2312L98.7901 54.0744L91.5234 56.3598ZM89.8199 56.8896L82.5532 59.175L80.4358 51.3319L87.7024 49.0465L89.8199 56.8896ZM80.8496 59.7048L73.583 61.9903L71.4656 54.1471L78.7322 51.8617L80.8496 59.7048ZM71.8891 62.5201L64.6224 64.8055L62.505 56.9623L69.7716 54.6769L71.8891 62.5201ZM62.9188 65.3457L55.6522 67.6311L53.5348 59.7879L60.8014 57.5025L62.9188 65.3457ZM53.9486 68.1609L46.682 70.4463L44.5646 62.6032L51.8312 60.3177L53.9486 68.1609ZM44.9784 70.9761L37.7118 73.2615L35.5943 65.4184L42.861 63.133L44.9784 70.9761ZM36.0178 73.7913L28.7512 76.0768L26.6338 68.2336L33.9004 65.9482L36.0178 73.7913ZM36.5087 75.6301L38.6261 83.4732L31.3595 85.7586L29.242 77.9155L36.5087 75.6301ZM39.117 85.3119L41.2344 93.1551L33.9678 95.4405L31.8503 87.5974L39.117 85.3119ZM41.7253 94.9834L43.8427 102.827L36.5761 105.112L34.4586 97.2688L41.7253 94.9834ZM44.3432 104.665L46.4606 112.508L39.194 114.794L37.0766 106.951L44.3432 104.665ZM46.9515 114.347L49.0689 122.19L41.8023 124.476L39.6848 116.633L46.9515 114.347ZM48.6454 113.807L55.9121 111.522L58.0295 119.365L50.7629 121.65L48.6454 113.807ZM57.6156 110.992L64.8823 108.706L66.9997 116.549L59.7331 118.835L57.6156 110.992ZM66.5859 108.177L73.8525 105.891L75.9699 113.734L68.7033 116.02L66.5859 108.177ZM75.5561 105.361L82.8227 103.076L84.9401 110.919L77.6735 113.204L75.5561 105.361ZM84.5167 102.546L91.7833 100.261L93.9007 108.104L86.6341 110.389L84.5167 102.546ZM93.4869 99.7309L100.754 97.4454L102.871 105.289L95.6043 107.574L93.4869 99.7309ZM102.457 96.9053L109.724 94.6198L111.841 102.463L104.575 104.748L102.457 96.9053ZM111.427 94.09L118.694 91.8046L120.811 99.6478L113.545 101.933L111.427 94.09ZM110.927 92.2513L108.809 84.4082L116.076 82.1227L118.193 89.9659L110.927 92.2513ZM108.319 82.5798L106.201 74.7367L113.468 72.4513L115.585 80.2944L108.319 82.5798ZM105.71 72.8979L103.593 65.0548L110.859 62.7694L112.977 70.6125L105.71 72.8979ZM103.102 63.2161L100.984 55.3729L108.251 53.0875L110.369 60.9306L103.102 63.2161ZM100.484 53.5446L98.3666 45.7014L105.633 43.416L107.751 51.2592L100.484 53.5446ZM17.6635 71.0488L24.9302 68.7634L27.0476 76.6066L19.781 78.892L17.6635 71.0488ZM20.2718 80.7307L27.5385 78.4453L29.6559 86.2884L22.3893 88.5739L20.2718 80.7307ZM22.8801 90.4126L30.1468 88.1272L32.2642 95.9703L24.9976 98.2557L22.8801 90.4126ZM25.498 100.084L32.7647 97.7986L34.8821 105.642L27.6155 107.927L25.498 100.084ZM28.1063 109.766L35.373 107.481L37.4904 115.324L30.2238 117.609L28.1063 109.766ZM30.7146 119.448L37.9813 117.162L40.0987 125.006L32.8321 127.291L30.7146 119.448Z" fill="#E4ECF9"/>
<path d="M38.6646 117.484C38.347 117.578 38.0005 117.547 37.7021 117.36C37.1054 116.986 36.9033 116.176 37.2401 115.531L44.0255 102.785C44.1892 102.484 44.449 102.266 44.757 102.162L53.3134 99.4712L59.0978 87.5558C59.2518 87.2338 59.5213 86.9948 59.8389 86.891C60.1565 86.8079 60.503 86.8286 60.7917 86.9948L70.9169 93.0097L74.3722 72.5967C74.4492 72.1708 74.6994 71.8072 75.0652 71.6202C75.4213 71.4332 75.8448 71.454 76.2009 71.6618L86.5956 77.8947L92.5244 66.5092L98.7997 54.0121C99.1269 53.3576 99.8776 53.1187 100.484 53.4719C101.09 53.8251 101.312 54.6354 100.984 55.2898L94.6995 67.8077L88.1548 80.3671C87.8179 81.0112 87.0672 81.2397 86.4704 80.8865L76.5089 74.9444L73.0632 95.347C72.9959 95.7729 72.736 96.1365 72.3703 96.3131C72.0141 96.5001 71.5907 96.4897 71.2345 96.282L60.7051 90.0282L55.2672 101.227C55.1132 101.549 54.8341 101.788 54.5165 101.892L45.9312 104.593L39.3961 116.872C39.2324 117.173 38.9629 117.391 38.6646 117.484Z" fill="#F4B545"/>
<path d="M40.4668 117.309C41.0962 116.072 40.6773 114.518 39.5311 113.839C38.385 113.159 36.9457 113.612 36.3163 114.849C35.687 116.086 36.1059 117.639 37.252 118.319C38.3982 118.998 39.8375 118.546 40.4668 117.309Z" fill="#5899F9"/>
<path d="M39.336 116.639C39.6225 116.076 39.4317 115.369 38.91 115.06C38.3882 114.75 37.733 114.956 37.4466 115.519C37.1601 116.082 37.3509 116.789 37.8726 117.099C38.3944 117.408 39.0496 117.202 39.336 116.639Z" fill="white"/>
<path d="M47.2023 105.185C47.8317 103.948 47.4127 102.394 46.2666 101.715C45.1205 101.035 43.6811 101.488 43.0518 102.725C42.4224 103.962 42.8413 105.515 43.9875 106.195C45.1336 106.874 46.5729 106.422 47.2023 105.185Z" fill="#5899F9"/>
<path d="M46.1623 103.637C46.3259 104.249 45.9986 104.893 45.4308 105.08C44.8629 105.257 44.2662 104.903 44.093 104.291C43.9293 103.678 44.2566 103.034 44.8244 102.847C45.4019 102.66 45.9986 103.014 46.1623 103.637Z" fill="white"/>
<path d="M56.3086 102.325C56.9379 101.088 56.519 99.5348 55.3729 98.8555C54.2267 98.1762 52.7874 98.6284 52.158 99.8654C51.5287 101.103 51.9476 102.656 53.0937 103.335C54.2399 104.015 55.6792 103.562 56.3086 102.325Z" fill="#5899F9"/>
<path d="M55.2672 100.77C55.4308 101.382 55.1036 102.026 54.5357 102.213C53.9678 102.39 53.3711 102.036 53.1979 101.424C53.0343 100.811 53.3615 100.167 53.9293 99.9804C54.4972 99.7934 55.1036 100.157 55.2672 100.77Z" fill="white"/>
<path d="M62.4036 90.0832C63.033 88.8461 62.6141 87.2926 61.4679 86.6133C60.3218 85.934 58.8825 86.3862 58.2531 87.6233C57.6238 88.8603 58.0427 90.4138 59.1888 91.0931C60.335 91.7724 61.7743 91.3203 62.4036 90.0832Z" fill="#5899F9"/>
<path d="M60.7037 89.9403C61.2612 89.7149 61.5439 89.0445 61.3351 88.443C61.1263 87.8415 60.5052 87.5366 59.9477 87.762C59.3903 87.9874 59.1076 88.6578 59.3164 89.2593C59.5252 89.8608 60.1463 90.1657 60.7037 89.9403Z" fill="white"/>
<path d="M74.0647 96.8116C74.6941 95.5745 74.2751 94.021 73.129 93.3417C71.9828 92.6624 70.5435 93.1146 69.9142 94.3516C69.2848 95.5887 69.7037 97.1422 70.8499 97.8215C71.996 98.5008 73.4353 98.0487 74.0647 96.8116Z" fill="#5899F9"/>
<path d="M73.0248 95.2533C73.1884 95.8659 72.8612 96.5097 72.2933 96.6967C71.7254 96.8732 71.1287 96.5201 70.9555 95.9075C70.7919 95.2948 71.1191 94.651 71.6869 94.464C72.2644 94.2875 72.8612 94.6406 73.0248 95.2533Z" fill="white"/>
<path d="M77.8062 74.5511C78.4355 73.314 78.0166 71.7605 76.8705 71.0812C75.7243 70.4019 74.285 70.8541 73.6556 72.0911C73.0263 73.3282 73.4452 74.8817 74.5913 75.561C75.7375 76.2403 77.1768 75.7881 77.8062 74.5511Z" fill="#5899F9"/>
<path d="M76.6754 73.8815C76.9619 73.3185 76.7711 72.6113 76.2494 72.3021C75.7276 71.9929 75.0724 72.1986 74.7859 72.7616C74.4995 73.3247 74.6903 74.0318 75.212 74.3411C75.7338 74.6503 76.389 74.4445 76.6754 73.8815Z" fill="white"/>
<path d="M89.308 80.9243C89.9373 79.6872 89.5184 78.1337 88.3723 77.4544C87.2261 76.7751 85.7868 77.2272 85.1574 78.4643C84.5281 79.7014 84.947 81.2549 86.0931 81.9342C87.2393 82.6135 88.6786 82.1613 89.308 80.9243Z" fill="#5899F9"/>
<path d="M88.2799 79.3696C88.4435 79.9823 88.1163 80.6261 87.5484 80.813C86.9806 80.9895 86.3838 80.6365 86.2106 80.0238C86.047 79.4111 86.3742 78.7673 86.9421 78.5804C87.5099 78.4039 88.1067 78.7569 88.2799 79.3696Z" fill="white"/>
<path d="M95.2633 69.1608C96.2158 68.1939 96.2617 66.5766 95.3658 65.5486C94.47 64.5205 92.9716 64.471 92.0191 65.4379C91.0667 66.4049 91.0208 68.0221 91.9166 69.0502C92.8125 70.0782 94.3108 70.1277 95.2633 69.1608Z" fill="#5899F9"/>
<path d="M94.0201 68.3842C94.5775 68.1588 94.8602 67.4885 94.6514 66.887C94.4427 66.2855 93.8215 65.9806 93.2641 66.206C92.7066 66.4314 92.4239 67.1018 92.6327 67.7033C92.8415 68.3048 93.4626 68.6096 94.0201 68.3842Z" fill="white"/>
<path d="M101.987 55.9543C102.617 54.7172 102.198 53.1637 101.052 52.4844C99.9055 51.8051 98.4662 52.2573 97.8369 53.4943C97.2075 54.7314 97.6264 56.2849 98.7726 56.9642C99.9187 57.6435 101.358 57.1914 101.987 55.9543Z" fill="#5899F9"/>
<path d="M100.946 54.3962C101.11 55.0089 100.782 55.6527 100.215 55.8396C99.6466 56.0161 99.0499 55.6631 98.8767 55.0504C98.7131 54.4377 99.0403 53.7939 99.6082 53.607C100.186 53.4305 100.782 53.7835 100.946 54.3962Z" fill="white"/>
<path d="M42.3509 54.3757L16.0947 62.624C14.7954 63.0292 13.4383 62.2293 13.0629 60.8269C12.6876 59.4244 13.4287 57.9597 14.728 57.5546L40.9842 49.3063C42.2835 48.9011 43.6406 49.701 44.0159 51.1034C44.3913 52.5059 43.6406 53.9706 42.3509 54.3757Z" fill="#52D1BD"/>
<path d="M63.5252 132.901L37.269 141.149C35.9697 141.554 34.6126 140.754 34.2373 139.352C33.8619 137.949 34.603 136.485 35.9023 136.08L62.1585 127.831C63.4578 127.426 64.8149 128.226 65.1903 129.628C65.5656 131.031 64.8149 132.496 63.5252 132.901Z" fill="#E4ECF9"/>
<path d="M127.087 125.567L52.2932 149.065C50.9939 149.47 49.6368 148.67 49.2614 147.268C48.8861 145.865 49.6272 144.4 50.9265 143.995L125.72 120.497C127.019 120.092 128.376 120.892 128.752 122.294C129.137 123.697 128.386 125.161 127.087 125.567Z" fill="#E4ECF9"/>
<path d="M130.234 137.212L43.5539 164.439C42.2546 164.845 40.8975 164.045 40.5222 162.642C40.1468 161.24 40.8879 159.775 42.1872 159.37L128.867 132.142C130.167 131.737 131.524 132.537 131.899 133.94C132.274 135.342 131.533 136.807 130.234 137.212Z" fill="#E4ECF9"/>
<path d="M133.372 148.868L46.6916 176.095C45.3923 176.5 44.0352 175.7 43.6599 174.298C43.2845 172.896 44.0256 171.431 45.3249 171.026L132.005 143.798C133.304 143.393 134.661 144.193 135.037 145.595C135.412 146.998 134.671 148.462 133.372 148.868Z" fill="#E4ECF9"/>
<path opacity="0.2" d="M185.364 9.76845C185.268 7.01555 183.122 4.86518 180.571 4.96906L79.9834 9.06205C77.4329 9.16593 75.4406 11.4825 75.5368 14.2354L80.3203 151.61C80.4165 154.363 82.5628 156.513 85.1134 156.409L185.701 152.327C188.252 152.223 190.244 149.906 190.148 147.153L185.364 9.76845Z" fill="#3A7EC1"/>
<path d="M189.397 147.351L88.8093 151.434C86.2588 151.537 84.1125 149.387 84.0162 146.634L79.2231 9.25957C79.1269 6.50667 81.1192 4.19008 83.6697 4.0862L184.257 0.00361089C186.808 -0.100272 188.954 2.0501 189.05 4.80299L193.844 142.178C193.94 144.93 191.948 147.247 189.397 147.351Z" fill="white"/>
<path d="M160.985 55.1549C156.211 45.1199 146.355 38.4194 135.248 38.8765C131.62 39.0219 128.174 39.9257 125.046 41.432C114.998 46.2626 108.145 57.3469 108.578 69.9167C109.011 82.3099 116.403 92.6878 126.548 96.8119C129.897 98.1728 133.545 98.8584 137.337 98.7026C139.599 98.6091 141.784 98.2247 143.862 97.5911C143.872 97.5911 143.891 97.5807 143.901 97.5807C155.893 93.8825 164.498 81.7074 164.007 67.6624C163.853 63.1539 162.775 58.9155 160.985 55.1549ZM142.101 90.766C142.092 90.766 142.082 90.7764 142.072 90.7764C140.484 91.2646 138.81 91.5555 137.087 91.6282C134.19 91.7425 131.408 91.223 128.848 90.1842C121.11 87.0366 115.46 79.1103 115.133 69.6466C114.796 60.0478 120.032 51.5814 127.703 47.8935C130.09 46.7404 132.727 46.0548 135.499 45.9405C143.978 45.5977 151.505 50.7088 155.143 58.3753C156.509 61.2529 157.327 64.4836 157.453 67.9221C157.828 78.6428 151.264 87.9404 142.101 90.766Z" fill="#E4ECF9"/>
<path d="M160.985 55.1549L155.143 58.3857C151.495 50.7295 143.978 45.6081 135.499 45.9509C132.727 46.0652 130.099 46.7508 127.703 47.9039L125.046 41.432C128.174 39.9257 131.62 39.0323 135.248 38.8765C146.355 38.4194 156.211 45.1199 160.985 55.1549Z" fill="#5899F9"/>
<path d="M164.007 67.6623C164.498 81.6968 155.893 93.8823 143.901 97.5805C143.891 97.5805 143.872 97.5909 143.863 97.5909L142.072 90.7762C142.082 90.7762 142.092 90.7658 142.101 90.7658C151.264 87.9506 157.828 78.6531 157.453 67.9324C157.337 64.4938 156.509 61.2631 155.143 58.3855L160.985 55.1548C162.775 58.9153 163.853 63.1538 164.007 67.6623Z" fill="#52D1BD"/>
<path d="M143.901 97.5702C143.891 97.5702 143.872 97.5806 143.863 97.5806C141.784 98.2142 139.589 98.5986 137.337 98.6921C133.545 98.8479 129.897 98.1623 126.548 96.8014L128.858 90.1737C131.418 91.2125 134.199 91.732 137.096 91.6177C138.819 91.545 140.494 91.2541 142.082 90.7658C142.092 90.7658 142.101 90.7554 142.111 90.7554L143.901 97.5702Z" fill="#F4B545"/>
<path d="M147.068 79.5778C146.615 80.1076 146.134 80.5958 145.624 81.0321C140.051 85.9977 131.793 85.8731 126.336 80.4608C126.317 80.4504 126.307 80.44 126.288 80.4192C121.976 76.0977 120.609 69.6362 122.284 63.9642C122.919 61.8138 123.988 59.7673 125.508 58.0013C126.346 57.0352 127.26 56.2042 128.242 55.5082C131.273 53.3578 134.902 52.5475 138.386 53.0877C141.245 53.524 144.007 54.8745 146.288 57.1599C152.236 63.1124 152.592 73.1474 147.068 79.5778Z" fill="#E4ECF9"/>
<path d="M120.455 18.3909L93.1308 19.5024C91.7833 19.5544 90.6476 18.4221 90.5995 16.9677C90.5514 15.5133 91.6005 14.2875 92.9479 14.2356L120.272 13.124C121.62 13.0721 122.756 14.2044 122.804 15.6588C122.861 17.1131 121.812 18.3389 120.455 18.3909Z" fill="#F4B545"/>
<path d="M176.327 27.3352L93.4773 30.701C92.1298 30.753 90.9941 29.6206 90.946 28.1663C90.8979 26.7119 91.947 25.4861 93.2944 25.4342L176.144 22.0684C177.491 22.0164 178.627 23.1488 178.675 24.6031C178.733 26.0575 177.684 27.2833 176.327 27.3352Z" fill="#E4ECF9"/>
<path d="M138.386 53.0876L136.288 68.7843L122.294 63.9642C122.929 61.8138 123.997 59.7673 125.518 58.0013C126.355 57.0352 127.27 56.2041 128.251 55.5081C131.273 53.3577 134.902 52.5371 138.386 53.0876Z" fill="#52D1BD"/>
<path d="M147.068 79.5778C146.615 80.1076 146.134 80.5958 145.624 81.0321C142.813 77.3235 136.288 68.774 136.288 68.774L138.386 53.0773C141.245 53.5136 144.007 54.8641 146.288 57.1495C152.236 63.1123 152.592 73.1474 147.068 79.5778Z" fill="#5899F9"/>
<path d="M106.809 106.822L93.7001 107.354L94.8053 139.047L107.915 138.515L106.809 106.822Z" fill="#F4B545"/>
<path d="M125.917 118.888L112.807 119.421L113.465 138.283L126.574 137.751L125.917 118.888Z" fill="#E4ECF9"/>
<path d="M144.443 114.194L131.334 114.727L132.129 137.523L145.238 136.991L144.443 114.194Z" fill="#F4B545"/>
<path d="M163.474 124.07L150.365 124.602L150.789 136.769L163.898 136.236L163.474 124.07Z" fill="#E4ECF9"/>
<path d="M181.623 108.762L168.513 109.295L169.445 136.005L182.554 135.473L181.623 108.762Z" fill="#F4B545"/>
<g opacity="0.2">
<path d="M180.843 98.2837L175.913 103.118L181.901 110.23L186.83 105.395L180.843 98.2837Z" fill="#3A7EC1"/>
<path d="M147.27 63.746C137.443 73.3967 136.711 89.8206 145.643 100.437C154.584 111.054 169.791 111.844 179.638 102.193C189.474 92.5423 190.205 76.1185 181.264 65.5016C172.332 54.8848 157.106 54.1057 147.27 63.746ZM178.04 68.6701C185.364 77.365 184.758 90.8179 176.702 98.7233C168.646 106.629 156.182 105.974 148.858 97.2898C141.533 88.5948 142.13 75.1316 150.186 67.2365C158.251 59.3206 170.725 59.9751 178.04 68.6701Z" fill="#3A7EC1"/>
<path d="M208.983 133.056L205.297 136.672C204.132 137.814 202.323 137.721 201.264 136.464L179.541 110.659L187.453 102.899L209.176 128.704C210.234 129.961 210.148 131.903 208.983 133.056Z" fill="#3A7EC1"/>
</g>
<path opacity="0.2" d="M179.333 94.1857C187.617 85.2444 187.617 70.7478 179.333 61.8065C171.049 52.8652 157.618 52.8652 149.334 61.8065C141.05 70.7478 141.05 85.2444 149.334 94.1857C157.618 103.127 171.049 103.127 179.333 94.1857Z" fill="#4684AF"/>
<path opacity="0.6" d="M180.08 80.3776C180.032 80.3776 179.994 80.3776 179.945 80.3776C179.426 80.3361 179.031 79.8374 179.07 79.2765C179.099 78.8609 179.118 78.4454 179.118 78.0195C179.127 69.2206 172.506 62.0423 164.344 62.0319C163.006 62.0319 161.678 62.2189 160.407 62.6033C159.907 62.7487 159.378 62.4267 159.243 61.8865C159.108 61.3463 159.397 60.775 159.907 60.6295C161.351 60.2036 162.842 59.9854 164.353 59.9958C173.555 60.0062 181.033 68.0987 181.014 78.0299C181.014 78.5077 180.995 78.9752 180.966 79.4427C180.927 79.9517 180.542 80.3465 180.08 80.3776Z" fill="white"/>
<path d="M181.72 93.3086L176.79 98.1429L182.777 105.255L187.707 100.42L181.72 93.3086Z" fill="#545454"/>
<path d="M148.145 58.7701C138.319 68.4208 137.587 84.8446 146.519 95.4615C155.46 106.078 170.667 106.868 180.513 97.2171C190.35 87.5664 191.081 71.1425 182.14 60.5257C173.208 49.9089 157.982 49.1297 148.145 58.7701ZM178.925 63.6941C186.25 72.3891 185.643 85.8419 177.587 93.7474C169.532 101.653 157.068 100.998 149.743 92.3138C142.419 83.6188 143.016 70.1556 151.071 62.2605C159.137 54.3447 171.601 54.9991 178.925 63.6941Z" fill="#606060"/>
<path d="M209.859 128.07L206.173 131.685C205.008 132.828 203.199 132.734 202.14 131.477L180.417 105.673L188.329 97.913L210.051 123.717C211.11 124.985 211.024 126.927 209.859 128.07Z" fill="#606060"/>
<path opacity="0.2" d="M132.775 152.171C124.142 152.96 117.549 158.83 118.059 165.281C118.184 166.922 118.761 168.439 119.695 169.779L105.643 182.162C103.506 181.58 101.129 181.362 98.6457 181.591C90.0124 182.38 83.4195 188.249 83.9296 194.701C84.4397 201.152 91.8411 205.743 100.474 204.954C109.108 204.164 115.701 198.295 115.191 191.844C114.921 188.468 112.765 185.6 109.531 183.751L122.332 172.48C125.402 174.755 129.81 175.981 134.604 175.545C143.237 174.755 149.83 168.886 149.32 162.435C148.819 155.973 141.408 151.381 132.775 152.171Z" fill="#3A7EC1"/>
<path d="M138.184 160.357C137.443 161.032 136.326 160.918 135.71 160.118C134.103 158.03 130.802 160.617 130.773 160.648L87.9623 199.126C87.2116 199.801 86.1047 199.687 85.4887 198.887C84.8631 198.087 84.969 196.882 85.7101 196.217L128.598 157.677C130.744 155.963 135.441 153.864 138.405 157.708C139.031 158.487 138.935 159.682 138.184 160.357Z" fill="#636466"/>
<path d="M95.6332 198.596C96.3743 197.921 96.4801 196.727 95.8545 195.927C94.2472 193.839 97.202 190.805 97.2309 190.774L140.042 152.306C140.792 151.631 140.888 150.436 140.263 149.636C139.637 148.837 138.53 148.722 137.789 149.398L94.9017 187.938C92.9479 189.912 90.1856 194.514 93.15 198.357C93.7756 199.157 94.8824 199.272 95.6332 198.596Z" fill="#636466"/>
<path opacity="0.28" d="M106.177 198.596C111.296 193.071 111.296 184.112 106.177 178.587C101.058 173.061 92.7575 173.061 87.6383 178.587C82.519 184.112 82.519 193.071 87.6383 198.596C92.7575 204.121 101.058 204.121 106.177 198.596Z" fill="#F2F2F2"/>
<path opacity="0.28" d="M138.298 169.736C143.417 164.211 143.417 155.252 138.298 149.727C133.178 144.201 124.878 144.201 119.759 149.727C114.64 155.252 114.64 164.211 119.759 169.736C124.878 175.261 133.178 175.261 138.298 169.736Z" fill="#F2F2F2"/>
<path d="M119.281 147.091C114.007 151.839 112.457 159.661 115.008 166.143C110.426 166.756 106.682 170.122 105.296 174.869C99.8488 170.995 92.4474 171.202 87.1635 175.96C80.7053 181.767 79.8391 192.156 85.2 199.116C90.5803 206.086 100.195 207.032 106.653 201.235C108.8 199.313 110.33 196.882 111.216 194.223C111.437 193.558 111.629 192.883 111.774 192.197C111.928 191.418 112.043 190.628 112.091 189.818C112.371 185.715 111.244 181.487 108.617 178.079C108.511 177.944 108.396 177.799 108.29 177.674C108.347 177.29 108.415 176.926 108.492 176.552C108.944 174.651 109.868 173.01 111.167 171.836C112.476 170.662 114.132 169.977 115.941 169.842C116.288 169.821 116.654 169.81 117.01 169.842C117.106 169.987 117.212 170.122 117.318 170.257C119.945 173.664 123.593 175.617 127.375 176.064C128.117 176.158 128.858 176.178 129.599 176.158C130.253 176.137 130.917 176.064 131.553 175.95C134.142 175.482 136.625 174.308 138.771 172.376C145.229 166.569 146.105 156.191 140.735 149.221C135.364 142.25 125.739 141.295 119.281 147.091ZM108.424 190.94C107.943 193.724 106.596 196.352 104.411 198.316C99.435 202.783 92.0432 202.056 87.9046 196.685C83.7756 191.324 84.4397 183.336 89.4157 178.869C93.9104 174.828 100.407 175.046 104.671 179.108L104.68 179.118C105.123 179.534 105.537 179.991 105.932 180.5C106.153 180.791 106.374 181.092 106.567 181.393C107.828 183.336 108.492 185.549 108.617 187.803C108.655 188.852 108.598 189.912 108.424 190.94ZM136.529 169.457C134.353 171.421 131.707 172.376 129.079 172.376C128.107 172.376 127.135 172.252 126.192 171.992C124.161 171.462 122.274 170.351 120.725 168.657C120.484 168.398 120.244 168.117 120.022 167.826C119.628 167.317 119.291 166.798 118.992 166.247C118.992 166.247 118.992 166.247 118.983 166.237C116.057 160.98 117.039 154.041 121.533 150.01C126.509 145.543 133.911 146.281 138.04 151.641C142.178 157.002 141.495 164.99 136.529 169.457Z" fill="#636466"/>
</svg>
